<?xml version="1.0" encoding="UTF-8"?>
<svg id="Ebene_1" data-name="Ebene 1" xmlns="http://www.w3.org/2000/svg" viewBox="0 0 636.99 282.92">
  <defs>
    <style>
      .cls-1 {
        fill: #ea4e67;
      }

      .cls-2 {
        fill: #fff;
      }
    </style>
  </defs>
  <g>
    <rect class="cls-1" x="10.75" y="8.4" width="122.52" height="148.03" transform="translate(-6.84 6.52) rotate(-4.95)"/>
    <path class="cls-2" d="m52,126.46l-7.53-86.91,22.64-1.96c3.72-.32,7.27-.34,10.64-.06,3.38.29,6.42,1.12,9.14,2.51,2.71,1.39,4.93,3.5,6.66,6.34,1.72,2.84,2.8,6.69,3.22,11.56.3,3.51.04,6.5-.79,8.99-.83,2.49-2.13,4.53-3.9,6.12-1.77,1.6-3.96,2.76-6.56,3.49,3.4.14,6.32.98,8.76,2.54,2.44,1.56,4.38,3.75,5.81,6.58,1.43,2.83,2.33,6.32,2.69,10.47.39,4.51.14,8.44-.76,11.79-.9,3.36-2.37,6.17-4.4,8.43-2.04,2.27-4.64,4.04-7.81,5.32-3.17,1.29-6.86,2.11-11.08,2.47l-26.72,2.31Zm14.69-53.81l3.75-.33c2.93-.25,5.11-.89,6.54-1.92,1.42-1.02,2.33-2.42,2.72-4.18s.48-3.86.27-6.29c-.2-2.29-.78-4.17-1.73-5.63-.96-1.47-2.27-2.52-3.95-3.17-1.68-.65-3.73-.87-6.16-.66l-3.33.29,1.9,21.89Zm3.35,38.73l4.08-.35c4.22-.37,7.04-1.69,8.47-3.98,1.42-2.28,1.96-5.5,1.6-9.65-.28-3.29-.87-5.87-1.75-7.74-.88-1.87-2.19-3.18-3.91-3.93-1.72-.75-3.98-1.01-6.77-.77l-3.97.34,2.26,26.07Z"/>
  </g>
  <g>
    <rect class="cls-1" x="127.34" y="108.54" width="122.52" height="148.03" transform="translate(27.28 -24.5) rotate(8.01)"/>
    <path class="cls-2" d="m173.11,222.96l12.15-86.38,19.09,2.69-12.15,86.38-19.09-2.69Z"/>
  </g>
  <g>
    <rect class="cls-1" x="254.33" y="69.16" width="122.52" height="148.03" transform="translate(67.09 -98.37) rotate(19.78)"/>
    <path class="cls-2" d="m292.97,181.22l24.68-68.61-12.36-4.45,4.85-13.48,42.87,15.42-4.85,13.48-12.26-4.41-24.68,68.61-18.24-6.56Z"/>
  </g>
  <g>
    <rect class="cls-1" x="380.5" y="37.14" width="122.52" height="148.03" transform="translate(-7.94 38.53) rotate(-4.95)"/>
    <path class="cls-2" d="m427.56,156.01l-1-11.59,15.85-64.18-20.28,1.76-1.12-12.98,39.16-3.39.94,10.84-16.1,64.96,21.78-1.89,1.12,12.98-40.34,3.49Z"/>
  </g>
</svg>