<?xml version="1.0" encoding="UTF-8"?>
<svg id="Ebene_2" data-name="Ebene 2" xmlns="http://www.w3.org/2000/svg" viewBox="0 0 415.96 174.15">
  <defs>
    <style>
      .cls-1 {
        fill: #ea4f67;
      }

      .cls-2 {
        fill: #fff;
        stroke: #ea4f67;
        stroke-miterlimit: 10;
        stroke-width: 6px;
      }
    </style>
  </defs>
  <rect class="cls-1" x="26.73" y="39.36" width="353.01" height="91.85" transform="translate(-9.84 28.92) rotate(-7.95)"/>
  <rect class="cls-2" x="42.59" y="39.49" width="345.96" height="85.6" transform="translate(-4.98 14.48) rotate(-3.8)"/>
  <g>
    <path class="cls-1" d="m137.14,109.33l-16.75,1.11-2.89-43.54,16.58-1.1c4.48-.3,8.41.31,11.79,1.83,3.38,1.52,6.07,3.85,8.07,6.98,1.99,3.13,3.14,6.97,3.44,11.5s-.33,8.49-1.88,11.86c-1.56,3.37-3.9,6.03-7.03,7.98-3.13,1.95-6.91,3.07-11.33,3.37Zm-5.6-9.71l4.51-.3c2.15-.14,3.97-.61,5.45-1.41,1.48-.8,2.56-2.07,3.25-3.82s.93-4.15.73-7.18-.77-5.37-1.69-7.02c-.93-1.65-2.2-2.77-3.81-3.36-1.61-.59-3.55-.81-5.82-.66l-4.17.28,1.56,23.47Z"/>
    <path class="cls-1" d="m174.39,63.12l2.89,43.54-11.82.79-2.89-43.54,11.82-.79Z"/>
    <path class="cls-1" d="m205.58,74.72c-.21-1.41-.81-2.48-1.8-3.21-1-.73-2.45-1.03-4.36-.91-1.22.08-2.21.29-2.96.63-.75.34-1.3.77-1.63,1.29-.34.52-.49,1.1-.46,1.74,0,.53.13.99.38,1.39.25.4.62.76,1.13,1.06.5.3,1.14.56,1.91.78.77.22,1.68.4,2.73.54l3.62.53c2.44.35,4.55.89,6.32,1.61,1.77.72,3.24,1.61,4.41,2.66,1.17,1.05,2.05,2.27,2.66,3.63s.98,2.88,1.1,4.54c.18,2.86-.38,5.34-1.66,7.41-1.29,2.08-3.21,3.72-5.77,4.93-2.56,1.21-5.68,1.94-9.37,2.18s-7.12-.09-10.01-1.02-5.18-2.51-6.89-4.74-2.69-5.16-2.94-8.81l11.23-.75c.16,1.33.57,2.43,1.22,3.29.66.87,1.54,1.5,2.66,1.89s2.42.54,3.93.44c1.26-.08,2.31-.31,3.14-.68.83-.37,1.45-.84,1.85-1.43.4-.58.59-1.23.55-1.94-.06-.67-.31-1.24-.76-1.71s-1.17-.88-2.14-1.22c-.98-.34-2.28-.63-3.92-.88l-4.4-.65c-3.91-.58-7.04-1.78-9.39-3.59-2.35-1.82-3.63-4.42-3.84-7.83-.2-2.76.38-5.23,1.74-7.41,1.36-2.18,3.33-3.93,5.91-5.27,2.58-1.34,5.59-2.12,9.04-2.35s6.59.15,9.24,1.16,4.73,2.53,6.27,4.57c1.54,2.04,2.41,4.48,2.61,7.33l-11.31.75Z"/>
    <path class="cls-1" d="m264.02,73.56l-11.99.8c-.15-.99-.43-1.87-.85-2.66-.42-.78-.96-1.45-1.63-2-.67-.55-1.46-.95-2.38-1.21-.91-.26-1.94-.35-3.07-.28-1.98.13-3.63.73-4.93,1.78-1.3,1.06-2.25,2.51-2.83,4.35-.58,1.85-.79,4.03-.62,6.55.18,2.67.68,4.87,1.52,6.62.83,1.75,1.96,3.02,3.38,3.83,1.42.81,3.09,1.15,5,1.02,1.09-.07,2.06-.28,2.91-.61.85-.33,1.57-.78,2.17-1.35.6-.57,1.08-1.24,1.44-2.01.35-.77.57-1.63.65-2.57l12-.71c-.02,1.85-.41,3.76-1.18,5.73-.77,1.97-1.91,3.81-3.44,5.52-1.53,1.72-3.47,3.15-5.81,4.28s-5.11,1.81-8.3,2.03c-4,.27-7.64-.35-10.92-1.86s-5.95-3.86-8.01-7.07c-2.06-3.21-3.24-7.22-3.57-12.04s.34-8.99,1.99-12.44,4.01-6.13,7.07-8.05c3.06-1.92,6.55-3.01,10.46-3.27,2.75-.18,5.3.02,7.66.62s4.46,1.56,6.3,2.88c1.84,1.32,3.36,3,4.56,5.02s2.01,4.39,2.41,7.08Z"/>
    <path class="cls-1" d="m313.11,75.77c.32,4.85-.35,9-2.01,12.44-1.66,3.45-4.04,6.13-7.13,8.05s-6.6,3.01-10.54,3.27-7.61-.36-10.92-1.87c-3.31-1.51-6.02-3.86-8.11-7.06-2.1-3.2-3.31-7.21-3.63-12.03s.34-8.99,2-12.44c1.66-3.45,4.03-6.13,7.11-8.05,3.08-1.92,6.61-3.01,10.58-3.28s7.57.35,10.88,1.85c3.32,1.5,6.03,3.84,8.13,7.04,2.11,3.2,3.32,7.22,3.64,12.07Zm-12.16.81c-.17-2.61-.66-4.78-1.47-6.53-.81-1.75-1.91-3.04-3.31-3.88-1.4-.84-3.08-1.19-5.03-1.06s-3.57.7-4.85,1.72c-1.28,1.02-2.2,2.45-2.77,4.28-.57,1.84-.77,4.06-.59,6.67s.66,4.79,1.47,6.53c.81,1.75,1.91,3.04,3.31,3.88,1.4.84,3.08,1.19,5.04,1.06s3.57-.7,4.85-1.72c1.28-1.02,2.2-2.45,2.77-4.28.57-1.84.77-4.06.59-6.67Z"/>
  </g>
</svg>