<?xml version="1.0" encoding="UTF-8"?>
<svg id="PATTERN" xmlns="http://www.w3.org/2000/svg" viewBox="0 0 502.48 502.1">
  <defs>
    <style>
      .cls-1 {
        fill: #fff;
      }

      .cls-2 {
        fill: #72a7ff;
      }
    </style>
  </defs>
  <rect class="cls-2" x="-7.26" y="-5.85" width="517.27" height="519.7"/>
  <g>
    <path class="cls-1" d="m199.69,445.84c-.66,0-1.3-.37-1.61-1-3.45-6.95-.6-15.41,6.35-18.86,6.95-3.45,15.41-.6,18.86,6.35.44.89.08,1.97-.81,2.41-.89.44-1.97.08-2.41-.81-1.25-2.51-3.39-4.38-6.05-5.28-2.65-.89-5.5-.7-8,.55-5.18,2.57-7.3,8.87-4.73,14.05.44.89.08,1.97-.81,2.4-.26.13-.53.19-.8.19Z"/>
    <path class="cls-1" d="m162.66,236.74c-1.64,0-3.28-.67-4.47-1.98-.67-.73-.61-1.87.12-2.54.74-.66,1.87-.61,2.54.12.91,1,2.46,1.08,3.46.17,1-.91,1.07-2.46.17-3.46-.67-.73-.61-1.87.12-2.54.74-.67,1.87-.61,2.54.12,2.24,2.47,2.05,6.29-.41,8.53-1.15,1.05-2.61,1.56-4.05,1.56Z"/>
    <path class="cls-1" d="m103.2,456.76c-.56,0-1.11-.26-1.46-.75-.94-1.31-1.31-2.91-1.05-4.5.26-1.59,1.13-2.98,2.44-3.92,2.71-1.94,6.49-1.31,8.42,1.39.58.81.39,1.93-.41,2.5-.81.58-1.93.39-2.5-.41-.79-1.1-2.32-1.35-3.42-.57-.53.38-.88.95-.99,1.59-.11.65.04,1.29.42,1.82.58.81.39,1.93-.41,2.5-.32.23-.68.34-1.04.34Z"/>
    <path class="cls-1" d="m296.11,345.98c-.94,0-1.73-.73-1.79-1.68-.06-.99.68-1.84,1.67-1.91,3.35-.22,5.9-3.13,5.68-6.48-.22-3.35-3.14-5.93-6.49-5.68-.98.06-1.84-.68-1.91-1.67-.06-.99.68-1.84,1.67-1.91,5.32-.35,9.95,3.7,10.3,9.03.35,5.33-3.7,9.95-9.03,10.3-.04,0-.08,0-.12,0Z"/>
    <path class="cls-1" d="m452.24,299.74c-.85,0-1.6-.6-1.76-1.47-.18-.97.46-1.91,1.44-2.09,1.25-.23,2.08-1.44,1.84-2.69-.11-.61-.45-1.13-.96-1.48-.51-.35-1.13-.48-1.73-.37-.98.18-1.91-.46-2.09-1.44-.18-.97.46-1.91,1.44-2.09,1.55-.29,3.11.04,4.41.93,1.3.89,2.17,2.23,2.46,3.78.29,1.55-.04,3.12-.93,4.41-.89,1.3-2.23,2.17-3.78,2.46-.11.02-.22.03-.33.03Z"/>
    <path class="cls-1" d="m493.01,224.71c-.21,0-.41-.01-.62-.03-.99-.11-1.69-1-1.58-1.99.11-.99,1-1.69,1.99-1.58,1.04.11,1.96-.62,2.08-1.65.12-1.03-.62-1.96-1.65-2.08-.99-.11-1.69-1-1.58-1.99.11-.99,1.01-1.7,1.99-1.58,2.99.34,5.15,3.05,4.81,6.05-.32,2.79-2.69,4.85-5.43,4.85Z"/>
    <path class="cls-1" d="m367.63,19.71c-1.41,0-2.78-.4-3.99-1.18-1.67-1.07-2.81-2.73-3.23-4.66-.21-.97.4-1.92,1.37-2.13.97-.21,1.93.4,2.13,1.37.22,1,.81,1.85,1.67,2.4.86.55,1.88.74,2.88.52,2.06-.45,3.37-2.49,2.92-4.55-.21-.97.4-1.92,1.37-2.13.97-.21,1.92.4,2.13,1.37.42,1.94.06,3.92-1.01,5.58-1.07,1.67-2.73,2.81-4.66,3.23-.53.11-1.06.17-1.59.17Z"/>
    <path class="cls-1" d="m267.11,262.36c-.12,0-.24,0-.36-.01-.99-.06-1.74-.91-1.68-1.9.06-.99.93-1.76,1.9-1.68.58.04,1.14-.16,1.57-.54.44-.38.69-.92.73-1.5.04-.58-.16-1.14-.54-1.57-.38-.44-.92-.69-1.5-.73-.99-.06-1.74-.91-1.68-1.9.06-.99.94-1.75,1.9-1.68,1.54.09,2.95.78,3.96,1.93,1.02,1.15,1.53,2.64,1.44,4.17-.09,1.54-.78,2.95-1.93,3.96-1.06.94-2.4,1.45-3.81,1.45Z"/>
    <path class="cls-1" d="m81.66,288.61c-.12,0-.24-.01-.36-.04-.97-.2-1.6-1.14-1.4-2.11.41-2.05,0-4.13-1.15-5.87-1.15-1.74-2.92-2.92-4.96-3.34-2.04-.41-4.13,0-5.87,1.15-1.74,1.15-2.92,2.92-3.34,4.96-.2.97-1.14,1.6-2.11,1.4-.97-.2-1.6-1.14-1.4-2.11.6-2.99,2.33-5.56,4.87-7.24,2.54-1.68,5.57-2.28,8.57-1.68,2.99.6,5.56,2.33,7.24,4.87,1.68,2.54,2.28,5.58,1.68,8.56-.17.85-.92,1.44-1.76,1.44Z"/>
    <path class="cls-1" d="m212.66,49.18c-.55,0-1.11-.03-1.67-.09-.99-.1-1.7-.98-1.6-1.97.1-.99.97-1.72,1.97-1.6,3.27.34,6.48-.62,9.03-2.69,2.55-2.07,4.15-5.02,4.48-8.29.34-3.27-.62-6.48-2.69-9.03-2.07-2.55-5.02-4.15-8.29-4.48-.99-.1-1.7-.98-1.6-1.97.1-.99.97-1.71,1.97-1.6,4.23.44,8.03,2.49,10.71,5.79s3.91,7.44,3.47,11.66c-.44,4.23-2.49,8.03-5.79,10.71-2.86,2.32-6.36,3.56-10,3.56Z"/>
    <path class="cls-1" d="m461.27,194.66c-.58,0-1.14-.28-1.49-.79-.55-.82-.34-1.94.49-2.49.52-.35.87-.88.99-1.5.12-.62,0-1.24-.36-1.76-.35-.52-.88-.87-1.5-.99-.62-.12-1.24,0-1.76.36-.82.55-1.94.33-2.49-.49-.55-.82-.34-1.94.49-2.49,1.32-.89,2.9-1.2,4.46-.9,1.56.3,2.9,1.2,3.79,2.51.89,1.32,1.21,2.9.9,4.45-.3,1.56-1.2,2.9-2.51,3.79-.31.21-.66.31-1,.31Z"/>
    <path class="cls-1" d="m204.05,212.37s-.06,0-.09,0c-.99-.05-1.75-.89-1.71-1.88.02-.36-.26-.67-.63-.69-.36-.05-.67.26-.69.63-.05.99-.87,1.76-1.88,1.71-.99-.05-1.75-.89-1.71-1.88.11-2.34,2.1-4.12,4.45-4.04,1.13.05,2.18.55,2.94,1.38.76.84,1.15,1.93,1.1,3.06-.05.96-.84,1.71-1.79,1.71Z"/>
    <path class="cls-1" d="m442.99,117.55c-2.49,0-4.65-1.88-4.93-4.41-.31-2.72,1.66-5.19,4.38-5.49.98-.12,1.87.6,1.99,1.58s-.6,1.87-1.58,1.99c-.75.08-1.3.77-1.21,1.52.08.76.77,1.31,1.52,1.21.98-.12,1.87.6,1.98,1.58s-.6,1.87-1.58,1.98c-.19.02-.37.03-.56.03Z"/>
    <path class="cls-1" d="m137.02,341.15c-.84,0-1.68-.22-2.44-.7-1.06-.65-1.8-1.68-2.08-2.89-.28-1.21-.08-2.46.57-3.52.52-.84,1.63-1.1,2.47-.58.84.52,1.1,1.63.58,2.47-.15.24-.2.53-.13.8.06.28.23.51.48.66.5.31,1.16.15,1.46-.34.52-.84,1.63-1.1,2.47-.58.84.52,1.1,1.63.58,2.47-.88,1.42-2.4,2.2-3.96,2.2Z"/>
    <path class="cls-1" d="m461.91,229.34c-.09,0-.19,0-.28-.02-1.13-.18-2.13-.79-2.8-1.72-.67-.93-.95-2.06-.77-3.2.18-1.13.79-2.13,1.72-2.8.93-.67,2.06-.94,3.2-.77.98.16,1.65,1.08,1.49,2.05-.16.98-1.08,1.65-2.05,1.49-.38-.06-.75.2-.81.59-.04.25.06.44.13.53.06.09.21.24.46.28.98.16,1.65,1.08,1.49,2.05-.14.88-.9,1.51-1.77,1.51Z"/>
    <path class="cls-1" d="m326.25,278.65c-2.21,0-4.43-.67-6.36-2.06-.8-.58-.99-1.7-.4-2.51.58-.8,1.7-.98,2.51-.4,3.26,2.35,7.82,1.62,10.18-1.64,2.35-3.26,1.62-7.82-1.64-10.18-.8-.58-.99-1.7-.4-2.51.58-.8,1.7-.98,2.51-.4,4.86,3.51,5.96,10.33,2.45,15.19-2.12,2.94-5.46,4.5-8.83,4.5Z"/>
    <path class="cls-1" d="m260.55,342.83c-.67,0-1.32-.38-1.62-1.03-.43-.9-.04-1.97.85-2.39,1.27-.6,2.24-1.67,2.71-3,.47-1.33.4-2.76-.2-4.04-.6-1.27-1.67-2.24-3-2.71-1.33-.47-2.76-.4-4.04.2-.89.43-1.97.04-2.39-.85-.43-.9-.04-1.97.85-2.39,2.14-1.02,4.55-1.14,6.78-.34,2.23.8,4.02,2.41,5.04,4.56,2.1,4.42.21,9.72-4.21,11.82-.25.12-.51.17-.77.17Z"/>
    <path class="cls-1" d="m334.61,210.16c-.47,0-.94-.04-1.4-.13-.97-.18-1.62-1.12-1.43-2.09.18-.97,1.12-1.62,2.09-1.43,1.03.19,2.09-.03,2.96-.62.87-.6,1.46-1.5,1.65-2.53.4-2.14-1.01-4.21-3.16-4.61-.97-.18-1.62-1.12-1.43-2.09.18-.97,1.12-1.62,2.09-1.43,4.09.77,6.79,4.71,6.02,8.8-.37,1.98-1.49,3.7-3.15,4.83-1.27.87-2.74,1.32-4.24,1.32Z"/>
    <path class="cls-1" d="m177.48,33.15c-3.58,0-7.15-1.41-9.81-4.2-.68-.72-.66-1.85.06-2.54.72-.68,1.85-.66,2.54.06,3.79,3.98,10.1,4.13,14.08.34,3.98-3.79,4.13-10.1.34-14.08-.68-.72-.66-1.85.06-2.54.72-.68,1.85-.66,2.54.06,5.15,5.41,4.95,14-.46,19.15-2.62,2.49-5.98,3.73-9.34,3.73Z"/>
    <path class="cls-1" d="m231.96,258.16c-.49,0-.97-.2-1.32-.58-.95-1.03-1.43-2.37-1.37-3.77.06-1.4.66-2.69,1.69-3.63,2.13-1.95,5.45-1.81,7.4.32.67.73.62,1.87-.11,2.54-.73.67-1.87.62-2.54-.11-.62-.67-1.66-.72-2.33-.1-.32.3-.51.7-.53,1.14-.02.44.13.86.43,1.18.67.73.62,1.87-.11,2.54-.35.32-.78.47-1.21.47Z"/>
    <path class="cls-1" d="m396.94,32.34c-.92,0-1.83-.23-2.65-.69-.87-.48-1.18-1.57-.71-2.44.48-.87,1.57-1.18,2.44-.71.45.25.97.31,1.47.16.5-.14.9-.47,1.15-.92.25-.45.31-.97.16-1.47-.14-.5-.47-.91-.92-1.15-.87-.48-1.18-1.57-.71-2.44.48-.87,1.57-1.18,2.44-.71,1.29.71,2.23,1.88,2.64,3.3.41,1.42.24,2.91-.47,4.2-.71,1.29-1.88,2.23-3.3,2.64-.51.15-1.03.22-1.54.22Z"/>
    <path class="cls-1" d="m443.84,462.68c-.97,0-1.76-.77-1.79-1.74-.15-4.95,3.75-9.09,8.7-9.24,4.95-.17,9.09,3.75,9.24,8.7.03.99-.75,1.82-1.74,1.85-1.01.04-1.82-.75-1.85-1.74-.09-2.97-2.59-5.3-5.55-5.22-1.44.04-2.77.65-3.76,1.69-.99,1.05-1.51,2.42-1.46,3.86.03.99-.75,1.82-1.74,1.85-.02,0-.04,0-.06,0Z"/>
    <path class="cls-1" d="m380.65,401.99c-.3,0-.61-.08-.89-.24-.86-.49-1.16-1.59-.67-2.45.3-.53.38-1.16.22-1.75-.16-.59-.55-1.09-1.08-1.39-1.1-.63-2.51-.24-3.14.86-.49.86-1.59,1.16-2.45.67-.86-.49-1.16-1.59-.67-2.45.78-1.37,2.04-2.35,3.56-2.77,1.52-.42,3.11-.22,4.47.56,2.82,1.61,3.81,5.22,2.2,8.04-.33.58-.94.91-1.56.91Z"/>
    <path class="cls-1" d="m150.21,429.02c-2.19,0-4.4-.45-6.53-1.4-8.07-3.61-11.69-13.11-8.08-21.18.41-.9,1.47-1.31,2.37-.9.9.4,1.31,1.47.9,2.37-1.36,3.03-1.45,6.41-.27,9.51,1.18,3.1,3.51,5.56,6.54,6.92,6.26,2.8,13.63,0,16.43-6.27.4-.9,1.47-1.31,2.37-.9.9.4,1.31,1.47.9,2.37-2.66,5.94-8.52,9.48-14.65,9.48Z"/>
    <path class="cls-1" d="m429.61,33.26c-.8,0-1.53-.54-1.74-1.35-.24-.96.34-1.94,1.3-2.18,1.46-.37,2.69-1.29,3.47-2.58.77-1.3.99-2.82.62-4.28-.37-1.46-1.29-2.69-2.58-3.47-1.3-.77-2.81-.99-4.28-.62-.96.25-1.94-.34-2.18-1.3-.24-.96.34-1.94,1.3-2.18,2.39-.61,4.88-.25,7,1.02,2.12,1.26,3.62,3.28,4.23,5.67.61,2.39.24,4.88-1.02,7-1.26,2.12-3.28,3.62-5.67,4.23-.15.04-.3.06-.44.06Z"/>
    <path class="cls-1" d="m446.69,82.86c-.83,0-1.57-.57-1.75-1.41-.72-3.32,1.39-6.61,4.72-7.34,3.33-.72,6.62,1.4,7.34,4.72.21.97-.4,1.92-1.37,2.13-.97.21-1.92-.4-2.13-1.37-.3-1.39-1.68-2.27-3.07-1.97-.67.15-1.25.55-1.62,1.13-.37.58-.5,1.27-.35,1.94.21.97-.4,1.92-1.37,2.13-.13.03-.26.04-.38.04Z"/>
    <path class="cls-1" d="m229.78,399.54c-.63,0-1.25-.33-1.57-.93-1.86-3.37-2.29-7.27-1.22-10.97,1.07-3.7,3.52-6.76,6.89-8.62,6.96-3.84,15.75-1.29,19.59,5.67.48.87.16,1.96-.71,2.44-.87.48-1.96.16-2.44-.71-1.4-2.53-3.7-4.37-6.47-5.18-2.78-.8-5.71-.48-8.24.92-2.53,1.4-4.37,3.7-5.18,6.47-.8,2.78-.48,5.71.92,8.24.48.87.16,1.96-.71,2.44-.27.15-.57.22-.86.22Z"/>
    <path class="cls-1" d="m12.85,394.78c-2.22,0-4.28-1.44-4.97-3.67-.29-.95.24-1.95,1.19-2.24.94-.29,1.95.24,2.24,1.19.13.41.41.75.79.95.38.2.81.24,1.23.12.85-.26,1.33-1.16,1.06-2.01-.29-.95.24-1.95,1.19-2.24.94-.29,1.95.24,2.24,1.19.84,2.74-.7,5.65-3.44,6.5-.51.16-1.02.23-1.53.23Z"/>
    <path class="cls-1" d="m359.55,54.9c-1.79,0-3.59-.5-5.2-1.54-4.44-2.88-5.71-8.83-2.83-13.27.54-.83,1.65-1.07,2.48-.53.83.54,1.07,1.65.53,2.48-1.8,2.78-1.01,6.5,1.77,8.3,2.78,1.8,6.5,1.01,8.3-1.77.54-.83,1.65-1.07,2.48-.53.83.54,1.07,1.65.53,2.48-1.83,2.83-4.92,4.37-8.06,4.37Z"/>
    <path class="cls-1" d="m484.8,399.18c-1.82,0-3.66-.5-5.3-1.56-.83-.54-1.08-1.65-.54-2.48.54-.83,1.64-1.08,2.48-.54,2.9,1.86,6.78,1.02,8.64-1.88.9-1.4,1.2-3.08.85-4.71-.35-1.63-1.32-3.03-2.73-3.93-.83-.54-1.08-1.65-.54-2.48.54-.83,1.65-1.08,2.48-.54,2.21,1.42,3.74,3.62,4.3,6.19.56,2.57.08,5.2-1.34,7.41-1.88,2.92-5.05,4.52-8.3,4.52Z"/>
    <path class="cls-1" d="m300.21,194.96c-.3,0-.6-.03-.91-.09-.97-.19-1.61-1.13-1.42-2.11.19-.97,1.13-1.6,2.11-1.42.28.06.57,0,.8-.16.24-.16.4-.4.45-.68.11-.58-.27-1.15-.85-1.26-.97-.19-1.61-1.13-1.42-2.11.19-.97,1.14-1.6,2.11-1.42,2.52.5,4.17,2.95,3.68,5.47-.24,1.22-.94,2.28-1.98,2.97-.78.52-1.67.79-2.59.79Z"/>
    <path class="cls-1" d="m257.8,60.77c-.61,0-1.2-.31-1.54-.86-1.36-2.24-.65-5.16,1.59-6.53,2.24-1.36,5.17-.65,6.53,1.59.52.85.25,1.95-.6,2.47-.85.51-1.95.25-2.47-.6-.33-.55-1.05-.72-1.59-.39-.55.33-.72,1.05-.39,1.59.52.85.25,1.95-.6,2.47-.29.18-.61.26-.93.26Z"/>
    <path class="cls-1" d="m155.05,204.95c-1.71,0-3.43-.46-4.99-1.42-2.16-1.34-3.67-3.43-4.25-5.9-.58-2.47-.17-5.02,1.17-7.18.52-.84,1.63-1.1,2.47-.58.84.52,1.1,1.63.58,2.47-.83,1.34-1.09,2.93-.73,4.47.36,1.54,1.3,2.84,2.65,3.67,2.77,1.72,6.43.86,8.15-1.92.52-.84,1.63-1.1,2.47-.58.84.52,1.1,1.63.58,2.47-1.8,2.9-4.91,4.5-8.1,4.5Z"/>
    <path class="cls-1" d="m405.59,467.1c-.34,0-.69-.1-.99-.3-.83-.55-1.05-1.66-.5-2.49.63-.96.37-2.25-.58-2.89-.96-.64-2.25-.37-2.89.58-.55.83-1.66,1.05-2.49.5-.83-.55-1.05-1.66-.5-2.49,1.73-2.61,5.25-3.32,7.86-1.59,2.6,1.73,3.32,5.26,1.59,7.86-.35.52-.92.8-1.5.8Z"/>
    <path class="cls-1" d="m203.82,257.64c-.84,0-1.58-.59-1.76-1.44-.2-.97.43-1.92,1.4-2.12.61-.12,1.13-.48,1.47-.99.34-.52.46-1.13.34-1.74-.25-1.25-1.48-2.06-2.73-1.8-.97.19-1.92-.43-2.12-1.4-.2-.97.43-1.92,1.4-2.12,3.19-.65,6.31,1.41,6.96,4.6.32,1.55.01,3.12-.86,4.43-.87,1.31-2.2,2.21-3.74,2.53-.12.02-.24.04-.36.04Z"/>
    <path class="cls-1" d="m171.01,472.89c-.76,0-1.47-.49-1.71-1.26-.3-.95.23-1.95,1.18-2.25,1.92-.6,3.49-1.91,4.42-3.69.93-1.78,1.12-3.82.52-5.74-.6-1.92-1.91-3.49-3.69-4.42-1.78-.93-3.82-1.12-5.74-.52-.94.29-1.95-.23-2.25-1.18-.3-.95.23-1.95,1.18-2.25,2.84-.88,5.84-.62,8.47.76,2.63,1.38,4.57,3.7,5.45,6.53.89,2.83.62,5.84-.76,8.47-1.38,2.63-3.7,4.57-6.53,5.45-.18.06-.36.08-.54.08Z"/>
    <path class="cls-1" d="m11.09,208.76c-.43,0-.86-.06-1.28-.18-1.19-.34-2.18-1.13-2.77-2.21-.48-.87-.17-1.96.7-2.44.87-.48,1.96-.17,2.44.7.14.24.36.42.62.5.27.08.55.04.79-.09.5-.28.69-.91.41-1.42-.48-.87-.17-1.96.7-2.44.87-.48,1.96-.17,2.44.7,1.24,2.23.43,5.06-1.81,6.3-.7.39-1.46.58-2.24.58Z"/>
    <path class="cls-1" d="m232.85,304.34c-.7,0-1.4-.07-2.1-.21-2.72-.55-5.05-2.13-6.58-4.45-1.53-2.31-2.06-5.08-1.51-7.8.2-.97,1.15-1.6,2.12-1.4.97.2,1.6,1.15,1.4,2.12-.36,1.78-.01,3.59.99,5.1,1,1.51,2.53,2.55,4.3,2.91,1.78.36,3.59.01,5.1-.99,1.51-1,2.55-2.53,2.91-4.3.2-.97,1.15-1.6,2.12-1.4.97.2,1.6,1.15,1.4,2.12-.56,2.72-2.13,5.05-4.45,6.58-1.72,1.13-3.69,1.72-5.7,1.72Z"/>
    <path class="cls-1" d="m471.66,145.31c-2.01,0-4.05-.4-6.01-1.23-.91-.39-1.33-1.45-.94-2.36.39-.91,1.45-1.33,2.36-.94,5.95,2.55,12.86-.23,15.41-6.17,1.23-2.88,1.27-6.07.1-8.98-1.17-2.91-3.4-5.19-6.28-6.42-.91-.39-1.33-1.45-.94-2.36.39-.91,1.44-1.33,2.36-.94,3.76,1.61,6.67,4.59,8.2,8.39,1.52,3.8,1.47,7.97-.14,11.73-2.49,5.81-8.16,9.3-14.11,9.3Z"/>
    <path class="cls-1" d="m426.08,205.52c-.39,0-.79-.05-1.18-.16-.95-.27-1.51-1.26-1.24-2.22.27-.95,1.26-1.51,2.22-1.24.24.07.43,0,.53-.06.09-.05.26-.18.33-.42.07-.24,0-.44-.06-.53-.05-.09-.18-.26-.42-.33-.95-.27-1.51-1.26-1.24-2.22.27-.95,1.26-1.51,2.22-1.24,1.1.31,2.02,1.04,2.57,2.04.56,1,.69,2.16.38,3.26-.31,1.1-1.04,2.01-2.04,2.57-.65.36-1.36.54-2.08.54Z"/>
    <path class="cls-1" d="m247.27,505.64c-2.01,0-3.91-.76-5.37-2.16-1.5-1.44-2.34-3.37-2.39-5.44-.02-.99.77-1.81,1.76-1.83.94.02,1.81.77,1.83,1.76.02,1.11.48,2.15,1.28,2.93.81.77,1.89,1.18,2.98,1.16,1.12-.02,2.15-.48,2.93-1.28.77-.8,1.18-1.86,1.16-2.98-.02-.99.77-1.81,1.76-1.83.98,0,1.81.77,1.83,1.76.04,2.07-.72,4.04-2.16,5.54-1.44,1.5-3.37,2.34-5.44,2.39-.06,0-.11,0-.17,0Z"/>
    <path class="cls-1" d="m11.64,283.08c-1.34,0-2.67-.6-3.56-1.73-.74-.95-1.06-2.13-.92-3.32.15-1.19.75-2.26,1.7-3,.78-.61,1.91-.47,2.52.31.61.78.47,1.91-.31,2.52-.26.2-.33.47-.35.61-.02.14-.02.41.19.67.31.4.89.47,1.28.16.78-.61,1.91-.47,2.52.31.61.78.47,1.91-.31,2.52-.82.64-1.79.95-2.76.95Z"/>
    <path class="cls-1" d="m393.65,216.35c-.11,0-.22,0-.33-.03-5.04-.93-8.38-5.79-7.45-10.84.45-2.44,1.83-4.56,3.87-5.97,2.05-1.41,4.52-1.93,6.96-1.48.97.18,1.62,1.12,1.44,2.09-.18.97-1.11,1.62-2.09,1.44-1.5-.28-3.02.04-4.27.91-1.26.86-2.1,2.16-2.38,3.66-.57,3.09,1.48,6.08,4.57,6.65.97.18,1.62,1.12,1.44,2.09-.16.86-.92,1.47-1.76,1.47Z"/>
    <path class="cls-1" d="m125.62,272.67c-3.12,0-6.22-1.3-8.42-3.83-.65-.75-.57-1.88.18-2.53.75-.65,1.88-.57,2.53.18,2.73,3.15,7.51,3.48,10.65.75,3.14-2.73,3.48-7.51.75-10.65-.65-.75-.57-1.88.18-2.53.75-.65,1.88-.57,2.53.18,4.03,4.64,3.53,11.69-1.11,15.72-2.1,1.83-4.71,2.72-7.3,2.72Z"/>
    <path class="cls-1" d="m33.72,131.97c-3.15,0-6.29-1.27-8.57-3.78-.67-.73-.61-1.87.12-2.54.74-.67,1.87-.61,2.54.12,2.96,3.26,8.02,3.5,11.27.54,1.58-1.43,2.5-3.39,2.6-5.52.1-2.13-.63-4.17-2.07-5.75-.67-.73-.61-1.87.12-2.54.74-.67,1.87-.61,2.54.12,2.08,2.29,3.14,5.25,2.99,8.33-.15,3.09-1.49,5.93-3.77,8.01-2.21,2.01-5,3-7.78,3Z"/>
    <path class="cls-1" d="m154.67,16.69c-.2,0-.39-.01-.59-.03-1.42-.16-2.69-.86-3.59-1.97-.89-1.12-1.3-2.51-1.14-3.93.11-.99,1.01-1.69,1.98-1.59.99.11,1.7,1,1.59,1.98-.05.47.08.93.38,1.29.29.37.71.6,1.18.65.95.12,1.84-.59,1.94-1.55.11-.99,1-1.7,1.98-1.59.99.11,1.69,1,1.59,1.98-.3,2.73-2.63,4.76-5.31,4.76Z"/>
    <path class="cls-1" d="m100.6,497.73c-.22,0-.45-.01-.68-.03-.99-.09-1.71-.97-1.62-1.95.09-.99.95-1.71,1.95-1.62.96.08,1.91-.2,2.66-.82.75-.62,1.21-1.5,1.3-2.46.19-2-1.29-3.77-3.28-3.96-.99-.09-1.71-.97-1.62-1.95.09-.99.96-1.71,1.95-1.62,3.97.37,6.89,3.9,6.52,7.87-.35,3.74-3.51,6.56-7.19,6.56Z"/>
    <path class="cls-1" d="m487.01,497.83c-.46,0-.92-.07-1.37-.2-1.21-.37-2.21-1.18-2.81-2.3-.47-.87-.14-1.96.73-2.43.87-.47,1.96-.14,2.43.73.15.27.39.47.68.56.29.09.61.06.88-.09.56-.3.77-1,.47-1.56-.47-.87-.14-1.96.73-2.43.87-.47,1.96-.14,2.43.73,1.24,2.3.37,5.18-1.93,6.42-.7.38-1.47.57-2.24.57Z"/>
    <path class="cls-1" d="m453.23,391.54c-.21,0-.42-.04-.63-.12-2.84-1.07-5.09-3.18-6.35-5.94-1.25-2.76-1.36-5.85-.29-8.69,1.07-2.84,3.18-5.1,5.94-6.35,2.76-1.25,5.85-1.36,8.69-.29.93.35,1.4,1.38,1.05,2.31-.35.93-1.39,1.4-2.31,1.05-1.94-.73-4.05-.66-5.94.2-1.89.86-3.33,2.4-4.06,4.34-.73,1.94-.66,4.05.2,5.94.86,1.89,2.4,3.33,4.34,4.06.93.35,1.4,1.38,1.05,2.31-.27.72-.95,1.16-1.68,1.16Z"/>
    <path class="cls-1" d="m122.27,384.46c-.54,0-1.07-.24-1.43-.7-1.06-1.39-1.52-3.11-1.29-4.85.23-1.74,1.12-3.28,2.52-4.34,2.87-2.2,6.99-1.65,9.19,1.22.6.79.45,1.91-.34,2.52-.79.6-1.91.45-2.52-.34-.99-1.3-2.86-1.55-4.16-.55-.63.48-1.03,1.18-1.14,1.96-.1.79.1,1.56.58,2.19.6.79.45,1.91-.33,2.52-.33.25-.71.37-1.09.37Z"/>
    <path class="cls-1" d="m392.17,350.48c-.68,0-1.32-.38-1.63-1.04-.42-.9-.03-1.97.87-2.38.4-.19.57-.66.38-1.05-.18-.4-.66-.57-1.05-.38-.9.42-1.97.03-2.38-.87-.42-.9-.03-1.97.87-2.38,2.19-1.02,4.8-.07,5.82,2.12,1.02,2.19.07,4.8-2.12,5.82-.25.11-.5.17-.76.17Z"/>
    <path class="cls-1" d="m41.19,302.61c-1.41,0-2.8-.59-3.79-1.74-1.78-2.08-1.54-5.23.54-7.02.75-.65,1.89-.56,2.53.19.64.75.56,1.89-.19,2.53-.58.5-.65,1.38-.15,1.96.5.58,1.38.65,1.96.15.75-.64,1.89-.56,2.53.2.64.75.56,1.89-.2,2.53-.94.8-2.09,1.19-3.23,1.19Z"/>
    <path class="cls-1" d="m492.51,90.78c-.06,0-.13,0-.19,0-2.66-.28-4.59-2.67-4.31-5.33.28-2.66,2.67-4.58,5.33-4.31.99.1,1.7.99,1.6,1.97-.1.99-.98,1.69-1.97,1.6-.69-.08-1.31.43-1.38,1.12s.43,1.31,1.12,1.38c.99.11,1.7.99,1.6,1.97-.1.92-.88,1.61-1.78,1.61Z"/>
    <path class="cls-1" d="m75.32,27.79c-.22,0-.44-.04-.66-.13-3.03-1.2-4.52-4.64-3.32-7.68,1.2-3.03,4.64-4.52,7.68-3.32.92.37,1.37,1.41,1.01,2.33-.37.92-1.41,1.37-2.33,1.01-1.19-.48-2.55.11-3.02,1.3-.47,1.19.11,2.55,1.3,3.02.92.37,1.37,1.41,1.01,2.33-.28.7-.95,1.14-1.67,1.14Z"/>
    <path class="cls-1" d="m93.31,123.38c-.54,0-1.08-.25-1.43-.71-.6-.79-.44-1.92.35-2.51,1.94-1.46,3.19-3.58,3.52-5.98.34-2.4-.28-4.79-1.74-6.72-3.01-4-8.71-4.79-12.71-1.78-.79.6-1.92.44-2.51-.35-.6-.79-.44-1.92.35-2.51,5.58-4.2,13.53-3.09,17.73,2.49,2.04,2.7,2.9,6.03,2.43,9.38-.47,3.35-2.22,6.32-4.92,8.35-.32.24-.7.36-1.08.36Z"/>
    <path class="cls-1" d="m492.8,184.67c-.09,0-.18,0-.27-.02-4.65-.7-7.86-5.05-7.16-9.69.7-4.65,5.04-7.87,9.69-7.16.98.15,1.66,1.06,1.51,2.04-.15.98-1.07,1.66-2.04,1.51-2.69-.41-5.21,1.46-5.61,4.15-.4,2.69,1.46,5.21,4.15,5.61.98.15,1.66,1.06,1.51,2.04-.13.89-.9,1.53-1.77,1.53Z"/>
    <path class="cls-1" d="m451.81,500.89c-.17,0-.34-.02-.51-.07-.95-.28-1.49-1.28-1.21-2.23.62-2.1-.58-4.32-2.68-4.94-2.1-.62-4.32.58-4.94,2.68-.28.95-1.29,1.49-2.23,1.21-.95-.28-1.49-1.28-1.21-2.23,1.18-4,5.41-6.28,9.4-5.1,4,1.18,6.29,5.4,5.1,9.4-.23.78-.95,1.29-1.72,1.29Z"/>
    <path class="cls-1" d="m261.63,422.35c-.68,0-1.33-.39-1.63-1.05-1.74-3.78-.07-8.27,3.71-10.01,3.78-1.74,8.27-.07,10.01,3.71.41.9.02,1.97-.88,2.38-.9.41-1.97.02-2.38-.88-.91-1.98-3.27-2.86-5.25-1.94-1.98.91-2.86,3.27-1.94,5.25.41.9.02,1.97-.88,2.38-.24.11-.5.16-.75.16Z"/>
    <path class="cls-1" d="m36.14,254.22c-.38,0-.76-.12-1.08-.36-.79-.6-.95-1.72-.35-2.51,1.61-2.13,2.3-4.77,1.93-7.42-.37-2.65-1.75-5-3.88-6.61-2.13-1.61-4.76-2.3-7.42-1.93-2.65.37-5,1.75-6.61,3.88-.6.79-1.72.95-2.51.35-.79-.6-.95-1.72-.35-2.51,2.19-2.9,5.38-4.77,8.98-5.27,3.6-.5,7.18.43,10.08,2.62,2.9,2.19,4.77,5.38,5.27,8.98.5,3.6-.43,7.18-2.62,10.08-.35.47-.89.71-1.43.71Z"/>
    <path class="cls-1" d="m355.06,127.4c-.61,0-1.24-.06-1.86-.19-5.06-1.02-8.35-5.97-7.32-11.04.2-.97,1.13-1.6,2.11-1.4.97.2,1.6,1.14,1.4,2.11-.63,3.12,1.39,6.17,4.52,6.81,3.12.63,6.18-1.4,6.81-4.52.2-.97,1.15-1.6,2.11-1.4.97.2,1.6,1.14,1.4,2.11-.9,4.44-4.81,7.51-9.18,7.51Z"/>
    <path class="cls-1" d="m176.91,363.34c-.16,0-.31-.02-.47-.06-.96-.26-1.52-1.25-1.26-2.2.5-1.83.25-3.74-.69-5.38-.94-1.64-2.47-2.82-4.29-3.32-3.77-1.02-7.68,1.21-8.7,4.98-.26.96-1.24,1.52-2.2,1.26-.96-.26-1.52-1.25-1.26-2.2,1.55-5.68,7.43-9.04,13.11-7.5,2.75.75,5.05,2.52,6.47,5,1.42,2.48,1.79,5.35,1.04,8.11-.22.8-.94,1.32-1.73,1.33Z"/>
    <path class="cls-1" d="m482.38,17.62c-2.46,0-4.8-.92-6.61-2.62-1.88-1.77-2.97-4.16-3.05-6.74-.03-.99.75-1.82,1.74-1.85.96-.05,1.82.75,1.85,1.74.05,1.62.73,3.13,1.92,4.24,1.18,1.11,2.71,1.69,4.35,1.64,1.62-.05,3.13-.73,4.24-1.92,1.11-1.18,1.69-2.73,1.64-4.35-.03-.99.75-1.82,1.74-1.85.97-.05,1.82.75,1.85,1.74.08,2.58-.85,5.04-2.61,6.92-1.77,1.88-4.16,2.97-6.74,3.05-.11,0-.21,0-.32,0Z"/>
    <path class="cls-1" d="m265.53,105.97c-.93,0-1.72-.72-1.79-1.67-.28-3.91.97-7.7,3.54-10.66,2.57-2.97,6.13-4.75,10.04-5.04,3.92-.28,7.7.97,10.66,3.54,2.97,2.57,4.75,6.13,5.04,10.04.07.99-.67,1.85-1.66,1.92-1,.07-1.85-.67-1.92-1.66-.21-2.96-1.56-5.65-3.81-7.59-2.24-1.94-5.12-2.89-8.06-2.67-2.96.21-5.65,1.56-7.59,3.81-1.94,2.24-2.89,5.1-2.67,8.06.07.99-.67,1.85-1.66,1.92-.04,0-.09,0-.13,0Z"/>
    <path class="cls-1" d="m131.02,312.91c-1.68,0-3.35-.39-4.9-1.15-2.67-1.31-4.66-3.59-5.62-6.4-.32-.94.18-1.96,1.12-2.28.94-.32,1.96.18,2.28,1.12.65,1.91,2,3.45,3.81,4.34,1.81.89,3.85,1.02,5.76.37,1.91-.65,3.45-2,4.34-3.81.89-1.81,1.02-3.85.37-5.76-.32-.94.18-1.96,1.12-2.28.94-.32,1.96.18,2.28,1.12.96,2.81.76,5.83-.55,8.5-1.31,2.67-3.59,4.66-6.4,5.62-1.18.4-2.39.6-3.6.6Z"/>
    <path class="cls-1" d="m143.46,503.85c-.96,0-1.75-.76-1.79-1.72-.25-6.03,4.47-11.15,10.5-11.39,2.9-.13,5.72.91,7.87,2.89,2.15,1.98,3.4,4.69,3.52,7.61.04.99-.73,1.83-1.72,1.87-1.01.05-1.83-.73-1.87-1.72-.08-1.97-.92-3.78-2.37-5.12-1.45-1.33-3.33-2.01-5.29-1.94-1.97.08-3.78.92-5.12,2.37-1.33,1.45-2.02,3.33-1.94,5.29.04.99-.73,1.83-1.72,1.87-.02,0-.05,0-.07,0Z"/>
    <path class="cls-1" d="m329.85,316.54c-.58,0-1.15-.28-1.5-.8-.55-.82-.33-1.94.5-2.49.3-.2.51-.51.58-.87.07-.36,0-.72-.2-1.02-.2-.3-.51-.51-.87-.58-.35-.07-.72,0-1.02.2-.82.55-1.94.33-2.49-.5-.55-.82-.33-1.94.5-2.49,1.1-.73,2.42-.99,3.72-.73,1.3.26,2.41,1.01,3.15,2.11.73,1.1.99,2.42.73,3.72-.26,1.3-1.01,2.42-2.11,3.15-.31.2-.65.3-.99.3Z"/>
    <path class="cls-1" d="m300.29,243.55c-.63,0-1.25-.34-1.58-.93-.48-.87-.16-1.96.71-2.44,1.67-.92,2.89-2.43,3.42-4.26.54-1.83.33-3.76-.59-5.43-.92-1.67-2.43-2.89-4.26-3.42-1.83-.54-3.76-.33-5.43.59-.87.48-1.96.16-2.44-.71-.48-.87-.16-1.96.71-2.44,2.51-1.38,5.41-1.69,8.17-.89,2.75.8,5.02,2.63,6.4,5.15,1.38,2.51,1.69,5.41.89,8.16-.8,2.75-2.63,5.02-5.15,6.4-.27.15-.57.22-.86.22Z"/>
    <path class="cls-1" d="m413.15,311.62c-.22,0-.45-.04-.67-.13-3.39-1.38-6.04-3.99-7.47-7.36-1.42-3.37-1.45-7.09-.08-10.48,2.84-7,10.84-10.38,17.84-7.54.92.37,1.36,1.42.99,2.34-.37.92-1.42,1.36-2.34.99-5.16-2.09-11.07.4-13.17,5.57-2.1,5.16.4,11.07,5.57,13.17.92.37,1.36,1.42.99,2.34-.28.7-.96,1.12-1.66,1.12Z"/>
    <path class="cls-1" d="m400.77,259.56c-.27,0-.54-.06-.79-.18-.89-.44-1.25-1.51-.82-2.4,1.1-2.23.18-4.94-2.05-6.04-2.23-1.1-4.94-.18-6.04,2.05-.44.89-1.51,1.25-2.4.82-.89-.44-1.25-1.51-.82-2.4,1.98-4.01,6.84-5.66,10.85-3.68,4.01,1.98,5.66,6.84,3.68,10.85-.31.63-.95,1-1.61,1Z"/>
    <path class="cls-1" d="m64.84,162.37c-2,0-3.98-.49-5.79-1.46-.87-.47-1.2-1.55-.74-2.43.47-.87,1.55-1.2,2.43-.74,4.25,2.27,9.55.66,11.82-3.59,2.27-4.25.66-9.55-3.59-11.82-.87-.47-1.2-1.55-.74-2.43.47-.88,1.56-1.2,2.43-.74,5.99,3.2,8.26,10.69,5.06,16.68-1.55,2.9-4.14,5.03-7.29,5.99-1.18.36-2.39.54-3.59.54Z"/>
    <path class="cls-1" d="m204.72,351.87c-.87,0-1.64-.64-1.77-1.53-1.09-7.21,3.89-13.95,11.1-15.04,3.49-.53,6.98.34,9.82,2.43,2.84,2.1,4.7,5.17,5.22,8.66.15.98-.53,1.89-1.51,2.04-.98.15-1.89-.53-2.04-1.51-.38-2.54-1.74-4.78-3.81-6.31-2.07-1.53-4.61-2.15-7.15-1.77-5.25.79-8.88,5.71-8.08,10.96.15.98-.53,1.89-1.51,2.04-.09.01-.18.02-.27.02Z"/>
    <path class="cls-1" d="m197.15,76.9c-.84,0-1.7-.17-2.52-.53-3.16-1.4-4.59-5.1-3.2-8.26.4-.91,1.46-1.32,2.37-.92.91.4,1.32,1.46.92,2.37-.29.65-.3,1.38-.05,2.05.26.67.76,1.19,1.41,1.48,1.35.59,2.93-.02,3.53-1.37.4-.91,1.46-1.32,2.37-.92.91.4,1.32,1.46.92,2.37-1.03,2.34-3.33,3.73-5.74,3.73Z"/>
    <path class="cls-1" d="m234.37,190.8c-3.23,0-6.27-1.24-8.58-3.51-2.33-2.29-3.63-5.35-3.65-8.62-.06-6.75,5.39-12.28,12.13-12.34h.01c.99,0,1.79.79,1.79,1.78,0,.99-.79,1.8-1.78,1.81-4.77.04-8.61,3.95-8.57,8.72.02,2.31.94,4.47,2.58,6.09,1.65,1.62,3.85,2.47,6.13,2.48h.01c.99,0,1.79.79,1.79,1.78,0,.99-.79,1.8-1.78,1.81h-.1Z"/>
    <path class="cls-1" d="m444.78,349.9c-.18,0-.37-.03-.56-.09-.94-.31-1.45-1.32-1.15-2.27.94-2.87.71-5.93-.65-8.62-1.36-2.69-3.69-4.69-6.56-5.63-5.91-1.94-12.31,1.29-14.26,7.21-.31.94-1.32,1.45-2.27,1.15-.94-.31-1.45-1.32-1.15-2.27,1.24-3.78,3.88-6.85,7.43-8.64,3.55-1.79,7.58-2.1,11.36-.86,3.78,1.24,6.85,3.88,8.64,7.43,1.79,3.55,2.1,7.58.86,11.36-.25.76-.95,1.24-1.71,1.24Z"/>
    <path class="cls-1" d="m11.08,169.29c-.92,0-1.7-.69-1.79-1.62-.09-.99.63-1.86,1.62-1.96,1.27-.12,2.42-.73,3.24-1.72.81-.99,1.19-2.23,1.07-3.5-.12-1.27-.73-2.42-1.72-3.24-.99-.81-2.23-1.19-3.5-1.07-1,.08-1.86-.63-1.96-1.62-.09-.99.63-1.86,1.62-1.96,2.23-.21,4.4.46,6.13,1.88,1.72,1.43,2.79,3.44,3.01,5.66.21,2.23-.45,4.4-1.88,6.13-1.42,1.72-3.44,2.79-5.66,3.01-.06,0-.12,0-.17,0Z"/>
    <path class="cls-1" d="m314.76,123.83c-.26,0-.53-.02-.8-.06-1.34-.21-2.52-.93-3.31-2.02-.8-1.09-1.12-2.43-.91-3.77s.93-2.52,2.02-3.31c.8-.58,1.92-.41,2.51.39s.41,1.92-.39,2.51c-.32.23-.53.58-.59.97-.06.39.03.78.27,1.1.48.66,1.41.81,2.07.33.8-.58,1.92-.41,2.51.39.58.8.41,1.92-.39,2.51-.88.64-1.91.97-2.98.97Z"/>
    <path class="cls-1" d="m188.22,175.5c-1.33,0-2.67-.21-3.99-.66-3.18-1.07-5.75-3.31-7.24-6.32-1.49-3-1.72-6.41-.65-9.59.32-.94,1.33-1.45,2.27-1.13.94.32,1.45,1.33,1.13,2.27-.76,2.27-.6,4.7.47,6.85,1.07,2.15,2.9,3.75,5.17,4.51,2.27.76,4.7.6,6.85-.47,2.15-1.07,3.75-2.9,4.51-5.17.32-.94,1.33-1.45,2.27-1.13.94.32,1.45,1.33,1.13,2.27-1.76,5.24-6.67,8.56-11.91,8.56Z"/>
    <path class="cls-1" d="m284.11,303.52c-.65,0-1.3-.06-1.95-.19-2.64-.52-4.92-2.03-6.42-4.26-.55-.82-.34-1.94.49-2.49.82-.55,1.94-.33,2.49.49.97,1.43,2.43,2.41,4.13,2.74,1.7.33,3.42-.02,4.86-.98,2.96-1.99,3.75-6.03,1.76-8.99-.55-.82-.34-1.94.49-2.49.82-.55,1.94-.34,2.49.49,3.1,4.6,1.87,10.87-2.73,13.97-1.68,1.13-3.62,1.72-5.6,1.72Z"/>
    <path class="cls-1" d="m18.74,40.37c-2.92,0-5.73-.99-8.02-2.86-2.64-2.15-4.29-5.2-4.64-8.59-.72-6.99,4.38-13.27,11.38-13.99.99-.1,1.87.62,1.97,1.6.1.99-.62,1.87-1.6,1.97-5.03.52-8.69,5.03-8.18,10.06.25,2.43,1.44,4.63,3.33,6.17,1.9,1.54,4.29,2.25,6.72,2.01.99-.1,1.87.62,1.97,1.6.1.99-.62,1.87-1.6,1.97-.45.05-.89.07-1.33.07Z"/>
    <path class="cls-1" d="m94.4,413.02c-.29,0-.59-.02-.89-.07-.98-.15-1.65-1.06-1.51-2.04.15-.98,1.07-1.65,2.04-1.51,1.26.19,2.44-.68,2.63-1.94.09-.61-.06-1.22-.43-1.72-.37-.5-.9-.82-1.52-.92-.98-.15-1.65-1.06-1.51-2.04.15-.98,1.06-1.66,2.04-1.51,1.56.24,2.93,1.06,3.87,2.33.94,1.27,1.32,2.83,1.08,4.39-.44,2.92-2.97,5.02-5.83,5.02Z"/>
    <path class="cls-1" d="m425.24,436.81c-6.14,0-11.9-3.82-14.07-9.93-.33-.93.16-1.96,1.09-2.29.93-.33,1.96.16,2.29,1.09,2.09,5.88,8.57,8.97,14.45,6.89,5.88-2.09,8.97-8.57,6.88-14.45-.33-.93.16-1.96,1.09-2.29.94-.33,1.96.16,2.29,1.09,2.75,7.75-1.32,16.29-9.07,19.03-1.64.58-3.32.86-4.97.86Z"/>
    <path class="cls-1" d="m320.21,167.18c-.43,0-.85-.15-1.19-.46-1.82-1.62-2.9-3.86-3.03-6.3-.14-2.44.68-4.78,2.31-6.6,1.62-1.82,3.86-2.9,6.3-3.03,2.42-.14,4.78.68,6.6,2.31.74.66.8,1.79.14,2.53-.66.74-1.79.8-2.53.14-1.1-.99-2.53-1.49-4-1.4-1.48.08-2.84.74-3.82,1.84-.99,1.1-1.48,2.52-1.4,4,.08,1.48.74,2.83,1.84,3.82.74.66.8,1.79.14,2.53-.35.4-.85.6-1.34.6Z"/>
    <path class="cls-1" d="m494.77,260.16c-.25,0-.5-.05-.74-.16-1.09-.49-1.92-1.38-2.34-2.5-.42-1.12-.38-2.34.12-3.42.49-1.09,1.38-1.92,2.5-2.34,1.12-.42,2.33-.38,3.42.12.9.41,1.3,1.47.89,2.38-.41.9-1.48,1.3-2.38.89-.45-.2-.97,0-1.17.44-.2.45,0,.97.44,1.17.9.41,1.3,1.47.89,2.38-.3.66-.95,1.05-1.63,1.05Z"/>
    <path class="cls-1" d="m73.91,81.12c-.84,0-1.59-.59-1.76-1.44-.83-4.18.01-8.44,2.38-11.98,2.37-3.55,5.97-5.96,10.15-6.79,8.63-1.72,17.05,3.9,18.77,12.53.19.97-.44,1.92-1.41,2.11-.98.19-1.92-.44-2.11-1.41-1.33-6.69-7.86-11.04-14.55-9.71-3.24.65-6.04,2.52-7.87,5.26-1.83,2.75-2.49,6.05-1.84,9.29.19.97-.44,1.92-1.41,2.11-.12.02-.24.03-.35.03Z"/>
    <path class="cls-1" d="m250.28,440.69c-.66,0-1.3-.37-1.61-1-1.02-2.06-.17-4.57,1.89-5.59,1-.49,2.13-.57,3.18-.21,1.06.36,1.91,1.1,2.4,2.1.44.89.08,1.96-.81,2.4-.89.44-1.97.08-2.4-.81-.09-.19-.25-.26-.33-.29-.08-.03-.25-.06-.44.03-.29.14-.4.49-.26.78.44.89.08,1.97-.81,2.4-.26.13-.53.19-.79.19Z"/>
    <path class="cls-1" d="m214.98,139.22c-.3,0-.61-.08-.89-.24-.86-.5-1.15-1.59-.66-2.45.14-.25.11-.49.08-.61-.03-.12-.12-.34-.37-.49-.25-.14-.49-.11-.61-.08-.12.03-.34.12-.49.37-.49.86-1.59,1.15-2.45.66-.86-.49-1.16-1.59-.66-2.45.58-1.02,1.53-1.75,2.66-2.05,1.13-.3,2.32-.15,3.33.43,1.02.58,1.74,1.53,2.05,2.66.3,1.13.15,2.32-.43,3.33-.33.58-.94.9-1.56.9Z"/>
    <path class="cls-1" d="m367.13,292.18c-.86,0-1.61-.61-1.77-1.48-.17-.98.48-1.91,1.46-2.08,1.14-.2,2.14-.84,2.8-1.79.67-.95.92-2.1.72-3.24-.2-1.14-.84-2.14-1.78-2.8-.95-.67-2.1-.92-3.24-.72-.97.17-1.91-.48-2.08-1.46-.17-.98.48-1.91,1.46-2.08,2.08-.37,4.19.1,5.93,1.31,1.74,1.21,2.89,3.03,3.26,5.12.37,2.09-.1,4.19-1.31,5.93-1.21,1.74-3.03,2.89-5.12,3.26-.11.02-.21.03-.31.03Z"/>
    <path class="cls-1" d="m478.01,52.74c-.45,0-.91-.02-1.37-.06-8.01-.75-13.91-7.88-13.16-15.88.09-.99.97-1.72,1.95-1.62.99.09,1.71.97,1.62,1.95-.57,6.04,3.88,11.41,9.92,11.97,6.04.56,11.41-3.88,11.97-9.92.09-.99.97-1.72,1.95-1.62.99.09,1.71.97,1.62,1.95-.71,7.55-7.08,13.22-14.51,13.22Z"/>
    <path class="cls-1" d="m283.47,32.2c-.27,0-.55-.01-.83-.03-.99-.08-1.72-.95-1.64-1.94s.93-1.74,1.94-1.64c3.49.28,6.56-2.32,6.85-5.81.29-3.49-2.32-6.56-5.81-6.85-.99-.08-1.72-.95-1.64-1.94.08-.99.94-1.74,1.94-1.64,5.46.45,9.54,5.26,9.09,10.73-.43,5.18-4.79,9.12-9.9,9.12Z"/>
    <path class="cls-1" d="m315.91,417.79c-.08,0-.16,0-.24,0-3.23-.06-6.24-1.38-8.48-3.71-.69-.72-.67-1.85.05-2.54.72-.69,1.85-.67,2.54.05,1.57,1.64,3.69,2.56,5.96,2.61,2.32.03,4.42-.8,6.06-2.37,1.64-1.57,2.56-3.69,2.61-5.96.04-2.27-.8-4.42-2.37-6.06-.69-.72-.67-1.85.05-2.54.72-.69,1.85-.67,2.54.05,2.24,2.33,3.44,5.39,3.37,8.62-.06,3.23-1.38,6.24-3.71,8.48-2.27,2.18-5.24,3.38-8.37,3.38Z"/>
    <path class="cls-1" d="m254.26,226.23c-3.98,0-7.71-2.5-9.07-6.47-.32-.94.17-1.96,1.11-2.28.94-.33,1.96.17,2.28,1.11,1.08,3.13,4.5,4.79,7.63,3.72,3.13-1.08,4.79-4.5,3.72-7.63-.32-.94.17-1.96,1.11-2.28.94-.32,1.96.18,2.28,1.11,1.72,5-.94,10.47-5.94,12.19-1.03.36-2.08.52-3.12.52Z"/>
    <path class="cls-1" d="m366.33,325.75c-1.18,0-2.3-.42-3.19-1.21-.97-.86-1.55-2.04-1.64-3.33-.06-.99.69-1.84,1.68-1.91,1.02-.05,1.84.69,1.91,1.68.02.34.17.64.43.86.25.22.57.33.91.31.69-.04,1.22-.64,1.18-1.34-.06-.99.69-1.84,1.68-1.91,1.01-.06,1.84.69,1.91,1.68.17,2.67-1.86,4.98-4.53,5.15-.11,0-.21.01-.32.01Z"/>
    <path class="cls-1" d="m91.21,358.53c-2.12,0-4.24-.46-6.23-1.37-3.64-1.67-6.42-4.65-7.82-8.41-.35-.93.13-1.96,1.06-2.31.93-.35,1.96.13,2.31,1.06,1.06,2.86,3.18,5.13,5.95,6.4,2.77,1.27,5.88,1.38,8.73.32,2.86-1.06,5.13-3.18,6.4-5.95,1.27-2.77,1.38-5.87.31-8.73-.35-.93.13-1.96,1.06-2.31.93-.35,1.96.13,2.31,1.06,1.4,3.76,1.25,7.83-.41,11.48-1.67,3.65-4.65,6.42-8.41,7.82-1.71.64-3.48.95-5.25.95Z"/>
    <path class="cls-1" d="m205.74,496.5c-.63,0-1.27-.06-1.9-.19-2.44-.5-4.54-1.92-5.92-4.01-1.37-2.08-1.85-4.57-1.35-7.02.5-2.44,1.92-4.54,4.01-5.92.83-.55,1.94-.32,2.49.51.55.83.32,1.94-.51,2.49-1.28.84-2.16,2.14-2.47,3.64-.31,1.5-.01,3.04.83,4.32s2.14,2.16,3.64,2.47c1.51.31,3.04.01,4.32-.83.83-.54,1.94-.32,2.49.51.55.83.32,1.94-.51,2.49-1.54,1.02-3.31,1.54-5.12,1.54Z"/>
    <path class="cls-1" d="m86.01,247.25c-1.13,0-2.26-.16-3.37-.47-3.15-.9-5.77-2.97-7.37-5.83-.48-.87-.17-1.96.69-2.44.86-.48,1.96-.17,2.44.69,1.13,2.03,2.98,3.49,5.21,4.12,2.23.63,4.57.36,6.6-.77,4.18-2.33,5.69-7.63,3.35-11.81-.48-.87-.17-1.96.69-2.44.86-.48,1.96-.17,2.44.69,3.3,5.91,1.17,13.4-4.74,16.7-1.85,1.03-3.89,1.56-5.96,1.56Z"/>
    <path class="cls-1" d="m414.35,388.17h-.03c-4.83-.07-8.7-4.05-8.64-8.88.07-4.83,4.05-8.68,8.88-8.64.99.01,1.78.83,1.77,1.82-.01.98-.82,1.77-1.79,1.77-.03,0-.07,0-.1,0-2.82,0-5.13,2.27-5.17,5.1-.04,2.85,2.25,5.2,5.1,5.24.99.01,1.78.83,1.77,1.82-.01.98-.82,1.77-1.79,1.77Z"/>
    <path class="cls-1" d="m427.93,249.34c-.86,0-1.63-.63-1.77-1.51-.16-.98.5-1.9,1.48-2.06,1.39-.23,2.6-.98,3.43-2.12.82-1.14,1.15-2.53.92-3.92-.47-2.86-3.18-4.81-6.04-4.35-.98.16-1.9-.5-2.06-1.48-.16-.98.5-1.9,1.48-2.06,4.82-.78,9.38,2.5,10.16,7.32.38,2.33-.17,4.68-1.55,6.6-1.38,1.92-3.43,3.19-5.76,3.57-.1.02-.19.02-.29.02Z"/>
    <path class="cls-1" d="m411.95,499.78c-.62,0-1.22-.32-1.56-.9-.5-.86-.2-1.96.66-2.45.92-.53,1.24-1.71.7-2.63-.53-.92-1.71-1.24-2.63-.7-.86.5-1.95.2-2.45-.66-.5-.86-.2-1.96.66-2.45,2.63-1.52,6.01-.62,7.54,2.01.74,1.28.93,2.76.55,4.19-.38,1.42-1.29,2.61-2.57,3.35-.28.16-.59.24-.9.24Z"/>
    <path class="cls-1" d="m416.7,172.57c-.98,0-1.79-.79-1.79-1.78,0-.99.79-1.8,1.78-1.81,3.43-.03,6.63-1.4,9.03-3.84,2.4-2.44,3.7-5.68,3.67-9.1-.03-3.43-1.4-6.63-3.84-9.03-2.44-2.4-5.62-3.75-9.1-3.67h-.02c-.98,0-1.79-.79-1.79-1.78,0-.99.79-1.8,1.78-1.81,4.34-.03,8.52,1.63,11.65,4.7,3.13,3.07,4.88,7.18,4.92,11.56.04,4.38-1.63,8.52-4.7,11.65-3.07,3.13-7.18,4.88-11.56,4.92h-.02Z"/>
    <path class="cls-1" d="m332.1,457.45c-1.68,0-3.31-.56-4.65-1.62-1.58-1.25-2.57-3.03-2.81-5.03-.48-4.12,2.48-7.87,6.6-8.35.98-.12,1.88.59,1.99,1.57.12.99-.59,1.88-1.57,1.99-2.16.25-3.7,2.21-3.45,4.37.12,1.04.64,1.98,1.47,2.63.82.65,1.85.95,2.9.82.97-.12,1.88.59,1.99,1.57.12.98-.59,1.88-1.57,1.99-.3.03-.59.05-.89.05Z"/>
    <path class="cls-1" d="m399.24,123.63c-.55,0-1.09-.25-1.44-.72-1.3-1.75-1.85-3.9-1.54-6.06.31-2.16,1.45-4.07,3.2-5.37,1.75-1.31,3.9-1.85,6.06-1.54,2.16.31,4.07,1.45,5.37,3.2.59.79.43,1.92-.36,2.51-.79.6-1.92.43-2.51-.36-.73-.98-1.8-1.62-3.01-1.79-1.21-.17-2.42.13-3.39.86-.98.73-1.62,1.8-1.79,3.01-.18,1.21.13,2.42.86,3.39.59.79.43,1.92-.36,2.51-.32.24-.7.36-1.07.36Z"/>
    <path class="cls-1" d="m361.05,91.71c-4.79,0-9.42-2.57-11.83-7.09-.47-.88-.13-1.96.74-2.43.88-.47,1.96-.13,2.43.74,2.53,4.76,8.47,6.57,13.23,4.04,2.31-1.23,4-3.28,4.76-5.78.76-2.5.51-5.15-.72-7.45-.47-.88-.13-1.96.74-2.43.88-.47,1.96-.13,2.43.74,1.68,3.15,2.03,6.77.99,10.19-1.04,3.42-3.35,6.22-6.51,7.9-2,1.06-4.14,1.57-6.26,1.57Z"/>
    <path class="cls-1" d="m56.89,201.25c-.12,0-.25,0-.37,0-2.83-.1-5.44-1.29-7.38-3.36-1.93-2.07-2.94-4.76-2.84-7.59.1-2.83,1.29-5.45,3.36-7.38.73-.68,1.86-.64,2.54.09.68.72.64,1.86-.09,2.54-1.37,1.28-2.15,3.01-2.22,4.87-.06,1.87.6,3.65,1.88,5.02s3.01,2.15,4.88,2.22c1.85.07,3.65-.6,5.01-1.88.73-.67,1.86-.64,2.54.09.68.72.64,1.86-.09,2.54-1.98,1.84-4.53,2.85-7.22,2.85Z"/>
    <path class="cls-1" d="m136.85,474.19c-.35,0-.71-.1-1.02-.32-3.14-2.17-3.94-6.49-1.77-9.63,1.05-1.52,2.63-2.55,4.45-2.88,1.82-.34,3.66.06,5.18,1.11.82.56,1.02,1.68.46,2.5-.56.82-1.68,1.02-2.5.46-1.52-1.04-3.59-.66-4.64.85-1.04,1.51-.66,3.59.85,4.64.82.56,1.02,1.68.46,2.5-.35.5-.91.78-1.48.78Z"/>
    <path class="cls-1" d="m82.27,322.75c-.35,0-.7-.03-1.05-.08-3.89-.57-6.58-4.2-6.01-8.09.14-.98,1.06-1.65,2.04-1.51.98.14,1.66,1.06,1.51,2.04-.28,1.93,1.05,3.73,2.98,4.01.94.14,1.87-.1,2.62-.66.76-.56,1.25-1.39,1.39-2.32.15-.98,1.06-1.65,2.04-1.51.98.14,1.66,1.06,1.51,2.04-.28,1.88-1.27,3.54-2.8,4.68-1.24.92-2.71,1.41-4.23,1.41Z"/>
    <path class="cls-1" d="m488.05,465.74c-.87,0-1.64-.64-1.77-1.52-.25-1.61.15-3.21,1.11-4.53.96-1.31,2.38-2.17,3.99-2.42,1.61-.25,3.21.15,4.53,1.11,1.31.96,2.17,2.38,2.42,3.99.15.98-.52,1.9-1.5,2.05-.97.15-1.9-.52-2.05-1.5-.1-.66-.45-1.24-.99-1.64-.54-.4-1.2-.56-1.86-.46-.66.1-1.24.45-1.64.99-.39.54-.56,1.2-.46,1.86.15.98-.52,1.9-1.5,2.05-.09.01-.18.02-.27.02Z"/>
    <path class="cls-1" d="m227.83,112.97c-.74,0-1.43-.46-1.69-1.19-.33-.93.15-1.96,1.08-2.29,2.92-1.05,5.26-3.17,6.59-5.97,1.33-2.81,1.48-5.96.43-8.88-1.05-2.92-3.17-5.26-5.97-6.59-2.8-1.33-5.96-1.48-8.88-.43-.93.34-1.96-.15-2.29-1.08-.33-.93.15-1.96,1.08-2.29,3.82-1.37,7.95-1.17,11.62.57,3.67,1.74,6.45,4.8,7.82,8.62,1.37,3.82,1.17,7.95-.57,11.62-1.74,3.67-4.8,6.45-8.62,7.82-.2.07-.4.11-.6.11Z"/>
    <path class="cls-1" d="m285.36,453.43c-1.44,0-2.9-.34-4.26-1.06-.88-.46-1.21-1.55-.75-2.43s1.55-1.21,2.43-.75c1.31.69,2.82.83,4.24.4,1.42-.44,2.58-1.4,3.28-2.72,1.43-2.71.39-6.09-2.32-7.52-.88-.46-1.21-1.55-.75-2.42.46-.88,1.55-1.21,2.43-.75,4.46,2.36,6.18,7.91,3.82,12.37-1.64,3.11-4.82,4.88-8.11,4.88Z"/>
    <path class="cls-1" d="m489.26,355.57c-.48,0-.96-.19-1.31-.57-.68-.72-.64-1.86.09-2.54,2.39-2.24,3.77-5.27,3.88-8.55.11-3.27-1.06-6.4-3.3-8.79-2.24-2.39-5.27-3.77-8.55-3.88-3.25-.09-6.4,1.06-8.79,3.3-.72.67-1.86.64-2.54-.09-.68-.72-.64-1.86.08-2.54,3.09-2.89,7.12-4.42,11.36-4.27,4.23.14,8.16,1.92,11.05,5.02,2.89,3.09,4.41,7.13,4.27,11.36-.14,4.23-1.92,8.16-5.02,11.05-.35.32-.79.48-1.23.48Z"/>
    <path class="cls-1" d="m17.5,493.82c-5.07,0-9.9-2.96-12.04-7.89-.39-.91.02-1.97.93-2.36.91-.39,1.97.02,2.36.93,2.08,4.81,7.69,7.03,12.5,4.95,2.33-1.01,4.13-2.87,5.06-5.23.94-2.36.89-4.95-.11-7.28-.39-.91.02-1.97.93-2.36.91-.39,1.97.02,2.36.93,2.87,6.63-.19,14.36-6.82,17.23-1.69.73-3.45,1.08-5.19,1.08Z"/>
    <path class="cls-1" d="m145.16,88.48c-4.26,0-8.44-2.09-10.92-5.93-3.88-6.01-2.14-14.06,3.87-17.93.83-.54,1.94-.3,2.48.53.54.83.3,1.94-.53,2.48-4.35,2.81-5.6,8.62-2.8,12.97,2.81,4.35,8.62,5.6,12.97,2.8.83-.54,1.94-.3,2.48.54.54.83.3,1.94-.54,2.48-2.17,1.4-4.6,2.07-7.01,2.07Z"/>
    <path class="cls-1" d="m350.34,376.59c-3.02,0-5.99-.84-8.62-2.48-3.71-2.31-6.3-5.93-7.28-10.19-.99-4.26-.26-8.64,2.05-12.35.52-.84,1.63-1.1,2.47-.57.84.52,1.1,1.63.57,2.47-1.8,2.9-2.37,6.32-1.6,9.64.77,3.32,2.79,6.15,5.69,7.95,2.89,1.8,6.32,2.37,9.64,1.6,3.32-.77,6.15-2.79,7.95-5.69.52-.84,1.63-1.1,2.47-.57.84.52,1.1,1.63.57,2.47-2.31,3.71-5.93,6.3-10.19,7.28-1.24.29-2.49.43-3.73.43Z"/>
    <path class="cls-1" d="m170.61,321.49c-.74,0-1.44-.47-1.7-1.21-2.66-7.67,1.42-16.07,9.09-18.73,3.71-1.29,7.71-1.05,11.25.67,3.54,1.72,6.2,4.71,7.48,8.43.32.94-.17,1.96-1.11,2.28-.94.32-1.96-.17-2.28-1.11-.97-2.81-2.98-5.07-5.66-6.37-2.67-1.3-5.69-1.48-8.51-.5-5.8,2.01-8.88,8.36-6.88,14.17.32.94-.17,1.96-1.11,2.28-.19.07-.39.1-.59.1Z"/>
    <path class="cls-1" d="m359.55,242.24c-.58,0-1.16-.09-1.72-.28-.94-.31-1.46-1.32-1.15-2.26.31-.94,1.33-1.45,2.26-1.15.49.16,1.02.12,1.48-.11.46-.23.8-.63.96-1.13.16-.49.12-1.02-.11-1.48-.23-.46-.63-.8-1.13-.96-.94-.31-1.46-1.32-1.15-2.26.31-.94,1.32-1.45,2.26-1.15,1.4.46,2.55,1.44,3.21,2.75.67,1.32.78,2.82.32,4.22-.46,1.4-1.44,2.54-2.75,3.21-.79.4-1.64.6-2.49.6Z"/>
    <path class="cls-1" d="m163.93,127.99c-.12,0-.25,0-.37-.01-1.75-.1-3.36-.87-4.53-2.18-2.42-2.7-2.19-6.86.51-9.27.74-.66,1.87-.6,2.53.14.66.74.6,1.87-.14,2.53-1.22,1.1-1.33,2.98-.23,4.21.53.59,1.26.94,2.05.99.81.05,1.56-.23,2.15-.75.74-.66,1.87-.6,2.53.14.66.74.6,1.87-.14,2.53-1.21,1.09-2.76,1.68-4.37,1.68Z"/>
    <path class="cls-1" d="m241.94,473.97c-.49,0-.99-.02-1.49-.07-8.55-.82-14.85-8.44-14.03-16.99.09-.99.95-1.7,1.96-1.62.99.09,1.71.97,1.62,1.96-.31,3.19.65,6.3,2.69,8.77,2.04,2.47,4.92,4,8.11,4.3,3.18.31,6.3-.65,8.77-2.69,2.47-2.04,4-4.92,4.3-8.11.09-.99.96-1.71,1.96-1.62.99.09,1.71.97,1.62,1.96-.77,8.05-7.57,14.1-15.5,14.1Z"/>
    <path class="cls-1" d="m168.1,61.61c-1.06,0-2.06-.39-2.85-1.11-.84-.76-1.33-1.81-1.39-2.94-.05-.99.72-1.83,1.71-1.88.97-.04,1.83.72,1.88,1.71.01.24.14.39.21.46.08.07.25.19.48.17.24-.01.39-.14.46-.21.07-.08.18-.24.17-.48-.05-.99.72-1.83,1.71-1.88.97-.05,1.83.72,1.88,1.71.05,1.13-.34,2.22-1.1,3.06-.76.84-1.81,1.33-2.94,1.39-.07,0-.14,0-.21,0Z"/>
    <path class="cls-1" d="m65.37,494.56c-1.33,0-2.66-.5-3.67-1.51-.7-.7-.7-1.84,0-2.54.7-.7,1.84-.7,2.54,0,.63.63,1.65.62,2.27,0,.3-.3.47-.71.47-1.14,0-.43-.17-.83-.47-1.14-.7-.7-.7-1.84,0-2.54.7-.7,1.84-.7,2.54,0,.98.98,1.53,2.28,1.53,3.67,0,1.39-.54,2.69-1.52,3.68-1.01,1.02-2.35,1.52-3.68,1.52Z"/>
    <path class="cls-1" d="m160.92,396.15c-.54,0-1.07-.24-1.42-.7-.6-.79-.46-1.91.33-2.52,1.37-1.05,1.62-3.02.57-4.38-1.05-1.37-3.02-1.62-4.38-.57-.79.6-1.91.46-2.52-.33-.6-.79-.46-1.91.33-2.52,2.93-2.26,7.16-1.71,9.42,1.22,2.26,2.94,1.71,7.16-1.23,9.42-.33.25-.71.37-1.09.37Z"/>
    <path class="cls-1" d="m380.73,498.4c-.07,0-.14,0-.21-.01-.99-.11-1.69-1-1.58-1.99.22-1.9-.31-3.77-1.5-5.27-1.19-1.5-2.89-2.44-4.79-2.66-1.9-.21-3.77.31-5.27,1.5-1.5,1.19-2.44,2.89-2.66,4.79-.11.99-1.01,1.71-1.99,1.58-.99-.11-1.69-1-1.58-1.99.33-2.85,1.75-5.4,4-7.19,2.25-1.78,5.06-2.59,7.91-2.25,2.85.33,5.4,1.75,7.19,4,1.78,2.25,2.58,5.06,2.25,7.91-.11.92-.88,1.59-1.78,1.59Z"/>
    <path class="cls-1" d="m10.42,446.33c-.87,0-1.64-.64-1.77-1.53-.56-3.71.37-7.42,2.6-10.44,2.23-3.02,5.51-4.99,9.22-5.54,3.71-.56,7.42.37,10.44,2.6,3.02,2.23,4.99,5.51,5.54,9.22.15.98-.53,1.89-1.51,2.04-.98.15-1.89-.53-2.04-1.51-.41-2.76-1.88-5.2-4.13-6.86-2.25-1.66-5.01-2.35-7.77-1.94-2.76.41-5.2,1.88-6.86,4.13-1.66,2.25-2.35,5.01-1.94,7.77.15.98-.53,1.89-1.51,2.04-.09.01-.18.02-.27.02Z"/>
    <path class="cls-1" d="m25.94,360.28c-.62,0-1.24-.03-1.87-.11-4.29-.49-8.13-2.62-10.82-6-.62-.78-.49-1.91.29-2.52.77-.62,1.9-.49,2.52.29,2.09,2.63,5.08,4.29,8.42,4.67,3.34.38,6.62-.56,9.25-2.65,2.63-2.09,4.29-5.08,4.67-8.42.38-3.34-.56-6.62-2.65-9.25-.62-.78-.49-1.91.29-2.52.77-.62,1.9-.49,2.52.29,2.69,3.38,3.9,7.6,3.41,11.9-.49,4.29-2.62,8.13-6,10.82-2.89,2.3-6.39,3.51-10.03,3.51Z"/>
    <path class="cls-1" d="m252.08,21.77c-.77,0-1.48-.5-1.72-1.28-.29-.95.25-1.95,1.2-2.23,1.08-.33,1.7-1.47,1.37-2.55-.16-.52-.51-.96-.99-1.21-.48-.26-1.04-.31-1.56-.16-.95.29-1.95-.25-2.23-1.2-.29-.95.25-1.95,1.2-2.23,1.44-.43,2.97-.28,4.29.43,1.33.71,2.3,1.9,2.73,3.34.89,2.98-.8,6.13-3.78,7.02-.17.05-.35.08-.52.08Z"/>
    <path class="cls-1" d="m43.75,70.92c-.34,0-.69-.1-1-.3-4.23-2.84-5.35-8.58-2.52-12.81,1.37-2.05,3.46-3.44,5.88-3.91,2.42-.47,4.88.02,6.93,1.39.82.55,1.04,1.67.49,2.49-.55.82-1.67,1.04-2.49.49-2.58-1.73-6.09-1.04-7.83,1.54-1.73,2.58-1.04,6.09,1.54,7.83.82.55,1.04,1.67.49,2.49-.35.52-.91.79-1.49.79Z"/>
    <path class="cls-1" d="m283.18,500.17c-.94,0-1.73-.73-1.79-1.68-.24-3.68.97-7.24,3.4-10.01,2.43-2.77,5.8-4.43,9.48-4.67,3.68-.24,7.24.97,10.01,3.4,2.77,2.43,4.43,5.8,4.67,9.48.06.99-.69,1.84-1.67,1.91-1.02.06-1.84-.69-1.91-1.67-.37-5.63-5.25-9.91-10.87-9.54-2.73.18-5.22,1.41-7.02,3.46-1.8,2.05-2.69,4.68-2.52,7.41.06.99-.69,1.84-1.67,1.91-.04,0-.08,0-.12,0Z"/>
    <path class="cls-1" d="m47.11,21.11c-.38,0-.77-.12-1.09-.37-.79-.6-.93-1.73-.33-2.52.83-1.07.62-2.62-.45-3.45-1.08-.83-2.62-.62-3.45.45-.6.79-1.73.93-2.52.33-.79-.6-.93-1.73-.33-2.52,2.03-2.64,5.84-3.14,8.48-1.11,2.64,2.03,3.14,5.84,1.11,8.48-.35.46-.89.7-1.42.7Z"/>
    <path class="cls-1" d="m258.45,148.2c-.89,0-1.66-.66-1.78-1.56-.92-7.07,4.08-13.58,11.15-14.5,7.07-.92,13.58,4.08,14.5,11.15.13.98-.56,1.88-1.55,2.01-.97.13-1.88-.56-2.01-1.55-.67-5.11-5.35-8.73-10.48-8.06-5.11.67-8.73,5.37-8.06,10.48.13.98-.56,1.88-1.55,2.01-.08.01-.16.01-.23.01Z"/>
    <path class="cls-1" d="m192.74,398c-1.01,0-2.01-.24-2.93-.72-1.51-.78-2.62-2.11-3.13-3.73-.3-.95.23-1.95,1.17-2.25.95-.3,1.95.23,2.25,1.17.22.7.7,1.28,1.36,1.62.66.34,1.4.41,2.11.19.7-.22,1.28-.71,1.62-1.36.34-.65.41-1.4.18-2.11-.3-.95.23-1.95,1.17-2.25.95-.3,1.95.23,2.25,1.17,1.05,3.34-.81,6.92-4.15,7.97-.63.2-1.28.3-1.92.3Z"/>
    <path class="cls-1" d="m268.7,180.27c-.87,0-1.74-.15-2.58-.45-1.93-.69-3.47-2.09-4.35-3.94-.42-.9-.04-1.97.85-2.39.9-.42,1.97-.04,2.39.85.96,2.03,3.39,2.9,5.43,1.94.98-.47,1.73-1.29,2.09-2.31.37-1.03.31-2.13-.16-3.12-.42-.9-.04-1.97.85-2.39.9-.42,1.97-.04,2.39.85.88,1.85.98,3.93.29,5.86-.69,1.93-2.09,3.47-3.94,4.35-1.04.49-2.16.74-3.28.74Z"/>
    <path class="cls-1" d="m327.54,21.05c-1.13,0-2.22-.39-3.11-1.12-1.01-.83-1.63-2.01-1.75-3.31-.26-2.68,1.72-5.08,4.4-5.33.99-.09,1.86.63,1.96,1.62.09.99-.63,1.86-1.62,1.96-.71.07-1.24.7-1.17,1.42.07.71.71,1.25,1.42,1.17.98-.09,1.86.63,1.96,1.62.09.99-.63,1.86-1.62,1.96-.16.01-.32.02-.47.02Z"/>
    <path class="cls-1" d="m407.02,79.8c-.43,0-.85-.03-1.28-.09-.98-.13-1.67-1.03-1.54-2.01.13-.98,1.04-1.67,2.01-1.54,1.59.2,3.17-.21,4.44-1.19,1.27-.98,2.09-2.39,2.3-3.98.43-3.28-1.88-6.31-5.16-6.74-.98-.13-1.67-1.03-1.54-2.01.13-.98,1.04-1.67,2.01-1.54,2.54.34,4.8,1.64,6.36,3.68,1.56,2.04,2.23,4.55,1.89,7.1-.34,2.54-1.64,4.8-3.68,6.36-1.69,1.3-3.72,1.98-5.81,1.98Z"/>
    <path class="cls-1" d="m117.26,34.25c-1.48,0-2.97-.21-4.44-.63-8.49-2.43-13.42-11.32-10.98-19.81.27-.95,1.27-1.5,2.22-1.23.95.27,1.5,1.27,1.23,2.22-.92,3.19-.53,6.55,1.08,9.45,1.61,2.9,4.25,5.01,7.45,5.92,3.2.92,6.55.53,9.45-1.08,2.9-1.61,5.01-4.25,5.92-7.44.27-.95,1.27-1.5,2.22-1.23.95.27,1.5,1.27,1.23,2.22-1.18,4.11-3.89,7.52-7.63,9.6-2.41,1.34-5.06,2.02-7.74,2.02Z"/>
    <path class="cls-1" d="m8.86,326.74c-.42,0-.84-.15-1.19-.45-3.71-3.27-4.07-8.95-.8-12.66,3.27-3.71,8.95-4.07,12.66-.8.74.66.82,1.79.16,2.53-.65.74-1.79.82-2.53.16-2.23-1.96-5.63-1.75-7.6.48-1.96,2.23-1.75,5.63.48,7.6.74.66.82,1.79.16,2.53-.35.4-.85.61-1.35.61Z"/>
    <path class="cls-1" d="m127.34,163.56c-5.02,0-9.39-3.72-10.07-8.83-.13-.98.56-1.89,1.54-2.02.97-.12,1.89.56,2.02,1.54.48,3.6,3.79,6.12,7.39,5.65,3.6-.48,6.13-3.8,5.65-7.39-.13-.98.56-1.89,1.54-2.02.99-.13,1.89.56,2.02,1.54.74,5.56-3.18,10.68-8.74,11.42-.45.06-.9.09-1.35.09Z"/>
    <path class="cls-1" d="m314.96,82.26c-.57,0-1.12-.27-1.47-.76-.57-.81-.37-1.93.44-2.5,2.3-1.61,3.84-4.03,4.32-6.79.49-2.77-.13-5.56-1.75-7.86-1.61-2.3-4.03-3.84-6.79-4.32-2.77-.49-5.56.13-7.86,1.75-.81.57-1.93.37-2.5-.44-.57-.81-.37-1.93.44-2.5,3.09-2.16,6.83-3,10.54-2.34,3.71.65,6.95,2.71,9.11,5.8,2.16,3.09,2.99,6.83,2.34,10.54-.65,3.71-2.71,6.95-5.8,9.11-.31.22-.67.33-1.03.33Z"/>
    <path class="cls-1" d="m51.58,403.99c-2.53,0-5.01-.73-7.18-2.14-.83-.54-1.07-1.65-.53-2.48.54-.83,1.65-1.07,2.48-.53,4.46,2.9,10.46,1.62,13.36-2.84,2.9-4.47,1.62-10.46-2.84-13.36-.83-.54-1.07-1.65-.53-2.48.54-.83,1.65-1.07,2.48-.53,6.13,3.98,7.88,12.2,3.9,18.32-1.93,2.97-4.89,5.01-8.35,5.74-.93.2-1.86.29-2.78.29Z"/>
    <path class="cls-1" d="m489.04,435.01c-.11,0-.23-.01-.34-.03-.97-.19-1.61-1.13-1.42-2.1.95-4.94-2.29-9.73-7.23-10.69-2.39-.46-4.82.04-6.84,1.4-2.02,1.37-3.38,3.43-3.84,5.83-.19.97-1.12,1.61-2.1,1.42-.97-.19-1.61-1.13-1.42-2.1.64-3.33,2.55-6.22,5.36-8.12,2.81-1.9,6.2-2.6,9.53-1.95,6.88,1.33,11.4,8.01,10.07,14.89-.17.86-.92,1.45-1.76,1.45Z"/>
    <path class="cls-1" d="m172.85,274.39c-.31,0-.62-.08-.91-.25-.85-.5-1.14-1.6-.64-2.46.26-.44.11-1.01-.33-1.27-.44-.26-1.01-.11-1.27.33-.5.85-1.6,1.14-2.46.64-.85-.5-1.14-1.6-.64-2.46.61-1.04,1.59-1.78,2.76-2.08,1.17-.3,2.39-.13,3.43.48,1.04.61,1.78,1.59,2.08,2.76.3,1.17.13,2.38-.48,3.43-.33.57-.93.89-1.55.89Z"/>
    <path class="cls-1" d="m96.17,190.92c-.35,0-.7-.04-1.05-.13-1.1-.28-2.02-.97-2.6-1.94-.51-.85-.23-1.95.62-2.46.85-.51,1.95-.23,2.46.62.12.2.3.27.4.29.1.02.29.05.49-.07.31-.18.41-.58.22-.89-.51-.85-.23-1.95.62-2.46.85-.51,1.95-.23,2.46.62,1.2,2.01.54,4.61-1.47,5.81-.66.4-1.41.6-2.16.6Z"/>
    <path class="cls-1" d="m187.9,104.47s-.09,0-.14,0c-2.37-.04-4.58-.99-6.23-2.69-3.4-3.51-3.32-9.13.19-12.54.71-.69,1.85-.67,2.54.04.69.71.67,1.85-.04,2.54-2.09,2.03-2.14,5.37-.11,7.46.98,1.01,2.3,1.58,3.71,1.6,1.45.03,2.74-.51,3.75-1.49.71-.69,1.85-.67,2.54.04.69.71.67,1.85-.04,2.54-1.67,1.62-3.85,2.5-6.17,2.5Z"/>
    <path class="cls-1" d="m65.49,451.93c-.54,0-1.08-.06-1.62-.18-1.89-.43-3.51-1.57-4.54-3.21-.53-.84-.28-1.95.56-2.48.84-.53,1.95-.28,2.48.56.52.83,1.34,1.41,2.3,1.63.96.22,1.94.05,2.78-.48,1.72-1.08,2.23-3.36,1.15-5.08-.53-.84-.28-1.95.56-2.48.84-.53,1.95-.28,2.48.56,1.04,1.64,1.37,3.59.94,5.48-.43,1.89-1.57,3.51-3.21,4.54-1.18.74-2.51,1.12-3.87,1.12Z"/>
    <path class="cls-1" d="m364.45,450.7c-.74,0-1.44-.47-1.7-1.21-.32-.94.17-1.96,1.11-2.28,5.43-1.88,8.32-7.82,6.44-13.25-.91-2.63-2.79-4.75-5.29-5.97-2.5-1.22-5.33-1.39-7.96-.48-.94.32-1.96-.17-2.28-1.11-.32-.94.17-1.96,1.11-2.28,3.54-1.22,7.34-.99,10.7.64,3.37,1.64,5.89,4.49,7.11,8.02,2.52,7.3-1.36,15.29-8.67,17.82-.19.07-.39.1-.59.1Z"/>
    <path class="cls-1" d="m124.88,220.16c-1.29,0-2.51-.48-3.45-1.37-2.03-1.9-2.13-5.1-.22-7.13.68-.72,1.82-.76,2.54-.08.72.68.76,1.81.08,2.54-.27.28-.41.65-.39,1.04.01.39.18.75.46,1.01.28.27.66.43,1.04.39.39-.01.75-.17,1.01-.46.68-.72,1.82-.76,2.54-.08.72.68.76,1.81.08,2.54-.92.98-2.17,1.55-3.52,1.59-.05,0-.11,0-.16,0Z"/>
    <path class="cls-1" d="m122.63,131.26c-.75,0-1.51-.1-2.26-.3-4.59-1.24-7.31-5.98-6.07-10.56.26-.96,1.25-1.53,2.2-1.27.96.26,1.52,1.24,1.27,2.2-.72,2.68.87,5.44,3.54,6.16,1.3.35,2.65.17,3.82-.5,1.16-.67,2-1.75,2.35-3.05.26-.96,1.24-1.52,2.2-1.26.96.26,1.52,1.24,1.26,2.2-.6,2.22-2.03,4.08-4.03,5.22-1.32.76-2.79,1.15-4.28,1.15Z"/>
    <path class="cls-1" d="m10.59,93.97c-.79,0-1.51-.52-1.73-1.32-.26-.96.3-1.94,1.25-2.21,1.21-.33,1.92-1.59,1.58-2.8-.33-1.21-1.59-1.92-2.8-1.58-.95.26-1.94-.3-2.21-1.25-.26-.96.3-1.94,1.25-2.21,3.12-.86,6.35.97,7.22,4.09.86,3.11-.97,6.35-4.08,7.22-.16.04-.32.07-.48.07Z"/>
    <path class="cls-1" d="m493.05,297.94c-.07,0-.14,0-.21-.01-2.58-.3-4.43-2.64-4.13-5.22.14-1.25.77-2.37,1.75-3.15.99-.78,2.22-1.13,3.46-.99.99.11,1.69,1,1.58,1.99-.11.99-1.01,1.7-1.99,1.58-.62-.06-1.17.37-1.24.98-.07.61.37,1.17.98,1.24.99.11,1.69,1,1.58,1.99-.11.92-.88,1.59-1.78,1.59Z"/>
    <path class="cls-1" d="m460.91,268.12c-1.26,0-2.5-.38-3.57-1.1-.82-.56-1.03-1.67-.48-2.49.56-.82,1.67-1.03,2.49-.48.62.42,1.36.57,2.09.43.73-.14,1.36-.56,1.78-1.17.42-.62.57-1.36.43-2.09-.14-.73-.56-1.36-1.17-1.78-.82-.56-1.03-1.67-.48-2.49.56-.82,1.67-1.03,2.49-.48,2.91,1.98,3.67,5.95,1.7,8.86-.96,1.41-2.41,2.36-4.08,2.68-.4.08-.81.12-1.21.12Z"/>
    <path class="cls-1" d="m291.28,388.49c-.37,0-.75-.02-1.12-.06-5.77-.61-9.97-5.8-9.37-11.57.1-.99.99-1.7,1.97-1.6.99.1,1.7.99,1.6,1.97-.4,3.8,2.37,7.22,6.17,7.62,1.84.19,3.65-.34,5.09-1.51,1.44-1.17,2.34-2.82,2.53-4.67.1-.99.99-1.69,1.97-1.6.99.1,1.7.99,1.6,1.97-.29,2.8-1.66,5.31-3.84,7.08-1.89,1.53-4.2,2.35-6.6,2.35Z"/>
    <path class="cls-1" d="m363.68,181.37c-.58,0-1.14-.28-1.49-.79-4.74-7.02-2.88-16.58,4.13-21.32,7.02-4.74,16.58-2.88,21.32,4.13.55.82.34,1.94-.48,2.49-.82.56-1.94.34-2.49-.48-3.63-5.38-10.96-6.8-16.34-3.17-5.38,3.63-6.8,10.96-3.17,16.34.55.82.34,1.94-.48,2.49-.31.21-.66.31-1,.31Z"/>
    <path class="cls-1" d="m337.11,496.65h-.04c-3.21-.06-5.77-2.73-5.7-5.93.03-1.55.67-3,1.79-4.08,1.12-1.08,2.59-1.62,4.15-1.62.99.02,1.78.84,1.76,1.83-.02.99-.92,1.77-1.83,1.76-1.25-.09-2.25.96-2.27,2.18-.03,1.23.96,2.25,2.18,2.27.99.02,1.78.84,1.76,1.83-.02.98-.82,1.76-1.79,1.76Z"/>
  </g>
</svg>