<?xml version="1.0" encoding="UTF-8"?>
<svg id="PATTERN" xmlns="http://www.w3.org/2000/svg" viewBox="0 0 502.48 502.1">
  <defs>
    <style>
      .cls-1 {
        fill: #fff;
      }

      .cls-2 {
        fill: #72a7ff;
      }
    </style>
  </defs>
  <rect class="cls-2" x="-7.26" y="-5.85" width="517.27" height="519.7"/>
  <g>
    <path class="cls-1" d="m224.39,443.81s-.04,0-.05,0c-1.01-.03-1.81-.87-1.78-1.89l.67-24.03c.03-1.01.83-1.84,1.89-1.78,1.01.03,1.81.87,1.78,1.89l-.67,24.03c-.03,1-.84,1.78-1.83,1.78Z"/>
    <path class="cls-1" d="m166.13,247.08c-.85,0-1.61-.59-1.79-1.45l-1.76-8.12c-.21-.99.42-1.97,1.41-2.18,1-.21,1.97.42,2.18,1.41l1.76,8.12c.21.99-.41,1.97-1.41,2.18-.13.03-.26.04-.39.04Z"/>
    <path class="cls-1" d="m101.81,466.91c-.75,0-1.46-.47-1.73-1.22l-2.79-7.82c-.34-.96.16-2.01,1.11-2.35.95-.34,2.01.16,2.35,1.11l2.79,7.82c.34.96-.16,2.01-1.11,2.35-.2.07-.41.11-.62.11Z"/>
    <path class="cls-1" d="m318.85,348.81c-.19,0-.38-.03-.57-.09l-14.68-4.83c-.96-.32-1.49-1.35-1.17-2.32.32-.96,1.35-1.49,2.32-1.17l14.68,4.83c.96.32,1.49,1.35,1.17,2.32-.25.77-.97,1.26-1.74,1.26Z"/>
    <path class="cls-1" d="m450.12,292.95c-.37,0-.74-.11-1.06-.34l-6.54-4.65c-.83-.59-1.02-1.73-.43-2.56.59-.83,1.73-1.02,2.56-.43l6.54,4.65c.83.59,1.02,1.73.43,2.56-.36.5-.92.77-1.5.77Z"/>
    <path class="cls-1" d="m504.38,223.07c-.71,0-1.38-.41-1.68-1.1l-2.87-6.59c-.4-.93.02-2.01.95-2.42.93-.41,2.01.02,2.42.95l2.87,6.59c.4.93-.02,2.01-.95,2.42-.24.1-.49.15-.73.15Z"/>
    <path class="cls-1" d="m373.94,17.5c-.33,0-.66-.09-.96-.27l-9.35-5.79c-.86-.53-1.13-1.67-.6-2.53s1.67-1.13,2.53-.6l9.35,5.79c.86.53,1.13,1.67.6,2.53-.35.56-.95.87-1.56.87Z"/>
    <path class="cls-1" d="m268.35,263.78c-.68,0-1.32-.37-1.65-1.02-.45-.91-.08-2.01.82-2.46l6.96-3.47c.91-.46,2.01-.08,2.46.82.45.91.08,2.01-.82,2.46l-6.96,3.47c-.26.13-.54.19-.82.19Z"/>
    <path class="cls-1" d="m69.06,281.9c-.33,0-.66-.09-.96-.27-.87-.53-1.14-1.66-.61-2.52l9.81-16.05c.53-.87,1.66-1.14,2.52-.61.87.53,1.14,1.66.61,2.52l-9.81,16.05c-.35.57-.95.88-1.57.88Z"/>
    <path class="cls-1" d="m71.56,17.55c-.95,0-1.76-.74-1.83-1.71-.07-1.01.69-1.89,1.7-1.96l27.55-1.97c1.03-.05,1.89.69,1.96,1.7.07,1.01-.69,1.89-1.7,1.96l-27.55,1.97s-.09,0-.13,0Z"/>
    <path class="cls-1" d="m463.17,205.55c-.59,0-1.17-.28-1.53-.81l-4.53-6.73c-.57-.84-.34-1.98.5-2.55.84-.57,1.98-.34,2.55.5l4.53,6.73c.57.84.34,1.98-.5,2.55-.31.21-.67.31-1.02.31Z"/>
    <path class="cls-1" d="m203.69,223.62c-.49,0-.98-.19-1.34-.58-.69-.74-.66-1.9.08-2.6l3.5-3.29c.74-.69,1.9-.66,2.6.08.69.74.66,1.9-.08,2.6l-3.5,3.29c-.35.33-.81.5-1.26.5Z"/>
    <path class="cls-1" d="m460.01,119.06c-.14,0-.29-.02-.43-.05-.99-.24-1.59-1.23-1.35-2.22l1.46-6.04c.24-.99,1.23-1.59,2.22-1.35.99.24,1.59,1.23,1.35,2.22l-1.46,6.04c-.2.84-.95,1.41-1.78,1.41Z"/>
    <path class="cls-1" d="m123.67,343.63c-.31,0-.62-.08-.91-.24l-4.86-2.78c-.88-.5-1.19-1.63-.68-2.51.5-.88,1.62-1.18,2.51-.68l4.86,2.78c.88.5,1.19,1.63.68,2.51-.34.59-.96.92-1.6.92Z"/>
    <path class="cls-1" d="m480.58,235.99c-.08,0-.15,0-.23-.01l-4.86-.6c-1.01-.12-1.72-1.04-1.6-2.05.12-1.01,1.05-1.72,2.05-1.6l4.86.6c1.01.12,1.72,1.04,1.6,2.05-.11.93-.91,1.61-1.82,1.61Z"/>
    <path class="cls-1" d="m408.5,265.39c-.35,0-.71-.1-1.02-.31l-14.77-9.9c-.84-.56-1.07-1.71-.5-2.55.56-.84,1.71-1.07,2.55-.5l14.77,9.9c.84.56,1.07,1.71.5,2.55-.35.53-.94.81-1.53.81Z"/>
    <path class="cls-1" d="m236.56,20.25c-.66,0-1.31-.36-1.63-.99-.47-.9-.11-2.01.79-2.48l12.3-6.37c.9-.47,2.01-.11,2.48.79.47.9.11,2.01-.79,2.48l-12.3,6.37c-.27.14-.56.21-.84.21Z"/>
    <path class="cls-1" d="m351.26,197.33c-.23,0-.47-.05-.7-.14l-10.39-4.32c-.94-.39-1.38-1.47-.99-2.4.39-.94,1.47-1.38,2.4-.99l10.39,4.32c.94.39,1.38,1.46.99,2.4-.29.71-.98,1.13-1.7,1.13Z"/>
    <path class="cls-1" d="m208.08,35.29c-.66,0-1.3-.36-1.63-.99l-10.67-20.39c-.47-.9-.12-2.01.78-2.48.9-.47,2.01-.12,2.48.78l10.67,20.39c.47.9.12,2.01-.78,2.48-.27.14-.56.21-.85.21Z"/>
    <path class="cls-1" d="m236.63,246.63c-.98,0-1.79-.77-1.83-1.76l-.3-6.73c-.04-1.01.74-1.87,1.75-1.92,1-.03,1.87.74,1.92,1.75l.3,6.73c.04,1.01-.74,1.87-1.75,1.92-.03,0-.05,0-.08,0Z"/>
    <path class="cls-1" d="m402.97,20.62c-.3,0-.6-.07-.88-.23-.89-.49-1.21-1.61-.72-2.49l3.52-6.39c.49-.89,1.61-1.21,2.49-.72.89.49,1.21,1.61.72,2.49l-3.52,6.39c-.33.61-.96.95-1.61.95Z"/>
    <path class="cls-1" d="m454.48,464.4c-.9,0-1.69-.67-1.82-1.59l-1.89-13.93c-.14-1,.57-1.93,1.57-2.07,1-.15,1.93.57,2.07,1.57l1.89,13.93c.14,1-.57,1.93-1.57,2.07-.08.01-.17.02-.25.02Z"/>
    <path class="cls-1" d="m378.86,405.96c-.82,0-1.57-.55-1.78-1.38l-1.98-7.77c-.25-.98.34-1.98,1.33-2.23.98-.26,1.98.34,2.23,1.33l1.98,7.77c.25.98-.34,1.98-1.33,2.23-.15.04-.3.06-.45.06Z"/>
    <path class="cls-1" d="m141.21,433.09c-.37,0-.75-.11-1.08-.35-.82-.6-1-1.75-.4-2.57l16.42-22.51c.6-.82,1.75-1,2.57-.4.82.6,1,1.75.4,2.57l-16.42,22.51c-.36.49-.92.75-1.48.75Z"/>
    <path class="cls-1" d="m438.76,30.73c-.1,0-.21,0-.31-.03-1-.17-1.67-1.12-1.5-2.12l2.48-14.36c.17-1,1.11-1.68,2.12-1.5,1,.17,1.67,1.12,1.5,2.12l-2.48,14.36c-.15.89-.93,1.52-1.81,1.52Z"/>
    <path class="cls-1" d="m456.63,73.07c-.87,0-1.64-.62-1.8-1.51l-1.52-8.43c-.18-1,.48-1.95,1.48-2.13,1-.18,1.95.48,2.13,1.48l1.52,8.43c.18,1-.48,1.95-1.48,2.13-.11.02-.22.03-.33.03Z"/>
    <path class="cls-1" d="m139.96,483.49c-.89,0-1.67-.65-1.81-1.55l-3.8-24.43c-.16-1,.53-1.94,1.53-2.1,1-.15,1.94.53,2.1,1.53l3.8,24.43c.16,1-.53,1.94-1.53,2.1-.1.01-.19.02-.28.02Z"/>
    <path class="cls-1" d="m10.51,385.6c-.3,0-.6-.07-.88-.23-.89-.49-1.21-1.61-.72-2.49l3.22-5.84c.49-.89,1.61-1.21,2.49-.72.89.49,1.21,1.61.72,2.49l-3.22,5.84c-.33.61-.96.95-1.61.95Z"/>
    <path class="cls-1" d="m486.36,143.14c-.86,0-1.63-.61-1.8-1.48-.19-1,.46-1.96,1.45-2.15l14.98-2.92c.99-.2,1.96.46,2.15,1.45.19,1-.46,1.96-1.45,2.15l-14.98,2.92c-.12.02-.24.03-.35.03Z"/>
    <path class="cls-1" d="m500.3,392.42c-.88,0-1.66-.64-1.81-1.54l-2.54-15.55c-.16-1,.52-1.94,1.52-2.11,1.01-.16,1.94.52,2.11,1.52l2.54,15.55c.16,1-.52,1.94-1.52,2.11-.1.02-.2.02-.3.02Z"/>
    <path class="cls-1" d="m302.01,191.84c-.58,0-1.15-.27-1.51-.79-.58-.83-.38-1.98.46-2.56l4.61-3.21c.83-.58,1.98-.38,2.56.46.58.83.38,1.98-.46,2.56l-4.61,3.21c-.32.22-.69.33-1.05.33Z"/>
    <path class="cls-1" d="m264.11,56.07c-.64,0-1.27-.34-1.6-.94l-2.83-5.04c-.5-.88-.18-2,.7-2.5.88-.5,2-.18,2.5.7l2.83,5.04c.5.88.18,2-.7,2.5-.28.16-.59.23-.9.23Z"/>
    <path class="cls-1" d="m172.44,202.39c-.33,0-.66-.09-.96-.27-.86-.53-1.13-1.67-.6-2.53l7.94-12.84c.54-.86,1.67-1.13,2.53-.6.86.53,1.13,1.67.6,2.53l-7.94,12.84c-.35.56-.95.87-1.56.87Z"/>
    <path class="cls-1" d="m411.59,467.94c-.84,0-1.6-.58-1.79-1.44-.22-.99.41-1.97,1.4-2.19l7.41-1.63c.98-.22,1.97.41,2.19,1.4.22.99-.41,1.97-1.4,2.19l-7.41,1.63c-.13.03-.27.04-.4.04Z"/>
    <path class="cls-1" d="m204.52,263.37c-.34,0-.68-.09-.98-.29l-6.78-4.31c-.86-.54-1.11-1.68-.56-2.53.54-.86,1.68-1.11,2.53-.56l6.78,4.31c.86.54,1.11,1.68.56,2.53-.35.55-.94.85-1.55.85Z"/>
    <path class="cls-1" d="m242.31,383.22c-.81,0-1.55-.54-1.77-1.35-.27-.98.31-1.99,1.28-2.26l17.6-4.83c.97-.27,1.99.31,2.26,1.28.27.98-.31,1.99-1.28,2.26l-17.6,4.83c-.16.04-.33.07-.49.07Z"/>
    <path class="cls-1" d="m15.22,214.3c-.18,0-.36-.03-.54-.08l-5.31-1.62c-.97-.3-1.52-1.32-1.22-2.29.3-.97,1.33-1.52,2.29-1.22l5.31,1.62c.97.3,1.52,1.32,1.22,2.29-.24.79-.97,1.3-1.75,1.3Z"/>
    <path class="cls-1" d="m241.12,303.1c-.72,0-1.4-.43-1.7-1.14l-6.42-15.53c-.39-.94.06-2.01,1-2.4.94-.39,2.01.06,2.4,1l6.42,15.53c.39.94-.06,2.01-1,2.4-.23.09-.47.14-.7.14Z"/>
    <path class="cls-1" d="m500.52,339.86c-.22,0-.44-.04-.66-.12l-24.7-9.57c-.95-.37-1.41-1.43-1.05-2.38.37-.94,1.43-1.41,2.38-1.05l24.7,9.57c.95.37,1.41,1.43,1.05,2.38-.28.73-.98,1.17-1.71,1.17Z"/>
    <path class="cls-1" d="m420.75,202.71c-.63,0-1.25-.33-1.59-.91-.51-.88-.21-2,.67-2.51l4.22-2.45c.87-.51,2-.21,2.51.67.51.88.21,2-.67,2.51l-4.22,2.45c-.29.17-.61.25-.92.25Z"/>
    <path class="cls-1" d="m374.99,56.25c-.62,0-1.23-.31-1.57-.88l-6.05-10c-.53-.87-.25-2,.62-2.52.87-.53,2-.25,2.52.62l6.05,10c.53.87.25,2-.62,2.52-.3.18-.63.27-.95.27Z"/>
    <path class="cls-1" d="m8.06,289.69c-.07,0-.13,0-.2-.01-1.01-.11-1.74-1.01-1.63-2.02l.56-5.27c.11-1.01,1.02-1.74,2.02-1.63,1.01.11,1.74,1.01,1.63,2.02l-.56,5.27c-.1.94-.9,1.64-1.82,1.64Z"/>
    <path class="cls-1" d="m485.01,428.31c-.91,0-1.7-.67-1.82-1.6-.13-1.01.57-1.93,1.58-2.06l14.56-1.92c1-.13,1.93.57,2.06,1.58.13,1.01-.57,1.93-1.58,2.06l-14.56,1.92c-.08.01-.16.02-.24.02Z"/>
    <path class="cls-1" d="m132.11,261.36c-.34,0-.69-.1-1-.3l-15.34-9.98c-.85-.55-1.09-1.69-.54-2.54.55-.85,1.69-1.09,2.54-.54l15.34,9.98c.85.55,1.09,1.69.54,2.54-.35.54-.94.83-1.54.83Z"/>
    <path class="cls-1" d="m57.56,146.75c-.23,0-.46-.04-.68-.13l-17.77-7.09c-.94-.37-1.4-1.44-1.03-2.38.37-.94,1.45-1.4,2.38-1.03l17.77,7.09c.94.37,1.4,1.44,1.03,2.38-.29.72-.98,1.16-1.71,1.16Z"/>
    <path class="cls-1" d="m12.12,177.88c-.09,0-.18,0-.27-.02-1-.15-1.7-1.08-1.55-2.08l1.01-6.88c.15-1,1.07-1.7,2.08-1.55,1,.15,1.7,1.08,1.55,2.08l-1.01,6.88c-.13.91-.92,1.57-1.81,1.57Z"/>
    <path class="cls-1" d="m108.46,503.54c-.16,0-.32-.02-.49-.07l-10.26-2.81c-.98-.27-1.55-1.28-1.28-2.26.27-.98,1.27-1.56,2.26-1.28l10.26,2.81c.98.27,1.55,1.28,1.28,2.26-.22.81-.96,1.35-1.77,1.35Z"/>
    <path class="cls-1" d="m500.79,504.74c-.65,0-1.29-.35-1.62-.97l-2.73-5.08c-.48-.89-.15-2.01.75-2.49.89-.48,2.01-.15,2.49.75l2.73,5.08c.48.89.15,2.01-.75,2.49-.28.15-.57.22-.87.22Z"/>
    <path class="cls-1" d="m327.78,281.39c-.44,0-.89-.16-1.24-.48l-13.78-12.67c-.75-.69-.8-1.85-.11-2.59.69-.75,1.85-.79,2.59-.11l13.78,12.67c.75.69.8,1.85.11,2.59-.36.39-.86.59-1.35.59Z"/>
    <path class="cls-1" d="m133.07,385.87c-.09,0-.18,0-.28-.02-1-.15-1.69-1.09-1.54-2.09l1.39-9.22c.15-1,1.09-1.7,2.09-1.54,1,.15,1.69,1.09,1.54,2.09l-1.39,9.22c-.14.91-.92,1.56-1.81,1.56Z"/>
    <path class="cls-1" d="m398.56,351.76c-.89,0-1.67-.65-1.81-1.55-.16-1,.53-1.94,1.53-2.1l5-.79c1.01-.16,1.94.53,2.1,1.53.16,1-.53,1.94-1.53,2.1l-5,.79c-.1.02-.19.02-.29.02Z"/>
    <path class="cls-1" d="m38.46,303.11c-.41,0-.82-.14-1.17-.42-.78-.64-.9-1.8-.25-2.58l3.96-4.81c.64-.78,1.8-.89,2.58-.25.78.64.9,1.8.25,2.58l-3.96,4.81c-.36.44-.89.67-1.42.67Z"/>
    <path class="cls-1" d="m499.62,106.96c-.06,0-.13,0-.2,0l-5.94-.63c-1.01-.11-1.74-1.01-1.63-2.02.11-1.01.99-1.74,2.02-1.63l5.94.63c1.01.11,1.74,1.01,1.63,2.02-.1.94-.9,1.64-1.82,1.64Z"/>
    <path class="cls-1" d="m333.84,21.17c-.68,0-1.33-.37-1.65-1.02l-3.58-7.22c-.45-.91-.08-2.01.83-2.46.91-.45,2.01-.08,2.46.83l3.58,7.22c.45.91.08,2.01-.83,2.46-.26.13-.54.19-.81.19Z"/>
    <path class="cls-1" d="m71.74,106.85c-.18,0-.36-.03-.54-.08l-20.35-6.21c-.97-.3-1.52-1.32-1.22-2.29.3-.97,1.32-1.52,2.29-1.22l20.35,6.21c.97.3,1.52,1.32,1.22,2.29-.24.79-.97,1.3-1.76,1.3Z"/>
    <path class="cls-1" d="m496.09,188.66c-.19,0-.39-.03-.58-.1-.96-.32-1.48-1.36-1.16-2.32l4.19-12.49c.32-.96,1.36-1.47,2.32-1.16.96.32,1.48,1.36,1.16,2.32l-4.19,12.49c-.26.77-.97,1.25-1.74,1.25Z"/>
    <path class="cls-1" d="m460.64,506.49c-.34,0-.68-.09-.98-.29-.86-.54-1.11-1.68-.56-2.53l6.07-9.52c.54-.85,1.68-1.11,2.53-.56.86.54,1.11,1.68.56,2.53l-6.07,9.52c-.35.55-.94.85-1.55.85Z"/>
    <path class="cls-1" d="m268.27,418.22c-.52,0-1.03-.22-1.39-.64l-7.34-8.55c-.66-.77-.57-1.93.2-2.59.77-.66,1.93-.57,2.59.2l7.34,8.55c.66.77.57,1.93-.2,2.59-.35.3-.77.44-1.2.44Z"/>
    <path class="cls-1" d="m17.41,249.41c-.91,0-1.71-.68-1.82-1.61-.12-1.01.59-1.92,1.6-2.04l22.95-2.79c1-.12,1.92.59,2.04,1.6.12,1.01-.59,1.92-1.6,2.04l-22.95,2.79c-.08,0-.15.01-.22.01Z"/>
    <path class="cls-1" d="m358.84,160.85c-.87,0-1.64-.62-1.8-1.5l-2.72-14.57c-.19-1,.47-1.96,1.47-2.14,1-.19,1.96.47,2.14,1.47l2.72,14.57c.19,1-.47,1.96-1.47,2.14-.11.02-.23.03-.34.03Z"/>
    <path class="cls-1" d="m168.15,343.7c-.43,0-.86-.15-1.21-.45l-13.09-11.46c-.76-.67-.84-1.83-.17-2.59.67-.76,1.83-.84,2.59-.17l13.09,11.46c.76.67.84,1.83.17,2.59-.36.41-.87.63-1.38.63Z"/>
    <path class="cls-1" d="m375.65,452.64c-.25,0-.51-.05-.75-.16-.93-.41-1.34-1.5-.92-2.43l6.31-14.06c.42-.92,1.5-1.34,2.43-.92.93.41,1.34,1.5.92,2.43l-6.31,14.06c-.31.68-.97,1.08-1.68,1.08Z"/>
    <path class="cls-1" d="m295.32,108.43c-.8,0-1.53-.52-1.76-1.33l-7.01-24.24c-.28-.97.28-1.99,1.25-2.27.97-.29,1.99.28,2.27,1.25l7.01,24.24c.28.97-.28,1.99-1.25,2.27-.17.05-.34.07-.51.07Z"/>
    <path class="cls-1" d="m121.61,307.02c-.56,0-1.11-.25-1.47-.74l-10.95-14.63c-.61-.81-.44-1.96.37-2.57.81-.61,1.96-.44,2.57.37l10.95,14.63c.61.81.44,1.96-.37,2.57-.33.25-.72.37-1.1.37Z"/>
    <path class="cls-1" d="m9.85,138.13c-.98,0-1.79-.77-1.83-1.76l-.73-17.92c-.04-1.01.75-1.87,1.76-1.91.99-.03,1.87.75,1.91,1.76l.73,17.92c.04,1.01-.75,1.87-1.76,1.91-.03,0-.05,0-.08,0Z"/>
    <path class="cls-1" d="m334.51,318.36c-.44,0-.88-.16-1.24-.48-.75-.68-.8-1.84-.12-2.59l4.16-4.57c.68-.75,1.84-.8,2.59-.12.75.68.8,1.84.12,2.59l-4.16,4.57c-.36.4-.86.6-1.36.6Z"/>
    <path class="cls-1" d="m308.27,237.97c-.2,0-.41-.03-.61-.1-.96-.34-1.46-1.38-1.13-2.34l5.78-16.51c.33-.96,1.38-1.46,2.34-1.13.96.34,1.46,1.38,1.13,2.34l-5.78,16.51c-.26.76-.97,1.23-1.73,1.23Z"/>
    <path class="cls-1" d="m421.16,314.3c-.23,0-.46-.04-.69-.14l-21.59-8.76c-.94-.38-1.39-1.45-1.01-2.39s1.45-1.39,2.39-1.01l21.59,8.76c.94.38,1.39,1.45,1.01,2.39-.29.71-.98,1.15-1.7,1.15Z"/>
    <path class="cls-1" d="m386.25,218.86c-.9,0-1.69-.67-1.82-1.59l-1.67-12.24c-.14-1,.57-1.93,1.57-2.07.99-.14,1.93.57,2.07,1.57l1.67,12.24c.14,1-.57,1.93-1.57,2.07-.08.01-.17.02-.25.02Z"/>
    <path class="cls-1" d="m104.29,159.79c-.25,0-.51-.05-.75-.16l-18.82-8.43c-.93-.41-1.34-1.5-.93-2.43.42-.92,1.5-1.34,2.43-.93l18.82,8.43c.93.41,1.34,1.5.93,2.43-.3.68-.98,1.09-1.68,1.09Z"/>
    <path class="cls-1" d="m214.92,366.97c-.12,0-.24-.01-.36-.04-.99-.2-1.64-1.17-1.44-2.16l4.42-21.92c.2-.99,1.17-1.63,2.16-1.44.99.2,1.64,1.17,1.44,2.16l-4.42,21.92c-.18.87-.94,1.47-1.8,1.47Z"/>
    <path class="cls-1" d="m222.86,68.46c-.75,0-1.45-.46-1.72-1.2-.35-.95.14-2.01,1.09-2.36l8.21-3.02c.95-.35,2.01.14,2.36,1.09.35.95-.14,2.01-1.09,2.36l-8.21,3.02c-.21.08-.42.11-.63.11Z"/>
    <path class="cls-1" d="m222.23,187.68c-1.01,0-1.83-.81-1.84-1.82,0-1.01.81-1.84,1.82-1.85l20.44-.17c1.08-.05,1.84.81,1.85,1.82,0,1.01-.81,1.84-1.82,1.85l-20.44.17h-.02Z"/>
    <path class="cls-1" d="m439.07,357.44c-.17,0-.34-.02-.51-.07-.97-.28-1.53-1.3-1.25-2.27l7.14-24.61c.28-.97,1.3-1.54,2.27-1.25.97.28,1.53,1.3,1.25,2.27l-7.14,24.61c-.23.8-.97,1.33-1.76,1.33Z"/>
    <path class="cls-1" d="m414.04,429.37c-.73,0-1.43-.44-1.71-1.17-.37-.94.09-2.01,1.04-2.38l11.99-4.71c.94-.37,2.01.09,2.38,1.04.37.94-.09,2.01-1.04,2.38l-11.99,4.71c-.22.09-.45.13-.67.13Z"/>
    <path class="cls-1" d="m338.13,119.62c-.59,0-1.17-.28-1.52-.81l-3.6-5.31c-.57-.84-.35-1.98.49-2.55.84-.57,1.98-.35,2.55.49l3.6,5.31c.57.84.35,1.98-.49,2.55-.32.21-.67.32-1.03.32Z"/>
    <path class="cls-1" d="m198.1,159.01c-.64,0-1.26-.34-1.6-.93l-10.35-18.36c-.5-.88-.19-2,.7-2.5.88-.5,2-.18,2.5.7l10.35,18.36c.5.88.19,2-.7,2.5-.28.16-.6.24-.9.24Z"/>
    <path class="cls-1" d="m294.62,309.21c-.46,0-.92-.17-1.28-.52l-11.64-11.26c-.73-.7-.75-1.87-.04-2.6.71-.73,1.87-.75,2.6-.04l11.64,11.26c.73.7.75,1.87.04,2.6-.36.37-.84.56-1.32.56Z"/>
    <path class="cls-1" d="m342.91,378.63c-.53,0-1.05-.22-1.41-.66-.65-.78-.55-1.94.23-2.59l16.46-13.76c.78-.65,1.94-.55,2.59.23.65.78.55,1.94-.23,2.59l-16.46,13.76c-.34.29-.76.43-1.18.43Z"/>
    <path class="cls-1" d="m108.74,425.25c-.11,0-.23,0-.34-.03l-7.91-1.48c-1-.19-1.65-1.15-1.47-2.14.19-1,1.15-1.65,2.14-1.47l7.91,1.48c1,.19,1.65,1.15,1.47,2.14-.17.88-.94,1.5-1.8,1.5Z"/>
    <path class="cls-1" d="m197.03,468.46c-.3,0-.6-.07-.87-.22l-22.57-12.24c-.89-.48-1.22-1.6-.74-2.49.48-.89,1.6-1.22,2.49-.74l22.57,12.24c.89.48,1.22,1.6.74,2.49-.33.61-.96.96-1.62.96Z"/>
    <path class="cls-1" d="m319.28,156.13c-.41,0-.83-.14-1.17-.42l-11.04-9.19c-.78-.65-.89-1.81-.24-2.59.65-.78,1.81-.89,2.59-.24l11.04,9.19c.78.65.89,1.81.24,2.59-.36.44-.89.66-1.41.66Z"/>
    <path class="cls-1" d="m504.06,263.73c-.75,0-1.46-.47-1.73-1.22l-1.76-4.95c-.34-.96.16-2.01,1.12-2.35.95-.34,2.01.16,2.35,1.12l1.76,4.95c.34.96-.16,2.01-1.12,2.35-.2.07-.41.11-.62.11Z"/>
    <path class="cls-1" d="m101.5,81.15c-.94,0-1.74-.72-1.83-1.67l-2.55-27.62c-.09-1.01.65-1.9,1.66-2,1.01-.1,1.9.65,2,1.66l2.55,27.62c.09,1.01-.65,1.9-1.66,2-.06,0-.11,0-.17,0Z"/>
    <path class="cls-1" d="m262.6,453.1c-.18,0-.37-.03-.56-.09l-4.43-1.41c-.97-.31-1.5-1.34-1.19-2.31.31-.97,1.34-1.5,2.31-1.19l4.43,1.41c.97.31,1.5,1.34,1.19,2.31-.25.78-.97,1.28-1.75,1.28Z"/>
    <path class="cls-1" d="m236.41,148.59c-.44,0-.87-.16-1.23-.47l-3.78-3.4c-.75-.68-.82-1.84-.14-2.59.68-.76,1.84-.82,2.59-.14l3.78,3.4c.75.68.82,1.84.14,2.59-.36.4-.86.61-1.37.61Z"/>
    <path class="cls-1" d="m369.95,288.15c-.59,0-1.17-.28-1.52-.81l-6.72-9.96c-.57-.84-.35-1.98.5-2.55.84-.57,1.98-.35,2.55.5l6.72,9.96c.57.84.35,1.98-.5,2.55-.31.21-.67.31-1.02.31Z"/>
    <path class="cls-1" d="m494.6,75.87s-.07,0-.11,0c-1.01-.06-1.79-.93-1.72-1.94l1.47-25c.06-1.01.94-1.8,1.94-1.72,1.01.06,1.79.93,1.72,1.94l-1.47,25c-.06.98-.87,1.73-1.83,1.73Z"/>
    <path class="cls-1" d="m297.34,46.94c-.88,0-1.66-.64-1.81-1.54-.16-1,.52-1.94,1.52-2.11l15.74-2.57c1-.16,1.94.51,2.11,1.52.16,1-.52,1.94-1.52,2.11l-15.74,2.57c-.1.02-.2.02-.3.02Z"/>
    <path class="cls-1" d="m345.05,422.48c-.27,0-.55-.06-.81-.19l-18.1-8.87c-.91-.45-1.29-1.55-.84-2.46.45-.91,1.55-1.29,2.46-.84l18.1,8.87c.91.45,1.29,1.55.84,2.46-.32.65-.97,1.03-1.65,1.03Z"/>
    <path class="cls-1" d="m272.28,223.18c-.51,0-1.02-.21-1.39-.63l-10.01-11.51c-.67-.76-.58-1.92.18-2.59.77-.67,1.92-.59,2.59.18l10.01,11.51c.67.76.58,1.92-.18,2.59-.35.3-.78.45-1.2.45Z"/>
    <path class="cls-1" d="m370.44,330.72c-.15,0-.3-.02-.45-.06-.98-.25-1.58-1.25-1.33-2.23l1.48-5.79c.25-.98,1.24-1.58,2.23-1.33.98.25,1.58,1.25,1.33,2.23l-1.48,5.79c-.21.83-.96,1.38-1.78,1.38Z"/>
    <path class="cls-1" d="m98.07,390.52c-.84,0-1.6-.58-1.79-1.44l-5.57-25.26c-.22-.99.41-1.97,1.4-2.19.99-.22,1.97.41,2.19,1.4l5.57,25.26c.22.99-.41,1.97-1.4,2.19-.13.03-.27.04-.4.04Z"/>
    <path class="cls-1" d="m210.91,503.18c-.49,0-.97-.19-1.33-.57-.7-.74-.66-1.9.07-2.6l10.73-10.14c.74-.7,1.9-.66,2.6.07.7.74.66,1.9-.07,2.6l-10.73,10.14c-.35.34-.81.5-1.26.5Z"/>
    <path class="cls-1" d="m89.07,231.62c-.49,0-.98-.19-1.34-.58l-14.03-14.97c-.69-.74-.66-1.9.08-2.6.74-.69,1.9-.66,2.6.08l14.03,14.97c.69.74.66,1.9-.08,2.6-.35.33-.81.5-1.26.5Z"/>
    <path class="cls-1" d="m418.43,386.05c-.05,0-.1,0-.16,0l-13.59-1.14c-1.01-.09-1.76-.97-1.68-1.98.09-1.01.96-1.77,1.98-1.68l13.59,1.14c1.01.09,1.76.97,1.68,1.98-.08.96-.88,1.68-1.83,1.68Z"/>
    <path class="cls-1" d="m429.54,240.01c-.81,0-1.55-.54-1.77-1.35-.27-.98.31-1.99,1.29-2.25l13.33-3.63c.98-.27,1.99.31,2.25,1.29.27.98-.31,1.99-1.29,2.25l-13.33,3.63c-.16.04-.32.07-.48.07Z"/>
    <path class="cls-1" d="m418.36,504.77c-.66,0-1.29-.35-1.62-.97-.48-.89-.14-2.01.76-2.48l6.43-3.42c.9-.48,2.01-.14,2.48.76.48.89.14,2.01-.76,2.48l-6.43,3.42c-.27.15-.57.22-.86.22Z"/>
    <path class="cls-1" d="m460.15,165.66c-.27,0-.53-.06-.79-.18l-25.84-12.3c-.92-.44-1.3-1.53-.87-2.45.44-.92,1.53-1.3,2.45-.87l25.84,12.3c.92.44,1.3,1.53.87,2.45-.31.66-.97,1.05-1.66,1.05Z"/>
    <path class="cls-1" d="m336.39,467.26c-.39,0-.78-.12-1.11-.38-.81-.62-.96-1.77-.35-2.57l6.8-8.92c.61-.8,1.77-.96,2.57-.35.81.61.96,1.77.35,2.57l-6.8,8.92c-.36.47-.91.72-1.46.72Z"/>
    <path class="cls-1" d="m423.09,115c-.06,0-.11,0-.17,0-1.01-.09-1.75-.99-1.66-2l1.14-12.42c.09-1.01.99-1.76,2-1.66,1.01.09,1.75.99,1.66,2l-1.14,12.42c-.09.95-.89,1.67-1.83,1.67Z"/>
    <path class="cls-1" d="m384.83,111.2c-.52,0-1.04-.22-1.41-.66l-14.58-17.36c-.65-.78-.55-1.93.23-2.59.77-.65,1.94-.55,2.59.23l14.58,17.36c.65.78.55,1.93-.22,2.59-.34.29-.76.43-1.18.43Z"/>
    <path class="cls-1" d="m44.6,193.28c-.65,0-1.27-.34-1.61-.95-.49-.89-.17-2,.71-2.5l15.05-8.35c.89-.49,2-.17,2.5.71.49.89.17,2-.71,2.5l-15.05,8.35c-.28.16-.59.23-.89.23Z"/>
    <path class="cls-1" d="m162.86,22.08c-.88,0-1.66-.64-1.81-1.54l-1.64-9.91c-.17-1,.51-1.95,1.51-2.11,1-.17,1.95.51,2.11,1.51l1.64,9.91c.17,1-.51,1.95-1.51,2.11-.1.02-.2.02-.3.02Z"/>
    <path class="cls-1" d="m82.85,326.89c-.57,0-1.14-.27-1.49-.77l-6.07-8.48c-.59-.82-.4-1.97.42-2.56.82-.59,1.97-.4,2.56.42l6.07,8.48c.59.82.4,1.97-.42,2.56-.32.23-.7.34-1.07.34Z"/>
    <path class="cls-1" d="m496.03,468.33c-.89,0-1.67-.65-1.81-1.56l-1.27-8.31c-.15-1,.53-1.94,1.54-2.09,1-.15,1.94.53,2.09,1.54l1.27,8.31c.15,1-.53,1.94-1.54,2.09-.09.01-.19.02-.28.02Z"/>
    <path class="cls-1" d="m226.25,111.92c-.73,0-1.42-.44-1.71-1.16-.37-.94.09-2.01,1.03-2.38l24.4-9.71c.94-.37,2.01.08,2.38,1.03.37.94-.09,2.01-1.03,2.38l-24.4,9.71c-.22.09-.45.13-.68.13Z"/>
    <path class="cls-1" d="m306.98,444.06c-.25,0-.5-.05-.74-.16l-13.18-5.82c-.93-.41-1.35-1.49-.94-2.42.41-.93,1.49-1.35,2.42-.94l13.18,5.82c.93.41,1.35,1.49.94,2.42-.3.69-.98,1.1-1.68,1.1Z"/>
    <path class="cls-1" d="m454.42,405.55c-.28,0-.56-.06-.83-.2-.9-.46-1.26-1.56-.81-2.47l12.46-24.55c.46-.9,1.56-1.27,2.47-.81.9.46,1.26,1.56.81,2.47l-12.46,24.54c-.32.64-.97,1.01-1.64,1.01Z"/>
    <path class="cls-1" d="m153.78,506.11c-.96,0-1.77-.75-1.83-1.73-.06-1.01.71-1.88,1.72-1.94l22.09-1.32c1.01-.07,1.88.71,1.94,1.72.06,1.01-.71,1.88-1.72,1.94l-22.09,1.32s-.07,0-.11,0Z"/>
    <path class="cls-1" d="m135.51,93.27c-.79,0-1.52-.51-1.76-1.31-.29-.97.25-2,1.23-2.29l20.94-6.34c.97-.3,1.99.25,2.29,1.23.29.97-.25,2-1.23,2.29l-20.94,6.34c-.18.05-.36.08-.53.08Z"/>
    <path class="cls-1" d="m13.12,46.38c-.87,0-1.65-.62-1.81-1.52l-4.99-28.08c-.18-1,.49-1.95,1.49-2.13,1.01-.19,1.95.49,2.13,1.49l4.99,28.08c.18,1-.49,1.95-1.49,2.13-.11.02-.22.03-.32.03Z"/>
    <path class="cls-1" d="m196.22,319.28c-.89,0-1.67-.64-1.81-1.55l-4.01-24.99c-.16-1,.52-1.94,1.52-2.1,1-.16,1.94.52,2.1,1.52l4.01,24.99c.16,1-.52,1.94-1.52,2.1-.1.02-.2.02-.29.02Z"/>
    <path class="cls-1" d="m355.57,241.53c-.19,0-.38-.03-.57-.09l-6.95-2.27c-.96-.31-1.49-1.35-1.17-2.32.31-.96,1.35-1.49,2.32-1.17l6.95,2.27c.96.31,1.49,1.35,1.17,2.32-.25.77-.97,1.27-1.74,1.27Z"/>
    <path class="cls-1" d="m149.91,131.71c-.68,0-1.34-.38-1.65-1.04-.44-.91-.06-2.01.85-2.45l8.41-4.07c.91-.44,2.01-.06,2.45.85.44.91.06,2.01-.85,2.45l-8.41,4.07c-.26.12-.53.18-.8.18Z"/>
    <path class="cls-1" d="m254.76,507.41s-.03,0-.05,0c-1.01-.03-1.81-.87-1.79-1.88l.69-26.98c.03-1.01.83-1.89,1.88-1.79,1.01.03,1.81.87,1.79,1.88l-.69,26.98c-.03,1-.84,1.79-1.83,1.79Z"/>
    <path class="cls-1" d="m182.22,60.54c-.43,0-.86-.15-1.21-.46l-3.61-3.17c-.76-.67-.84-1.83-.17-2.59.67-.76,1.83-.84,2.59-.17l3.61,3.17c.76.67.84,1.83.17,2.59-.36.41-.87.63-1.38.63Z"/>
    <path class="cls-1" d="m58.04,507.96c-.47,0-.94-.18-1.3-.54l-4.72-4.7c-.72-.72-.72-1.88,0-2.6.72-.72,1.88-.72,2.6,0l4.72,4.7c.72.72.72,1.88,0,2.6-.36.36-.83.54-1.3.54Z"/>
    <path class="cls-1" d="m180.27,377.34c-.11,0-.22,0-.33-.03l-9.47-1.74c-1-.18-1.66-1.14-1.47-2.14.18-1,1.13-1.66,2.14-1.47l9.47,1.74c1,.18,1.66,1.14,1.47,2.14-.16.88-.93,1.5-1.8,1.5Z"/>
    <path class="cls-1" d="m378.7,503c-.96,0-1.77-.75-1.83-1.73l-1.04-17.49c-.06-1.01.71-1.88,1.72-1.94,1.02-.08,1.88.71,1.94,1.72l1.04,17.49c.06,1.01-.71,1.88-1.72,1.94-.04,0-.07,0-.11,0Z"/>
    <path class="cls-1" d="m19.01,447.62c-.77,0-1.48-.49-1.74-1.25l-7.62-22.76c-.32-.96.2-2,1.16-2.32.96-.32,2,.2,2.32,1.16l7.62,22.76c.32.96-.2,2-1.16,2.32-.19.06-.39.1-.58.1Z"/>
    <path class="cls-1" d="m59.55,363.92c-.45,0-.91-.17-1.26-.5l-20.4-19.38c-.74-.7-.77-1.86-.07-2.6.7-.74,1.86-.76,2.6-.07l20.4,19.38c.74.7.77,1.86.07,2.6-.36.38-.85.57-1.33.57Z"/>
    <path class="cls-1" d="m284.67,15.48c-.63,0-1.24-.32-1.58-.9-.52-.87-.23-2,.64-2.52l6.47-3.84c.87-.52,2-.23,2.52.64.52.87.23,2-.64,2.52l-6.47,3.84c-.29.17-.62.26-.94.26Z"/>
    <path class="cls-1" d="m49.76,62.67c-.87,0-1.65-.62-1.81-1.51-.18-1,.49-1.95,1.48-2.13l14.33-2.56c1.01-.18,1.95.49,2.13,1.48.18,1-.49,1.95-1.48,2.13l-14.33,2.56c-.11.02-.22.03-.32.03Z"/>
    <path class="cls-1" d="m299.46,503.66c-.9,0-1.69-.67-1.82-1.59l-3.17-23.32c-.14-1.01.57-1.93,1.57-2.07,1.01-.14,1.93.57,2.07,1.57l3.17,23.32c.14,1.01-.57,1.93-1.57,2.07-.08.01-.17.02-.25.02Z"/>
    <path class="cls-1" d="m43.2,20.76c-.63,0-1.24-.32-1.59-.91l-4.22-7.18c-.51-.87-.22-2,.65-2.51.88-.51,2-.22,2.51.65l4.22,7.18c.51.87.22,2-.65,2.51-.29.17-.61.25-.93.25Z"/>
    <path class="cls-1" d="m62.98,471.65c-.86,0-1.62-.6-1.8-1.47l-4.32-21.38c-.2-.99.44-1.96,1.44-2.16,1-.2,1.96.44,2.16,1.44l4.32,21.38c.2.99-.44,1.96-1.44,2.16-.12.02-.25.04-.37.04Z"/>
    <path class="cls-1" d="m189.5,419.65c-.28,0-.55-.06-.82-.19-.91-.45-1.28-1.55-.82-2.46l3.99-7.99c.45-.91,1.55-1.28,2.46-.82.91.45,1.28,1.55.82,2.46l-3.99,7.99c-.32.64-.97,1.02-1.64,1.02Z"/>
    <path class="cls-1" d="m278.94,175.86c-.51,0-1.02-.21-1.38-.62l-7.59-8.63c-.67-.76-.6-1.92.17-2.59.76-.67,1.92-.6,2.59.17l7.59,8.63c.67.76.6,1.92-.17,2.59-.35.31-.78.46-1.21.46Z"/>
    <path class="cls-1" d="m272.24,136.36c-.62,0-1.22-.31-1.57-.88l-3.16-5.17c-.53-.87-.26-1.99.61-2.52.86-.53,1.99-.26,2.52.61l3.16,5.17c.53.87.26,1.99-.61,2.52-.3.18-.63.27-.96.27Z"/>
    <path class="cls-1" d="m419.66,65.22c-.08,0-.16,0-.24-.02l-15.14-2.01c-1.01-.13-1.71-1.06-1.58-2.06.13-1.01,1.07-1.71,2.06-1.58l15.14,2.01c1,.13,1.71,1.06,1.58,2.06-.12.92-.91,1.6-1.82,1.6Z"/>
    <path class="cls-1" d="m140.76,51.09c-.7,0-1.37-.41-1.68-1.09l-11.33-25.44c-.41-.93,0-2.01.93-2.42.93-.41,2.01,0,2.42.93l11.33,25.44c.41.93,0,2.01-.93,2.42-.24.11-.5.16-.75.16Z"/>
    <path class="cls-1" d="m10.56,341c-.95,0-1.75-.73-1.83-1.69l-1.13-14.01c-.08-1.01.67-1.9,1.68-1.98,1.01-.1,1.9.67,1.98,1.68l1.13,14.01c.08,1.01-.67,1.9-1.68,1.98-.05,0-.1,0-.15,0Z"/>
    <path class="cls-1" d="m146.04,178c-.66,0-1.3-.36-1.63-.99l-7.59-14.53c-.47-.9-.12-2.01.78-2.48.89-.47,2.01-.12,2.48.78l7.59,14.53c.47.9.12,2.01-.78,2.48-.27.14-.56.21-.85.21Z"/>
    <path class="cls-1" d="m324.59,80.03c-.58,0-1.15-.27-1.51-.78-.58-.83-.38-1.98.45-2.56l19.74-13.84c.83-.58,1.98-.38,2.56.45.58.83.38,1.98-.45,2.56l-19.74,13.84c-.32.22-.69.33-1.05.33Z"/>
    <path class="cls-1" d="m65.12,413.17c-.34,0-.69-.1-1-.3l-18.8-12.2c-.85-.55-1.09-1.69-.54-2.54.55-.85,1.69-1.09,2.54-.54l18.8,12.2c.85.55,1.09,1.69.54,2.54-.35.54-.94.84-1.54.84Z"/>
    <path class="cls-1" d="m12.96,502.62c-.09,0-.19,0-.29-.02-1-.16-1.69-1.1-1.53-2.1l3.32-21.11c.16-1,1.1-1.68,2.1-1.53,1,.16,1.69,1.1,1.53,2.1l-3.32,21.11c-.14.9-.92,1.55-1.81,1.55Z"/>
    <path class="cls-1" d="m158.79,293.01c-.8,0-1.54-.53-1.77-1.34l-1.43-5.14c-.27-.98.3-1.99,1.28-2.26.98-.27,1.99.3,2.26,1.28l1.43,5.14c.27.98-.3,1.99-1.28,2.26-.16.05-.33.07-.49.07Z"/>
    <path class="cls-1" d="m101.06,192.84c-.43,0-.86-.15-1.21-.45-.76-.67-.84-1.83-.17-2.59l3.15-3.59c.67-.76,1.83-.84,2.59-.17.76.67.84,1.83.17,2.59l-3.15,3.59c-.36.41-.87.63-1.38.63Z"/>
    <path class="cls-1" d="m187.76,103.54c-.31,0-.62-.08-.91-.24-.88-.5-1.18-1.63-.68-2.51l6.89-12c.5-.88,1.62-1.19,2.51-.68.88.5,1.18,1.63.68,2.51l-6.89,12c-.34.59-.96.92-1.59.92Z"/>
    <path class="cls-1" d="m266.15,343.56c-.61,0-1.21-.3-1.55-.86l-5.72-9.07c-.54-.86-.28-1.99.57-2.53.86-.54,1.99-.28,2.53.57l5.72,9.07c.54.86.28,1.99-.57,2.53-.3.19-.64.28-.98.28Z"/>
    <path class="cls-1" d="m474.87,19.38c-.86,0-1.63-.61-1.8-1.48-.19-.99.45-1.96,1.45-2.15l23.47-4.59c1-.2,1.96.46,2.15,1.45.19,1-.45,1.96-1.45,2.15l-23.47,4.59c-.12.02-.24.03-.35.03Z"/>
    <path class="cls-1" d="m135.11,216.55c-.12,0-.24-.01-.36-.04l-6.24-1.24c-1-.2-1.64-1.16-1.44-2.16.2-.99,1.16-1.65,2.16-1.44l6.24,1.24c1,.2,1.64,1.16,1.44,2.16-.17.87-.94,1.48-1.8,1.48Z"/>
    <path class="cls-1" d="m115.22,127.37c-.62,0-1.23-.32-1.58-.89l-6.86-11.46c-.52-.87-.24-2,.63-2.52.87-.52,2-.24,2.52.63l6.86,11.46c.52.87.24,2-.63,2.52-.3.18-.62.26-.94.26Z"/>
    <path class="cls-1" d="m16.68,85.01c-.15,0-.31-.02-.46-.06l-7.71-2c-.98-.25-1.57-1.26-1.32-2.24s1.26-1.57,2.24-1.32l7.71,2c.98.25,1.57,1.26,1.32,2.24-.21.83-.96,1.38-1.78,1.38Z"/>
    <path class="cls-1" d="m498.54,297.62c-.07,0-.14,0-.21-.01l-5.66-.66c-1.01-.12-1.73-1.03-1.61-2.03.12-1.01,1.04-1.73,2.03-1.61l5.66.66c1.01.12,1.73,1.03,1.61,2.03-.11.94-.9,1.63-1.82,1.63Z"/>
    <path class="cls-1" d="m471.92,267.27c-.15,0-.3-.02-.45-.06l-8.7-2.2c-.98-.25-1.58-1.25-1.33-2.23.25-.98,1.25-1.58,2.23-1.33l8.7,2.2c.98.25,1.58,1.25,1.33,2.23-.21.83-.96,1.39-1.78,1.39Z"/>
    <path class="cls-1" d="m298.26,394.58c-.93,0-1.72-.7-1.82-1.64l-1.79-17c-.11-1.01.63-1.91,1.63-2.02,1-.1,1.91.63,2.02,1.63l1.79,17c.11,1.01-.63,1.91-1.63,2.02-.07,0-.13,0-.19,0Z"/>
    <path class="cls-1" d="m400.26,172.04c-.82,0-1.57-.56-1.78-1.39l-6.43-25.76c-.25-.98.35-1.98,1.34-2.23.97-.24,1.98.35,2.23,1.34l6.43,25.76c.25.98-.35,1.98-1.34,2.23-.15.04-.3.05-.45.05Z"/>
    <path class="cls-1" d="m342.72,502.58h-.04l-7.88-.16c-1.01-.02-1.82-.86-1.8-1.87.02-1.01.86-1.78,1.87-1.8l7.87.16c1.01.02,1.82.86,1.8,1.87-.02,1-.84,1.8-1.84,1.8Z"/>
  </g>
</svg>