<?xml version="1.0" encoding="UTF-8"?>
<svg id="PATTERN" xmlns="http://www.w3.org/2000/svg" viewBox="0 0 502.48 502.1">
  <defs>
    <style>
      .cls-1 {
        fill: #fff;
      }

      .cls-2 {
        fill: #72a7ff;
      }
    </style>
  </defs>
  <rect class="cls-2" x="-7.26" y="-5.85" width="517.27" height="519.7"/>
  <g>
    <path class="cls-1" d="m213.5,450.21c-.97,0-1.76-.78-1.77-1.76l-.15-22.1c0-.47.18-.92.51-1.25.33-.33.78-.52,1.25-.53l22.09-.15h.01c.97,0,1.76.78,1.77,1.76,0,.98-.78,1.77-1.76,1.78l-20.33.14.14,20.33c0,.98-.78,1.77-1.76,1.78h-.01Z"/>
    <path class="cls-1" d="m166.41,233.88c-.74,0-1.43-.47-1.68-1.22-.31-.93.2-1.93,1.13-2.23l5.57-1.83-1.83-5.57c-.31-.93.2-1.93,1.13-2.23.93-.31,1.93.2,2.23,1.13l2.39,7.25c.31.93-.2,1.93-1.13,2.23l-7.25,2.39c-.18.06-.37.09-.55.09Z"/>
    <path class="cls-1" d="m108.99,450.29c-.14,0-.29-.02-.44-.06-.95-.24-1.52-1.21-1.27-2.15l1.9-7.39c.12-.45.41-.84.81-1.08.4-.24.89-.31,1.34-.19l7.39,1.9c.95.24,1.52,1.21,1.27,2.15-.24.95-1.21,1.52-2.15,1.27l-5.68-1.46-1.46,5.68c-.21.8-.92,1.33-1.71,1.33Z"/>
    <path class="cls-1" d="m336.4,466.87c-.84,0-1.59-.61-1.74-1.47l-2.11-12.25-12.25,2.11c-.96.17-1.88-.48-2.04-1.44-.17-.96.48-1.88,1.44-2.04l14-2.41c.96-.17,1.88.48,2.04,1.44l2.41,14c.17.96-.48,1.88-1.44,2.04-.1.02-.2.03-.3.03Z"/>
    <path class="cls-1" d="m426.33,288.54c-.86,0-1.61-.63-1.74-1.5l-.84-5.55-5.55.83c-.96.15-1.86-.52-2.01-1.48-.15-.97.52-1.87,1.48-2.01l7.3-1.1c.97-.15,1.86.52,2.01,1.48l1.1,7.3c.14.97-.52,1.87-1.48,2.01-.09.01-.18.02-.27.02Z"/>
    <path class="cls-1" d="m64.9,208.89c-.8,0-1.52-.54-1.72-1.35l-1.13-4.7-4.7,1.13c-.94.23-1.9-.35-2.13-1.3-.23-.95.36-1.9,1.3-2.13l6.42-1.54c.95-.23,1.9.36,2.13,1.3l1.54,6.42c.23.95-.36,1.9-1.3,2.13-.14.03-.28.05-.41.05Z"/>
    <path class="cls-1" d="m369.88,31.37c-.81,0-1.55-.56-1.72-1.39l-2.15-9.88c-.1-.46-.01-.94.24-1.33.25-.39.65-.67,1.11-.77l9.88-2.14c.95-.21,1.9.4,2.1,1.35.21.95-.4,1.89-1.35,2.1l-8.15,1.77,1.77,8.15c.21.95-.4,1.9-1.35,2.1-.13.03-.25.04-.38.04Z"/>
    <path class="cls-1" d="m272.11,261.3s-.03,0-.05,0c-.98-.03-1.75-.84-1.72-1.81l.14-5.37-5.37-.14c-.98-.03-1.75-.84-1.72-1.81.03-.98.85-1.79,1.81-1.72l7.14.19c.98.03,1.75.84,1.72,1.81l-.19,7.14c-.02.96-.81,1.72-1.77,1.72Z"/>
    <path class="cls-1" d="m74.31,293.12c-.2,0-.39-.03-.59-.1-.92-.32-1.4-1.33-1.08-2.25l5.75-16.31c.16-.44.48-.8.9-1.01.42-.2.91-.23,1.35-.07l16.31,5.75c.92.32,1.4,1.33,1.08,2.25-.32.92-1.33,1.4-2.25,1.08l-14.64-5.16-5.16,14.64c-.26.73-.94,1.18-1.67,1.18Z"/>
    <path class="cls-1" d="m233.8,60.23c-.12,0-.24-.01-.37-.04-.96-.2-1.57-1.14-1.36-2.09l4.88-23.11-23.11-4.88c-.95-.2-1.57-1.14-1.36-2.09.2-.95,1.14-1.56,2.09-1.36l24.84,5.24c.46.1.86.37,1.12.76.26.39.35.87.25,1.33l-5.24,24.84c-.18.83-.91,1.4-1.73,1.4Z"/>
    <path class="cls-1" d="m467.22,203.77c-.1,0-.21,0-.31-.03l-7.34-1.3c-.46-.08-.87-.34-1.14-.73-.27-.38-.37-.86-.29-1.32l1.3-7.34c.17-.96,1.08-1.6,2.05-1.43.96.17,1.6,1.09,1.43,2.05l-.99,5.6,5.6.99c.96.17,1.6,1.09,1.43,2.05-.15.86-.9,1.46-1.74,1.46Z"/>
    <path class="cls-1" d="m208.05,222.13c-.33,0-.66-.09-.95-.28l-3.72-2.39c-.82-.53-1.06-1.62-.53-2.44.53-.82,1.62-1.06,2.44-.53l2.23,1.43,1.43-2.23c.53-.82,1.62-1.06,2.44-.53.82.53,1.06,1.62.53,2.44l-2.39,3.71c-.34.53-.91.81-1.49.81Z"/>
    <path class="cls-1" d="m452.67,123.8c-.4,0-.79-.13-1.12-.4-.75-.62-.86-1.74-.24-2.49l3.64-4.4c.3-.36.73-.59,1.2-.63.48-.04.93.1,1.29.4l4.4,3.64c.75.62.86,1.74.24,2.49-.62.75-1.74.86-2.49.24l-3.04-2.51-2.51,3.04c-.35.42-.85.64-1.36.64Z"/>
    <path class="cls-1" d="m131.58,343.49c-.5,0-1-.21-1.35-.63-.63-.75-.54-1.86.21-2.49l2.58-2.18-2.18-2.58c-.63-.74-.54-1.86.21-2.49.74-.63,1.86-.54,2.49.21l3.32,3.93c.63.74.54,1.86-.21,2.49l-3.93,3.32c-.33.28-.74.42-1.14.42Z"/>
    <path class="cls-1" d="m467.71,240.96s-.06,0-.09,0c-.97-.05-1.72-.88-1.67-1.86l.14-2.73-2.73-.14c-.97-.05-1.72-.88-1.67-1.86.05-.98.89-1.73,1.86-1.67l4.5.24c.97.05,1.72.88,1.67,1.86l-.24,4.5c-.05.94-.83,1.67-1.76,1.67Z"/>
    <path class="cls-1" d="m464.9,379.28c-.36,0-.72-.11-1.03-.33l-13.25-9.57c-.38-.27-.64-.69-.71-1.15-.07-.46.04-.94.31-1.32l9.57-13.25c.57-.79,1.68-.97,2.47-.4.79.57.97,1.68.4,2.47l-8.54,11.82,11.82,8.54c.79.57.97,1.68.4,2.47-.35.48-.89.73-1.43.73Z"/>
    <path class="cls-1" d="m264.22,331.34c-.45,0-.9-.17-1.24-.51-.69-.69-.7-1.8-.02-2.5l8.95-9.06c.69-.7,1.81-.7,2.5-.02l9.06,8.95c.69.69.7,1.81.02,2.5-.69.69-1.81.7-2.5.02l-7.81-7.71-7.71,7.81c-.35.35-.8.53-1.26.53Z"/>
    <path class="cls-1" d="m45.61,82.25c-.23,0-.46-.04-.68-.14-.9-.38-1.33-1.41-.95-2.31l3.3-7.92-7.91-3.29c-.9-.38-1.33-1.41-.95-2.31.38-.9,1.41-1.33,2.31-.95l9.55,3.97c.9.38,1.33,1.41.95,2.31l-3.97,9.55c-.28.68-.94,1.09-1.63,1.09Z"/>
    <path class="cls-1" d="m174.81,49.3c-.59,0-1.17-.3-1.51-.84-.51-.83-.25-1.92.58-2.43l16.5-10.16-10.16-16.51c-.51-.83-.25-1.92.58-2.43.83-.51,1.92-.25,2.43.58l11.09,18.01c.51.83.25,1.92-.58,2.43l-18.01,11.09c-.29.18-.61.26-.93.26Z"/>
    <path class="cls-1" d="m237.96,246.01c-.69,0-1.35-.41-1.63-1.09l-2.37-5.72c-.37-.9.05-1.94.96-2.31l5.72-2.37c.9-.37,1.93.05,2.31.96.37.9-.05,1.94-.96,2.31l-4.09,1.7,1.7,4.09c.37.9-.05,1.94-.96,2.31-.22.09-.45.14-.68.14Z"/>
    <path class="cls-1" d="m408.73,23.22c-.51,0-1.02-.22-1.37-.65l-4.23-5.2c-.62-.76-.5-1.87.25-2.49.76-.62,1.87-.5,2.49.25l3.12,3.83,3.83-3.12c.76-.62,1.87-.5,2.49.25.62.76.5,1.87-.25,2.49l-5.2,4.23c-.33.27-.72.4-1.12.4Z"/>
    <path class="cls-1" d="m440.42,467.18c-.92,0-1.7-.72-1.76-1.65-.06-.97.67-1.81,1.65-1.88l11.13-.73-.73-11.13c-.06-.97.67-1.81,1.65-1.88.95-.08,1.81.67,1.88,1.65l.84,12.9c.03.47-.13.93-.44,1.28-.31.35-.75.57-1.21.6l-12.9.84s-.08,0-.12,0Z"/>
    <path class="cls-1" d="m390.22,407.45c-.3,0-.6-.07-.87-.23-.85-.48-1.14-1.56-.66-2.41l2.78-4.87-4.87-2.78c-.85-.48-1.14-1.56-.66-2.41.48-.85,1.56-1.15,2.41-.66l6.41,3.65c.85.48,1.14,1.56.66,2.41l-3.65,6.41c-.33.57-.92.89-1.54.89Z"/>
    <path class="cls-1" d="m414.25,66.1c-.46,0-.93-.18-1.27-.54l-17.75-18.46c-.68-.7-.65-1.82.05-2.5.71-.67,1.82-.65,2.5.05l16.53,17.19,17.19-16.53c.7-.68,1.82-.65,2.5.05.68.7.65,1.82-.05,2.5l-18.46,17.75c-.34.33-.78.49-1.23.49Z"/>
    <path class="cls-1" d="m453.74,32.87c-.14,0-.28-.02-.42-.05l-13.01-3.19c-.95-.23-1.53-1.19-1.3-2.14l3.19-13.01c.23-.95,1.19-1.53,2.14-1.3.95.23,1.53,1.19,1.3,2.14l-2.77,11.29,11.29,2.77c.95.23,1.53,1.19,1.3,2.14-.2.81-.92,1.35-1.71,1.35Z"/>
    <path class="cls-1" d="m453.9,90.26c-.79,0-1.51-.53-1.71-1.33l-1.94-7.63c-.24-.95.33-1.91,1.28-2.15.95-.24,1.91.33,2.15,1.28l1.5,5.92,5.92-1.5c.95-.24,1.91.33,2.15,1.28.24.95-.33,1.91-1.28,2.15l-7.63,1.94c-.15.04-.29.05-.44.05Z"/>
    <path class="cls-1" d="m250.33,395.47c-.83,0-1.57-.59-1.73-1.43l-4.28-22.32c-.09-.46,0-.94.27-1.33.26-.39.67-.65,1.13-.74l22.32-4.28c.97-.18,1.88.45,2.07,1.4.18.96-.44,1.88-1.4,2.07l-20.58,3.95,3.95,20.58c.18.96-.44,1.88-1.4,2.07-.11.02-.22.03-.33.03Z"/>
    <path class="cls-1" d="m150.25,165.57c-.76,0-1.45-.49-1.69-1.25-.29-.93.24-1.92,1.17-2.21l4.17-1.28-1.28-4.17c-.29-.93.24-1.92,1.17-2.21.93-.29,1.92.23,2.21,1.17l1.8,5.86c.14.45.09.93-.13,1.35-.22.41-.59.72-1.04.86l-5.86,1.8c-.17.05-.35.08-.52.08Z"/>
    <path class="cls-1" d="m169.17,495.28h-.03l-14.03-.24c-.98-.02-1.75-.82-1.74-1.8l.24-14.03c.02-.97.8-1.74,1.77-1.74h.03c.98.02,1.75.82,1.74,1.8l-.21,12.26,12.26.21c.98.02,1.75.82,1.74,1.8-.02.97-.8,1.74-1.77,1.74Z"/>
    <path class="cls-1" d="m482.52,393.1c-.75,0-1.45-.49-1.69-1.24-.29-.93.23-1.92,1.16-2.21l12.14-3.78-3.78-12.14c-.29-.93.23-1.92,1.16-2.21.93-.29,1.92.23,2.21,1.16l4.3,13.83c.29.93-.23,1.92-1.16,2.21l-13.83,4.3c-.17.05-.35.08-.53.08Z"/>
    <path class="cls-1" d="m302.55,191.6c-.09,0-.19,0-.28-.02l-5.1-.82c-.46-.07-.88-.33-1.15-.71-.27-.38-.39-.85-.31-1.32l.82-5.1c.15-.96,1.06-1.63,2.02-1.47.96.15,1.62,1.06,1.47,2.02l-.54,3.35,3.35.54c.96.15,1.62,1.06,1.47,2.02-.14.87-.89,1.49-1.74,1.49Z"/>
    <path class="cls-1" d="m457.64,498.51c-.6,0-1.18-.3-1.51-.85l-2.76-4.54c-.51-.83-.24-1.92.59-2.43.84-.51,1.92-.24,2.43.59l1.84,3.03,3.03-1.84c.84-.51,1.92-.24,2.43.59.51.83.24,1.92-.59,2.43l-4.54,2.76c-.29.17-.6.26-.92.26Z"/>
    <path class="cls-1" d="m177.34,198.74c-.79,0-1.51-.53-1.71-1.33l-3.42-13.45c-.24-.95.33-1.91,1.28-2.15.95-.24,1.91.33,2.15,1.28l2.98,11.74,11.74-2.98c.95-.24,1.91.33,2.15,1.28.24.95-.33,1.91-1.28,2.15l-13.45,3.42c-.15.04-.29.05-.44.05Z"/>
    <path class="cls-1" d="m414.29,458.94c-.81,0-1.54-.56-1.72-1.39l-1.12-5.09-5.09,1.12c-.95.21-1.9-.39-2.11-1.35-.21-.95.39-1.9,1.35-2.11l6.81-1.5c.95-.21,1.9.39,2.11,1.35l1.5,6.81c.21.95-.39,1.9-1.35,2.11-.13.03-.26.04-.38.04Z"/>
    <path class="cls-1" d="m214.52,261.57c-.13,0-.25-.01-.38-.04l-7.22-1.59c-.95-.21-1.56-1.15-1.34-2.11l1.59-7.22c.21-.95,1.15-1.56,2.11-1.34.95.21,1.56,1.15,1.34,2.11l-1.21,5.49,5.49,1.21c.95.21,1.55,1.15,1.34,2.11-.18.82-.91,1.39-1.72,1.39Z"/>
    <path class="cls-1" d="m184.57,460.47c-.75,0-1.45-.49-1.69-1.24l-4.48-14.33-14.33,4.48c-.93.29-1.92-.23-2.21-1.16-.29-.93.23-1.92,1.16-2.21l16.01-5c.93-.29,1.92.23,2.21,1.16l5,16.01c.29.93-.23,1.92-1.16,2.21-.18.05-.35.08-.53.08Z"/>
    <path class="cls-1" d="m19.02,205.93c-.64,0-1.26-.35-1.58-.96-.44-.87-.1-1.93.77-2.38l2.98-1.52-1.52-2.97c-.44-.87-.1-1.93.77-2.38.87-.45,1.93-.1,2.38.77l2.32,4.55c.44.87.1,1.93-.77,2.38l-4.55,2.32c-.26.13-.53.19-.8.19Z"/>
    <path class="cls-1" d="m248.66,299.8c-.58,0-1.16-.29-1.49-.82l-8.29-13.03c-.52-.82-.28-1.92.54-2.44l13.03-8.29c.82-.53,1.92-.28,2.44.54.52.82.28,1.92-.54,2.44l-11.54,7.34,7.34,11.54c.52.82.28,1.92-.54,2.44-.29.19-.62.28-.95.28Z"/>
    <path class="cls-1" d="m343.55,72.93c-.21,0-.43-.04-.64-.12-.91-.35-1.36-1.38-1.01-2.29l8.15-21.06-21.06-8.15c-.91-.35-1.36-1.38-1.01-2.29.35-.91,1.38-1.36,2.29-1.01l22.71,8.79c.91.35,1.36,1.38,1.01,2.29l-8.79,22.71c-.27.7-.94,1.13-1.65,1.13Z"/>
    <path class="cls-1" d="m493.94,223.41c-.16,0-.32-.02-.48-.07-.94-.27-1.48-1.24-1.22-2.18l.74-2.61-2.61-.74c-.94-.27-1.48-1.24-1.22-2.18.27-.94,1.24-1.48,2.18-1.22l4.31,1.22c.45.13.83.43,1.06.84.23.41.28.89.16,1.34l-1.23,4.31c-.22.78-.93,1.28-1.7,1.28Z"/>
    <path class="cls-1" d="m149.04,429.32c-.29,0-.58-.07-.85-.22l-9.41-5.18c-.86-.47-1.17-1.55-.7-2.4.47-.86,1.55-1.17,2.4-.7l7.86,4.33,4.33-7.87c.47-.86,1.55-1.17,2.4-.7.86.47,1.17,1.55.7,2.4l-5.18,9.41c-.32.58-.93.92-1.55.92Z"/>
    <path class="cls-1" d="m15.48,275.72c-.46,0-.93-.18-1.27-.54-.68-.7-.65-1.82.05-2.5l2.24-2.15-2.15-2.24c-.68-.7-.66-1.82.05-2.5.7-.68,1.82-.66,2.5.05l3.38,3.51c.33.34.5.79.49,1.26,0,.47-.2.91-.54,1.24l-3.51,3.38c-.34.33-.78.49-1.23.49Z"/>
    <path class="cls-1" d="m400.27,251.88c-.4,0-.79-.13-1.1-.38l-10.57-8.4c-.76-.61-.89-1.72-.28-2.48.61-.76,1.72-.89,2.48-.28l9.19,7.3,7.3-9.18c.61-.76,1.72-.89,2.48-.28.76.61.89,1.72.28,2.48l-8.4,10.57c-.29.37-.72.6-1.18.66-.07,0-.13.01-.2.01Z"/>
    <path class="cls-1" d="m141.19,261.82c-.33,0-.66-.09-.96-.29l-14.1-9.17c-.82-.53-1.05-1.63-.52-2.45l9.17-14.1c.53-.82,1.63-1.05,2.45-.52.82.53,1.05,1.63.52,2.45l-8.21,12.62,12.62,8.21c.82.53,1.05,1.63.52,2.45-.34.52-.91.8-1.48.8Z"/>
    <path class="cls-1" d="m42.93,134.29c-.22,0-.44-.04-.65-.13l-16.34-6.51c-.44-.17-.78-.51-.97-.94-.19-.43-.19-.92-.02-1.35l6.51-16.34c.36-.91,1.39-1.35,2.3-.99.91.36,1.35,1.39.99,2.3l-5.86,14.7,14.7,5.86c.91.36,1.35,1.39.99,2.3-.28.69-.94,1.11-1.64,1.11Z"/>
    <path class="cls-1" d="m157.28,26.42c-.26,0-.53-.06-.78-.18-.88-.43-1.23-1.49-.8-2.37l2.05-4.15-4.15-2.05c-.88-.43-1.23-1.49-.8-2.37.43-.88,1.49-1.24,2.37-.8l5.73,2.84c.88.43,1.23,1.49.8,2.37l-2.84,5.73c-.31.62-.93.98-1.59.98Z"/>
    <path class="cls-1" d="m110.51,495.88c-.21,0-.43-.04-.64-.12-.91-.36-1.36-1.38-1-2.29l2.92-7.46-7.46-2.91c-.91-.36-1.36-1.38-1-2.29.35-.91,1.38-1.36,2.29-1l9.11,3.56c.91.36,1.36,1.38,1,2.29l-3.56,9.11c-.27.7-.94,1.12-1.65,1.13Z"/>
    <path class="cls-1" d="m489.07,496.15c-.36,0-.72-.11-1.03-.33-.79-.57-.97-1.67-.4-2.47l2.07-2.87-2.87-2.07c-.79-.57-.97-1.67-.4-2.47.57-.79,1.67-.97,2.47-.4l4.31,3.1c.79.57.97,1.67.4,2.47l-3.1,4.31c-.35.48-.89.74-1.44.74Z"/>
    <path class="cls-1" d="m496.52,353.3c-.51,0-1.02-.22-1.37-.65l-10.93-13.3c-.62-.75-.51-1.87.24-2.49l13.3-10.93c.75-.62,1.87-.51,2.49.24.62.75.51,1.87-.24,2.49l-11.93,9.8,9.8,11.93c.62.75.51,1.87-.24,2.49-.33.27-.73.4-1.12.4Z"/>
    <path class="cls-1" d="m135.29,389.56c-.68,0-1.33-.4-1.62-1.07l-3.41-7.86c-.39-.9.02-1.94.92-2.32l7.86-3.41c.89-.39,1.94.02,2.32.92.39.9-.02,1.94-.92,2.32l-6.24,2.7,2.7,6.24c.39.9-.02,1.94-.92,2.32-.23.1-.47.15-.7.15Z"/>
    <path class="cls-1" d="m405.82,344.26c-.37,0-.74-.12-1.06-.36-.78-.59-.93-1.7-.35-2.48l2.8-3.72c.59-.78,1.69-.94,2.47-.35l3.72,2.8c.78.59.93,1.7.35,2.47-.59.78-1.7.94-2.47.35l-2.31-1.74-1.74,2.31c-.35.46-.88.7-1.41.7Z"/>
    <path class="cls-1" d="m32.06,296.06c-.38,0-.75-.12-1.07-.36-.78-.59-.92-1.7-.33-2.48l3.48-4.55c.28-.37.71-.62,1.17-.68.46-.06.93.06,1.31.35l4.55,3.48c.77.59.92,1.7.33,2.48-.59.77-1.7.92-2.48.33l-3.15-2.41-2.41,3.15c-.35.45-.87.69-1.4.69Z"/>
    <path class="cls-1" d="m492.69,105.18c-.5,0-1.01-.21-1.36-.63l-3.53-4.21c-.63-.75-.53-1.86.22-2.49l4.21-3.53c.75-.63,1.86-.53,2.49.22.63.75.53,1.86-.22,2.49l-2.86,2.39,2.39,2.86c.63.75.53,1.86-.22,2.49-.33.28-.73.41-1.13.41Z"/>
    <path class="cls-1" d="m91.66,30.16c-.2,0-.4-.03-.59-.1-.92-.33-1.4-1.34-1.07-2.26l1.9-5.32-5.32-1.9c-.92-.33-1.4-1.34-1.07-2.26.33-.92,1.33-1.4,2.26-1.07l6.98,2.49c.44.16.8.48,1,.91.2.42.23.91.07,1.35l-2.49,6.98c-.26.72-.94,1.17-1.66,1.17Z"/>
    <path class="cls-1" d="m98.26,124.75c-.09,0-.18,0-.28-.02l-19.32-3.05c-.96-.15-1.62-1.06-1.47-2.02.15-.96,1.06-1.62,2.02-1.47l17.57,2.78,2.78-17.57c.15-.96,1.05-1.62,2.02-1.47.96.15,1.62,1.06,1.47,2.02l-3.05,19.32c-.07.46-.33.88-.71,1.15-.3.22-.67.34-1.04.34Z"/>
    <path class="cls-1" d="m491.13,188.62c-.28,0-.57-.07-.84-.21l-10.64-5.79c-.86-.47-1.18-1.54-.71-2.4.47-.86,1.54-1.17,2.4-.71l9.09,4.94,4.94-9.08c.47-.86,1.54-1.18,2.4-.71.86.47,1.18,1.54.71,2.4l-5.79,10.64c-.32.59-.93.92-1.55.92Z"/>
    <path class="cls-1" d="m331.14,220.51s-.09,0-.14,0c-.97-.08-1.7-.93-1.62-1.9l.81-10.35c.08-.97.93-1.69,1.9-1.62l10.35.81c.97.08,1.7.93,1.62,1.9-.08.97-.93,1.7-1.9,1.62l-8.58-.68-.67,8.58c-.07.93-.85,1.63-1.76,1.63Z"/>
    <path class="cls-1" d="m278.61,425.71s-.07,0-.1,0l-10.34-.6c-.97-.06-1.72-.89-1.66-1.87.06-.97.87-1.7,1.87-1.66l8.57.5.5-8.58c.06-.97.88-1.7,1.87-1.66.97.06,1.72.89,1.66,1.87l-.6,10.34c-.06.94-.83,1.66-1.76,1.66Z"/>
    <path class="cls-1" d="m38.35,249.6c-.23,0-.45-.04-.66-.13-.43-.18-.78-.52-.96-.95l-8.28-19.57c-.38-.9.04-1.94.94-2.32.9-.38,1.94.04,2.32.94l7.59,17.95,17.95-7.59c.9-.38,1.94.04,2.32.94.38.9-.04,1.94-.94,2.32l-19.57,8.28c-.22.09-.45.14-.69.14Z"/>
    <path class="cls-1" d="m292.88,237.15c-.63,0-1.23-.33-1.55-.92-.47-.86-.15-1.93.71-2.4l10.41-5.67-5.67-10.41c-.47-.86-.15-1.93.71-2.4.86-.46,1.93-.15,2.4.71l6.51,11.97c.47.86.15,1.93-.71,2.4l-11.97,6.51c-.27.15-.56.21-.84.21Z"/>
    <path class="cls-1" d="m182.04,359.51c-.13,0-.27-.01-.41-.05l-15.57-3.65c-.46-.11-.85-.39-1.1-.79-.25-.4-.33-.88-.22-1.33l3.65-15.57c.22-.95,1.18-1.54,2.12-1.32.95.22,1.54,1.17,1.32,2.12l-3.25,13.85,13.85,3.25c.95.22,1.54,1.17,1.32,2.12-.19.81-.92,1.36-1.72,1.36Z"/>
    <path class="cls-1" d="m479.18,24.31c-.72,0-1.4-.45-1.66-1.17l-4.81-13.33c-.33-.92.14-1.93,1.06-2.26.92-.33,1.93.14,2.26,1.06l4.21,11.67,11.67-4.21c.92-.33,1.93.15,2.26,1.06.33.92-.15,1.93-1.06,2.26l-13.33,4.81c-.2.07-.4.11-.6.11Z"/>
    <path class="cls-1" d="m273.42,113.52c-.82,0-1.55-.57-1.73-1.4l-4.87-22.67c-.21-.95.4-1.89,1.36-2.1l22.67-4.87c.96-.2,1.9.4,2.1,1.36.21.95-.4,1.89-1.36,2.1l-20.95,4.5,4.5,20.95c.21.95-.4,1.89-1.36,2.1-.13.03-.25.04-.37.04Z"/>
    <path class="cls-1" d="m144.54,313.06c-.58,0-1.15-.29-1.49-.81l-9.1-14.12c-.25-.39-.34-.87-.24-1.33s.38-.86.77-1.11l14.12-9.1c.82-.53,1.91-.29,2.44.53.53.82.29,1.91-.53,2.44l-12.64,8.14,8.14,12.64c.53.82.29,1.91-.53,2.44-.3.19-.63.28-.96.28Z"/>
    <path class="cls-1" d="m23.61,493.38c-.44,0-.88-.16-1.22-.49-.71-.67-.73-1.79-.06-2.5l11.38-11.92c.67-.71,1.79-.73,2.5-.06l11.92,11.38c.71.67.73,1.79.06,2.5-.67.71-1.79.73-2.5.06l-10.65-10.16-10.16,10.65c-.35.36-.81.55-1.28.55Z"/>
    <path class="cls-1" d="m334.4,302.44c-.95,0-1.74-.76-1.77-1.72l-.16-5.68c-.03-.98.74-1.79,1.72-1.82l5.68-.16c.98-.05,1.79.74,1.82,1.72.03.98-.74,1.79-1.72,1.82l-3.91.11.11,3.91c.03.98-.74,1.79-1.72,1.82-.02,0-.03,0-.05,0Z"/>
    <path class="cls-1" d="m394.74,323.66c-.17,0-.35-.03-.53-.08-.93-.29-1.45-1.28-1.16-2.21l4.78-15.35c.14-.45.45-.82.87-1.04.41-.22.9-.26,1.35-.12l15.35,4.78c.93.29,1.45,1.28,1.16,2.21-.29.93-1.29,1.45-2.21,1.16l-13.67-4.26-4.26,13.67c-.24.76-.93,1.24-1.69,1.24Z"/>
    <path class="cls-1" d="m441.02,223.69c-.18,0-.37-.03-.55-.09l-20.36-6.65c-.45-.15-.81-.46-1.03-.88s-.25-.9-.1-1.35l6.65-20.36c.3-.93,1.3-1.44,2.23-1.13.93.3,1.43,1.3,1.13,2.23l-6.1,18.68,18.68,6.1c.93.3,1.43,1.3,1.13,2.23-.24.75-.94,1.22-1.68,1.22Z"/>
    <path class="cls-1" d="m322.99,264.68c-.38,0-.77-.12-1.09-.38-.77-.6-.9-1.72-.29-2.48l7.03-8.91c.6-.77,1.71-.9,2.48-.29l8.91,7.03c.77.6.9,1.72.29,2.48-.6.77-1.72.9-2.48.29l-7.53-5.93-5.93,7.53c-.35.44-.87.67-1.39.67Z"/>
    <path class="cls-1" d="m79.69,179.58c-.12,0-.25-.01-.37-.04-.95-.2-1.56-1.14-1.36-2.1l3.61-16.8-16.8-3.61c-.95-.2-1.56-1.14-1.36-2.1.2-.96,1.15-1.56,2.1-1.36l18.53,3.98c.95.2,1.56,1.14,1.36,2.1l-3.98,18.53c-.18.83-.91,1.4-1.73,1.4Z"/>
    <path class="cls-1" d="m224.2,347.75c-.14,0-.27-.02-.41-.05l-19.99-4.77c-.95-.23-1.54-1.18-1.31-2.13.23-.95,1.18-1.53,2.13-1.31l18.28,4.36,4.36-18.28c.23-.95,1.18-1.53,2.13-1.31.95.23,1.54,1.18,1.31,2.13l-4.77,19.99c-.19.81-.92,1.36-1.72,1.36Z"/>
    <path class="cls-1" d="m213.21,75.04c-.72,0-1.4-.44-1.66-1.16l-2.16-5.89-5.89,2.16c-.91.34-1.93-.13-2.27-1.05-.34-.92.13-1.93,1.05-2.27l7.55-2.77c.44-.16.93-.14,1.35.05.43.2.76.55.92,1l2.77,7.55c.34.92-.13,1.93-1.05,2.27-.2.07-.41.11-.61.11Z"/>
    <path class="cls-1" d="m239,195.77c-.12,0-.24-.01-.35-.04l-18.41-3.76c-.46-.09-.86-.37-1.12-.76-.26-.39-.35-.87-.26-1.33l3.76-18.41c.19-.96,1.13-1.57,2.08-1.38.96.19,1.57,1.13,1.38,2.08l-3.4,16.68,16.68,3.4c.96.19,1.57,1.13,1.38,2.08-.17.84-.91,1.41-1.73,1.41Z"/>
    <path class="cls-1" d="m443.68,339.29c-.08,0-.17,0-.25-.02-.97-.14-1.64-1.03-1.5-2l3.35-23.32c.14-.97,1.03-1.63,2-1.5l23.32,3.35c.97.14,1.64,1.03,1.5,2-.14.97-1.03,1.63-2,1.5l-21.57-3.1-3.1,21.57c-.13.88-.88,1.52-1.75,1.52Z"/>
    <path class="cls-1" d="m33.57,177.67c-.75,0-1.45-.48-1.69-1.24l-3.02-9.61-9.61,3.02c-.93.29-1.92-.22-2.22-1.16-.29-.93.22-1.92,1.16-2.22l11.3-3.55c.93-.29,1.92.22,2.22,1.16l3.55,11.3c.29.93-.22,1.92-1.16,2.22-.18.06-.36.08-.53.08Z"/>
    <path class="cls-1" d="m313.7,125.13c-.55,0-1.08-.25-1.43-.73-.57-.79-.4-1.9.39-2.47l3.34-2.43-2.43-3.34c-.57-.79-.4-1.89.39-2.47.79-.57,1.89-.4,2.47.39l3.47,4.76c.28.38.39.85.32,1.32-.07.46-.33.88-.7,1.15l-4.77,3.47c-.31.23-.68.34-1.04.34Z"/>
    <path class="cls-1" d="m200.87,161.57c-.6,0-1.18-.3-1.51-.85l-10.09-16.53c-.24-.4-.32-.88-.21-1.34.11-.46.4-.85.8-1.09l16.53-10.09c.83-.51,1.92-.24,2.43.59.51.83.25,1.92-.59,2.43l-15.02,9.17,9.17,15.02c.51.83.25,1.92-.59,2.43-.29.18-.6.26-.92.26Z"/>
    <path class="cls-1" d="m298.91,299.38c-.44,0-.89-.16-1.23-.5l-10.7-10.35c-.7-.68-.72-1.8-.04-2.5l10.35-10.7c.68-.7,1.8-.72,2.5-.04.7.68.72,1.8.04,2.5l-9.12,9.43,9.43,9.12c.7.68.72,1.8.04,2.5-.35.36-.81.54-1.27.54Z"/>
    <path class="cls-1" d="m421.23,116.37c-.29,0-.57-.07-.83-.21l-17.39-9.29c-.86-.46-1.19-1.53-.73-2.39.46-.86,1.53-1.19,2.39-.73l15.84,8.46,8.46-15.84c.46-.86,1.53-1.19,2.39-.73.86.46,1.19,1.53.73,2.39l-9.29,17.39c-.22.41-.6.72-1.05.86-.17.05-.34.08-.51.08Z"/>
    <path class="cls-1" d="m99.65,413.16c-.11,0-.22,0-.33-.03-.96-.18-1.59-1.1-1.41-2.06l1.36-7.27c.09-.46.35-.87.74-1.13.39-.26.87-.36,1.32-.28l7.27,1.36c.96.18,1.59,1.1,1.41,2.06-.18.96-1.1,1.59-2.06,1.41l-5.53-1.04-1.04,5.53c-.16.85-.9,1.44-1.74,1.44Z"/>
    <path class="cls-1" d="m442.09,428.58c-.32,0-.65-.09-.95-.28l-19.91-12.67c-.82-.52-1.07-1.62-.54-2.44l12.67-19.91c.52-.82,1.62-1.07,2.44-.54.82.52,1.07,1.62.54,2.44l-11.72,18.42,18.42,11.72c.82.52,1.07,1.62.54,2.44-.34.53-.91.82-1.49.82Z"/>
    <path class="cls-1" d="m319.04,170.48c-.4,0-.8-.13-1.13-.41l-10.15-8.45c-.75-.62-.85-1.74-.23-2.49l8.45-10.15c.62-.75,1.74-.85,2.49-.23.75.62.85,1.74.23,2.49l-7.32,8.79,8.79,7.32c.75.62.85,1.74.23,2.49-.35.42-.85.64-1.36.64Z"/>
    <path class="cls-1" d="m492.74,259.48c-.73,0-1.41-.45-1.67-1.18l-1.61-4.55c-.33-.92.15-1.93,1.07-2.26l4.55-1.61c.91-.32,1.93.15,2.26,1.07.33.92-.15,1.93-1.07,2.26l-2.88,1.02,1.02,2.88c.33.92-.15,1.93-1.07,2.26-.19.07-.4.1-.59.1Z"/>
    <path class="cls-1" d="m79.98,87.96c-.9,0-1.67-.69-1.76-1.61l-2.34-25.39c-.09-.97.62-1.83,1.6-1.92l25.39-2.34c.97-.1,1.83.62,1.92,1.6.09.97-.62,1.83-1.6,1.92l-23.63,2.18,2.18,23.63c.09.97-.62,1.83-1.6,1.92-.06,0-.11,0-.16,0Z"/>
    <path class="cls-1" d="m239.03,458.1c-.63,0-1.24-.34-1.56-.93-.46-.86-.14-1.93.72-2.39l2.21-1.19-1.19-2.21c-.46-.86-.14-1.93.72-2.39.86-.46,1.93-.14,2.39.72l2.03,3.76c.46.86.14,1.93-.72,2.39l-3.76,2.03c-.27.14-.55.21-.84.21Z"/>
    <path class="cls-1" d="m234.2,151.78c-.4,0-.8-.13-1.13-.41l-3.58-3c-.75-.63-.85-1.74-.22-2.49.63-.75,1.74-.85,2.49-.22l2.23,1.86,1.86-2.23c.63-.75,1.74-.85,2.49-.22.75.63.85,1.74.22,2.49l-3,3.58c-.35.42-.85.63-1.36.63Z"/>
    <path class="cls-1" d="m19.48,397.3c-.36,0-.72-.11-1.04-.34-.79-.57-.96-1.68-.39-2.47l5.45-7.5-7.5-5.45c-.79-.57-.96-1.68-.39-2.47.57-.79,1.68-.96,2.47-.39l8.93,6.49c.79.57.96,1.68.39,2.47l-6.49,8.93c-.35.48-.88.73-1.43.73Z"/>
    <path class="cls-1" d="m486.1,64.74c-.12,0-.23-.01-.35-.03l-22.56-4.53c-.96-.19-1.58-1.12-1.39-2.08.19-.96,1.13-1.58,2.08-1.39l20.83,4.19,4.19-20.83c.19-.96,1.12-1.58,2.08-1.39.96.19,1.58,1.12,1.39,2.08l-4.53,22.56c-.17.84-.91,1.42-1.73,1.42Z"/>
    <path class="cls-1" d="m301.09,47.98s-.1,0-.15,0c-.97-.08-1.7-.93-1.62-1.91l1.06-12.85-12.85-1.06c-.97-.08-1.7-.93-1.62-1.91s.93-1.71,1.91-1.62l14.61,1.21c.97.08,1.7.93,1.62,1.91l-1.21,14.61c-.08.92-.85,1.62-1.76,1.62Z"/>
    <path class="cls-1" d="m315.77,426.11c-.24,0-.49-.05-.72-.16-.89-.4-1.29-1.44-.89-2.34l6.85-15.3-15.3-6.85c-.89-.4-1.29-1.44-.89-2.34.4-.89,1.44-1.29,2.34-.89l16.91,7.57c.89.4,1.29,1.44.89,2.34l-7.57,16.91c-.29.66-.94,1.05-1.61,1.05Z"/>
    <path class="cls-1" d="m270.28,221.58c-.54,0-1.07-.24-1.41-.7l-8.44-11.2c-.59-.78-.43-1.89.35-2.47l11.2-8.44c.78-.59,1.89-.43,2.47.35.59.78.43,1.89-.35,2.47l-9.79,7.38,7.38,9.79c.59.78.43,1.89-.35,2.47-.32.24-.69.36-1.06.36Z"/>
    <path class="cls-1" d="m362.12,324.17c-.61,0-1.21-.32-1.54-.89-.48-.85-.19-1.93.66-2.41l3.24-1.85-1.84-3.24c-.48-.85-.19-1.93.66-2.41.85-.49,1.93-.19,2.41.66l2.72,4.77c.48.85.19,1.93-.66,2.41l-4.77,2.72c-.28.16-.58.23-.87.23Z"/>
    <path class="cls-1" d="m82,369.48c-.79,0-1.51-.53-1.71-1.33-.24-.95.33-1.91,1.27-2.15l21.31-5.48-5.48-21.31c-.24-.94.33-1.91,1.27-2.15.95-.24,1.91.33,2.15,1.27l5.93,23.02c.12.45.05.94-.19,1.34-.24.4-.63.7-1.08.81l-23.02,5.93c-.15.04-.3.06-.44.06Z"/>
    <path class="cls-1" d="m205.1,498.51c-.66,0-1.3-.37-1.6-1.01l-5.82-12.26c-.42-.88-.04-1.94.84-2.35l12.26-5.82c.88-.42,1.94-.04,2.35.84.42.88.04,1.94-.84,2.35l-10.66,5.06,5.06,10.66c.42.88.04,1.94-.84,2.35-.24.12-.5.17-.76.17Z"/>
    <path class="cls-1" d="m98.13,242.53c-.71,0-1.38-.43-1.65-1.13l-6.8-17.59c-.35-.91.1-1.93,1.01-2.29l17.59-6.8c.91-.35,1.93.1,2.29,1.01.35.91-.1,1.93-1.01,2.29l-15.94,6.17,6.17,15.94c.35.91-.1,1.93-1.01,2.29-.21.08-.43.12-.64.12Z"/>
    <path class="cls-1" d="m281.3,60.45s-.06,0-.09,0l-12.52-.61c-.98-.05-1.73-.88-1.68-1.85l.61-12.52c.05-.98.88-1.73,1.85-1.68.98.05,1.73.88,1.68,1.85l-.53,10.75,10.75.53c.98.05,1.73.88,1.68,1.85-.05.95-.83,1.68-1.76,1.68Z"/>
    <path class="cls-1" d="m444.1,264.89c-.85,0-1.6-.62-1.74-1.48l-1.76-10.79-10.79,1.76c-.96.16-1.87-.5-2.03-1.46-.16-.96.5-1.87,1.46-2.03l12.54-2.04c.96-.17,1.87.5,2.03,1.46l2.04,12.54c.16.96-.5,1.87-1.46,2.03-.1.02-.19.02-.29.02Z"/>
    <path class="cls-1" d="m416.21,497.48c-.36,0-.72-.11-1.04-.34-.79-.57-.97-1.68-.39-2.47l3.93-5.42c.57-.79,1.68-.96,2.47-.39l5.42,3.93c.79.57.97,1.68.39,2.47-.57.79-1.68.97-2.47.39l-3.99-2.9-2.9,3.99c-.35.48-.88.73-1.43.73Z"/>
    <path class="cls-1" d="m429.34,181.52c-.33,0-.67-.09-.97-.29-.81-.54-1.04-1.64-.5-2.45l13.53-20.47-20.47-13.53c-.81-.54-1.04-1.64-.5-2.45.54-.82,1.64-1.04,2.45-.5l21.95,14.51c.81.54,1.04,1.64.5,2.45l-14.51,21.95c-.34.51-.9.79-1.48.79Z"/>
    <path class="cls-1" d="m412.17,374.14c-.48,0-.95-.19-1.3-.57l-6.99-7.58c-.66-.72-.62-1.84.1-2.5.72-.66,1.84-.62,2.5.1l5.79,6.28,6.28-5.79c.72-.66,1.84-.62,2.5.1.66.72.62,1.84-.1,2.5l-7.58,6.99c-.34.31-.77.47-1.2.47Z"/>
    <path class="cls-1" d="m22.94,40.43c-.54,0-1.07-.25-1.42-.71l-6.86-9.19c-.58-.78-.42-1.89.36-2.47l9.19-6.86c.78-.58,1.89-.42,2.47.36.58.78.42,1.89-.36,2.47l-7.77,5.8,5.8,7.77c.58.78.42,1.89-.36,2.47-.32.24-.69.35-1.06.35Z"/>
    <path class="cls-1" d="m358.92,132.26c-.44,0-.88-.16-1.23-.5-.7-.68-.72-1.8-.04-2.5l13.24-13.72-13.72-13.24c-.7-.68-.72-1.8-.04-2.5.68-.7,1.8-.72,2.5-.04l15,14.47c.7.68.72,1.8.04,2.5l-14.47,15c-.35.36-.81.54-1.27.54Z"/>
    <path class="cls-1" d="m318.97,336.82c-.64,0-1.26-.35-1.58-.96l-7.19-14.09c-.44-.87-.1-1.93.77-2.38.87-.44,1.93-.1,2.38.77l6.39,12.52,12.52-6.39c.87-.44,1.93-.1,2.38.77.44.87.1,1.93-.77,2.38l-14.09,7.19c-.26.13-.53.19-.8.19Z"/>
    <path class="cls-1" d="m134.21,467.32c-.62,0-1.22-.32-1.54-.9-.48-.85-.18-1.93.67-2.41l6.5-3.67-3.67-6.5c-.48-.85-.18-1.93.67-2.41.85-.48,1.93-.18,2.41.67l4.53,8.04c.23.41.29.89.16,1.34-.13.45-.43.83-.83,1.06l-8.04,4.53c-.27.15-.57.23-.87.23Z"/>
    <path class="cls-1" d="m89.29,320.58c-.09,0-.17,0-.26-.02-.97-.14-1.63-1.04-1.49-2.01l1.4-9.49c.14-.97,1.05-1.63,2.01-1.49l9.49,1.4c.97.14,1.63,1.04,1.49,2.01-.14.97-1.04,1.64-2.01,1.49l-7.74-1.14-1.14,7.74c-.13.88-.88,1.51-1.75,1.51Z"/>
    <path class="cls-1" d="m493.77,464.04c-.65,0-1.27-.36-1.58-.97l-3.48-6.9c-.21-.42-.25-.9-.1-1.35.15-.45.46-.81.88-1.02l6.9-3.47c.87-.44,1.93-.09,2.37.78.44.87.09,1.93-.78,2.37l-5.32,2.68,2.68,5.32c.44.87.09,1.93-.78,2.37-.25.13-.53.19-.79.19Z"/>
    <path class="cls-1" d="m244.05,125.1c-.75,0-1.44-.48-1.68-1.23l-6.8-21.31-21.31,6.8c-.93.29-1.93-.22-2.22-1.15-.3-.93.22-1.92,1.15-2.22l22.99-7.34c.93-.3,1.92.22,2.22,1.15l7.34,22.99c.3.93-.22,1.92-1.15,2.22-.18.06-.36.08-.54.08Z"/>
    <path class="cls-1" d="m286.55,457.97c-.16,0-.32-.02-.48-.07-.94-.27-1.48-1.24-1.22-2.18l3.13-11.04-11.04-3.13c-.94-.27-1.48-1.24-1.22-2.18.27-.94,1.24-1.49,2.18-1.22l12.74,3.61c.94.27,1.48,1.24,1.22,2.18l-3.61,12.74c-.22.78-.93,1.29-1.7,1.29Z"/>
    <path class="cls-1" d="m467.75,163.28c-.23,0-.46-.05-.69-.14-.9-.38-1.32-1.42-.94-2.32l9.86-23.31c.18-.43.53-.77.96-.95.43-.18.92-.17,1.35.01l23.31,9.86c.9.38,1.32,1.42.94,2.32-.38.9-1.41,1.32-2.32.94l-21.68-9.17-9.17,21.68c-.28.67-.94,1.08-1.63,1.08Z"/>
    <path class="cls-1" d="m476.92,439.2c-.29,0-.58-.07-.84-.22-.86-.47-1.17-1.54-.71-2.4l8.89-16.31-16.31-8.89c-.86-.47-1.17-1.54-.71-2.4.47-.86,1.54-1.17,2.4-.71l17.86,9.74c.86.47,1.17,1.54.71,2.4l-9.74,17.86c-.32.59-.93.92-1.55.92Z"/>
    <path class="cls-1" d="m128.48,98.24c-.71,0-1.38-.43-1.65-1.14l-7.15-18.8c-.35-.91.11-1.93,1.02-2.28.91-.35,1.93.11,2.28,1.02l6.53,17.15,17.15-6.53c.91-.35,1.93.11,2.28,1.02.35.91-.11,1.93-1.02,2.28l-18.8,7.15c-.21.08-.42.12-.63.12Z"/>
    <path class="cls-1" d="m355.54,392.61c-.82,0-1.55-.57-1.73-1.4l-5.48-25.64c-.2-.95.4-1.89,1.36-2.1l25.64-5.48c.95-.2,1.89.4,2.1,1.36.2.95-.4,1.89-1.36,2.1l-23.91,5.11,5.11,23.91c.2.95-.4,1.89-1.36,2.1-.12.03-.25.04-.37.04Z"/>
    <path class="cls-1" d="m188.81,319.92c-.93,0-1.71-.73-1.76-1.67l-1.26-23.23c-.03-.47.14-.93.45-1.28.31-.35.75-.56,1.22-.58l23.23-1.26c.96-.05,1.81.69,1.86,1.67.05.97-.69,1.81-1.67,1.86l-21.47,1.17,1.16,21.47c.05.97-.69,1.81-1.67,1.86-.03,0-.06,0-.1,0Z"/>
    <path class="cls-1" d="m359.83,246.1c-.16,0-.33-.02-.49-.07l-6.45-1.86c-.94-.27-1.48-1.25-1.21-2.19l1.86-6.45c.27-.94,1.25-1.47,2.19-1.21.94.27,1.48,1.25,1.21,2.19l-1.37,4.76,4.76,1.37c.94.27,1.48,1.25,1.21,2.19-.22.77-.93,1.28-1.7,1.28Z"/>
    <path class="cls-1" d="m162.4,127.85c-.18,0-.37-.03-.55-.09l-8.16-2.68c-.93-.3-1.43-1.3-1.13-2.23.3-.93,1.3-1.44,2.23-1.13l6.48,2.12,2.12-6.48c.3-.93,1.3-1.44,2.23-1.13.93.3,1.43,1.3,1.13,2.23l-2.68,8.16c-.24.74-.94,1.22-1.68,1.22Z"/>
    <path class="cls-1" d="m256.87,493.02c-.06,0-.11,0-.17,0l-24.7-2.36c-.97-.09-1.68-.96-1.59-1.93.09-.97.93-1.68,1.93-1.59l22.94,2.19,2.19-22.94c.09-.97.94-1.68,1.93-1.59.97.09,1.68.96,1.59,1.93l-2.36,24.7c-.09.91-.86,1.6-1.76,1.6Z"/>
    <path class="cls-1" d="m155.78,68.04c-.37,0-.75-.12-1.07-.36l-3.52-2.68c-.78-.59-.93-1.7-.34-2.48l2.68-3.52c.59-.78,1.7-.93,2.48-.34.78.59.93,1.7.34,2.48l-1.61,2.11,2.11,1.61c.78.59.93,1.7.34,2.48-.35.46-.88.7-1.41.7Z"/>
    <path class="cls-1" d="m78.96,494.24h-.03l-6.12-.1c-.47,0-.92-.2-1.24-.54s-.5-.79-.5-1.26l.1-6.12c.02-.98.74-1.73,1.8-1.74.98.02,1.75.82,1.74,1.8l-.07,4.35,4.35.07c.98.02,1.76.82,1.74,1.79-.02.97-.8,1.74-1.77,1.74Z"/>
    <path class="cls-1" d="m173.3,403.09c-.14,0-.29-.02-.44-.06-.95-.24-1.51-1.21-1.27-2.15l1.76-6.86-6.86-1.76c-.94-.24-1.51-1.21-1.27-2.15.24-.94,1.21-1.51,2.15-1.27l8.58,2.2c.95.24,1.51,1.21,1.27,2.15l-2.2,8.58c-.21.8-.92,1.33-1.71,1.33Z"/>
    <path class="cls-1" d="m392.06,498.31c-.07,0-.14,0-.21-.01l-16-1.85c-.97-.11-1.66-.99-1.55-1.96.11-.97.99-1.68,1.96-1.55l14.25,1.65,1.65-14.25c.11-.97,1-1.67,1.96-1.55.97.11,1.66.99,1.55,1.96l-1.85,16c-.1.9-.87,1.56-1.75,1.56Z"/>
    <path class="cls-1" d="m26.3,459.36c-.81,0-1.54-.56-1.72-1.38l-4.78-21.54c-.21-.95.39-1.9,1.34-2.11l21.54-4.78c.96-.21,1.9.39,2.11,1.34.21.95-.39,1.9-1.34,2.11l-19.81,4.4,4.4,19.81c.21.95-.39,1.9-1.34,2.11-.13.03-.26.04-.38.04Z"/>
    <path class="cls-1" d="m42.2,361.61c-.52,0-1.04-.23-1.38-.67-.61-.76-.48-1.88.28-2.48l18.86-14.99-14.99-18.86c-.61-.76-.48-1.88.28-2.48.76-.61,1.88-.48,2.48.28l16.09,20.25c.61.76.48,1.88-.28,2.48l-20.25,16.09c-.32.26-.71.38-1.1.38Z"/>
    <path class="cls-1" d="m259.11,19.86c-.27,0-.55-.06-.81-.2-.87-.45-1.21-1.51-.76-2.38l3.17-6.15c.45-.87,1.52-1.21,2.38-.76l6.15,3.17c.87.45,1.21,1.51.76,2.38s-1.51,1.21-2.38.76l-4.58-2.36-2.36,4.58c-.31.61-.93.96-1.57.96Z"/>
    <path class="cls-1" d="m376.49,284.62c-.59,0-1.16-.29-1.5-.83l-7.11-11.33c-.52-.83-.27-1.92.56-2.44.83-.52,1.92-.27,2.44.56l6.17,9.84,9.84-6.17c.83-.52,1.92-.27,2.44.56.52.83.27,1.92-.56,2.44l-11.33,7.11c-.29.18-.62.27-.94.27Z"/>
    <path class="cls-1" d="m291.76,494.66c-.38,0-.77-.12-1.09-.38-.77-.6-.9-1.72-.29-2.48l13.39-16.98c.6-.77,1.72-.9,2.48-.29l16.98,13.39c.77.6.9,1.72.29,2.48-.6.77-1.72.9-2.48.29l-15.6-12.3-12.3,15.6c-.35.44-.87.67-1.39.67Z"/>
    <path class="cls-1" d="m53.71,32.55c-.44,0-.88-.16-1.22-.49-.71-.67-.73-1.79-.06-2.5l4.06-4.26-4.26-4.06c-.71-.67-.73-1.79-.06-2.5.67-.71,1.79-.73,2.5-.06l5.54,5.28c.71.67.73,1.79.06,2.5l-5.28,5.54c-.35.36-.81.55-1.28.55Z"/>
    <path class="cls-1" d="m283.8,159.92c-.68,0-1.33-.4-1.62-1.07l-7.97-18.4c-.39-.89.02-1.94.92-2.32l18.4-7.97c.9-.39,1.94.02,2.32.92.39.9-.02,1.94-.92,2.32l-16.78,7.27,7.27,16.78c.39.89-.02,1.94-.92,2.32-.23.1-.47.15-.7.15Z"/>
    <path class="cls-1" d="m211.56,394.3c-.07,0-.14,0-.2-.01l-8.16-.93c-.97-.11-1.67-.99-1.56-1.96.11-.97.99-1.66,1.96-1.56l6.4.73.73-6.4c.11-.97.99-1.66,1.96-1.56.97.11,1.67.99,1.56,1.96l-.93,8.16c-.1.9-.87,1.57-1.75,1.57Z"/>
    <path class="cls-1" d="m265.34,176.98c-.23,0-.46-.04-.68-.14l-9.75-4.07c-.9-.38-1.33-1.41-.95-2.31l4.07-9.75c.38-.9,1.41-1.33,2.31-.95.9.38,1.33,1.41.95,2.31l-3.39,8.12,8.12,3.39c.9.38,1.33,1.41.95,2.31-.28.68-.94,1.09-1.63,1.09Z"/>
    <path class="cls-1" d="m326.98,18.13c-.41,0-.82-.14-1.15-.42l-4.23-3.62c-.74-.63-.83-1.75-.19-2.49.63-.74,1.75-.83,2.49-.19l2.89,2.47,2.47-2.89c.63-.74,1.75-.83,2.49-.19.74.64.83,1.75.19,2.49l-3.62,4.23c-.35.41-.84.62-1.34.62Z"/>
    <path class="cls-1" d="m379.75,94.09c-.56,0-1.12-.27-1.46-.77l-7.94-11.58c-.55-.81-.35-1.91.46-2.46l11.58-7.94c.81-.55,1.91-.35,2.46.46.55.81.35,1.91-.46,2.46l-10.12,6.94,6.94,10.12c.55.81.35,1.91-.46,2.46-.31.21-.65.31-1,.31Z"/>
    <path class="cls-1" d="m114.02,48.58c-.63,0-1.24-.34-1.56-.94-.46-.86-.13-1.93.73-2.39l21.04-11.19-11.19-21.04c-.46-.86-.13-1.93.73-2.39.86-.46,1.93-.13,2.39.73l12.02,22.6c.22.41.27.9.13,1.35-.14.45-.45.82-.86,1.04l-22.6,12.02c-.26.14-.55.21-.83.21Z"/>
    <path class="cls-1" d="m14.58,345.51c-.4,0-.79-.13-1.12-.4-.75-.62-.86-1.73-.24-2.49l7.08-8.62-8.62-7.08c-.75-.62-.86-1.73-.24-2.49.62-.76,1.73-.86,2.49-.24l9.98,8.2c.75.62.86,1.73.24,2.49l-8.2,9.98c-.35.43-.86.65-1.37.65Z"/>
    <path class="cls-1" d="m54.57,410.36c-.66,0-1.29-.37-1.59-1-.42-.88-.05-1.94.83-2.36l12-5.75-5.75-12c-.42-.88-.05-1.94.83-2.36.88-.42,1.94-.05,2.36.83l6.51,13.59c.2.42.23.91.07,1.35-.16.44-.48.8-.9,1.01l-13.59,6.51c-.25.12-.51.17-.76.17Z"/>
    <path class="cls-1" d="m336.3,103.06c-.09,0-.18,0-.28-.02l-21.89-3.46c-.46-.07-.88-.33-1.15-.71-.28-.38-.39-.85-.32-1.32l3.46-21.89c.15-.96,1.07-1.62,2.02-1.47.96.15,1.62,1.06,1.47,2.02l-3.18,20.15,20.15,3.18c.96.15,1.62,1.06,1.47,2.02-.14.87-.89,1.49-1.74,1.49Z"/>
    <path class="cls-1" d="m345.86,179.51c-.17,0-.35-.02-.52-.08-.93-.29-1.46-1.27-1.17-2.21l5.5-18.02-18.02-5.5c-.93-.29-1.46-1.27-1.17-2.21.29-.93,1.27-1.46,2.21-1.17l19.71,6.02c.45.14.82.45,1.04.86.22.41.27.9.13,1.35l-6.02,19.71c-.23.76-.93,1.25-1.69,1.25Z"/>
    <path class="cls-1" d="m369.81,218.55c-.19,0-.38-.03-.57-.1-.92-.32-1.42-1.32-1.1-2.24l6.37-18.58c.32-.92,1.32-1.42,2.24-1.1l18.58,6.37c.92.32,1.42,1.32,1.1,2.24-.32.92-1.32,1.42-2.24,1.1l-16.91-5.8-5.8,16.91c-.25.73-.94,1.2-1.67,1.2Z"/>
    <path class="cls-1" d="m175.16,266.46c-.28,0-.57-.07-.84-.21l-4.31-2.34c-.86-.47-1.18-1.54-.71-2.4.46-.86,1.53-1.18,2.4-.71l2.76,1.49,1.49-2.76c.47-.86,1.53-1.18,2.4-.71.86.47,1.18,1.54.71,2.4l-2.34,4.31c-.32.59-.93.93-1.56.93Z"/>
    <path class="cls-1" d="m113.05,182.2c-.62,0-1.23-.33-1.55-.92l-2.12-3.85c-.47-.86-.16-1.93.7-2.4.86-.47,1.93-.16,2.4.7l1.26,2.3,2.3-1.26c.86-.47,1.93-.16,2.4.7.47.86.16,1.93-.7,2.4l-3.85,2.12c-.27.15-.56.22-.85.22Z"/>
    <path class="cls-1" d="m185.17,102.92c-.97,0-1.76-.79-1.77-1.76l-.03-10.96-10.96.03h0c-.97,0-1.76-.79-1.77-1.76,0-.98.79-1.77,1.76-1.77l12.72-.03h0c.97,0,1.76.79,1.77,1.76l.03,12.72c0,.98-.79,1.77-1.76,1.77h0Z"/>
    <path class="cls-1" d="m67.23,455.27c-.74,0-1.43-.47-1.68-1.22-.31-.93.2-1.93,1.13-2.23l7.68-2.53-2.53-7.68c-.31-.93.2-1.93,1.13-2.23.93-.31,1.93.2,2.23,1.13l3.09,9.36c.31.93-.2,1.93-1.13,2.23l-9.36,3.09c-.18.06-.37.09-.55.09Z"/>
    <path class="cls-1" d="m371.34,456.41c-.07,0-.14,0-.22-.01-.97-.12-1.66-1-1.54-1.97l2.44-20.07-20.07-2.44c-.97-.12-1.66-1-1.54-1.97.12-.97,1.01-1.66,1.97-1.54l21.82,2.65c.97.12,1.66,1,1.54,1.97l-2.65,21.82c-.11.9-.87,1.55-1.75,1.55Z"/>
    <path class="cls-1" d="m137.83,207.33c-.13,0-.27-.01-.41-.05-.95-.22-1.54-1.17-1.32-2.12l1.34-5.69c.22-.95,1.17-1.54,2.12-1.32l5.69,1.34c.95.22,1.54,1.17,1.32,2.12-.22.95-1.18,1.54-2.12,1.32l-3.97-.93-.93,3.97c-.19.81-.92,1.36-1.72,1.36Z"/>
    <path class="cls-1" d="m123.85,149.3c-.69,0-1.34-.41-1.63-1.08l-4.78-11.31c-.38-.9.04-1.94.94-2.32l11.31-4.78c.9-.38,1.94.04,2.32.94.38.9-.04,1.94-.94,2.32l-9.68,4.09,4.09,9.68c.38.9-.04,1.94-.94,2.32-.22.09-.46.14-.69.14Z"/>
    <path class="cls-1" d="m16.14,89.74c-.45,0-.89-.17-1.24-.51-.7-.68-.7-1.8-.02-2.5l3.89-3.96-3.96-3.89c-.7-.68-.7-1.8-.02-2.5.68-.7,1.8-.71,2.5-.02l5.22,5.13c.7.68.7,1.8.02,2.5l-5.13,5.22c-.35.35-.8.53-1.26.53Z"/>
    <path class="cls-1" d="m495.83,296.26c-.49,0-.98-.2-1.33-.6l-3.47-3.93c-.65-.73-.58-1.85.16-2.49l3.93-3.47c.73-.65,1.85-.58,2.49.16.65.73.58,1.85-.16,2.49l-2.61,2.3,2.3,2.61c.65.73.58,1.85-.16,2.49-.34.3-.75.44-1.17.44Z"/>
    <path class="cls-1" d="m459.69,284.99c-.34,0-.69-.1-.99-.3-.81-.55-1.02-1.65-.47-2.46l4.63-6.83c.55-.81,1.65-1.02,2.46-.47l6.83,4.63c.81.55,1.02,1.65.47,2.46-.55.81-1.65,1.02-2.46.47l-5.36-3.64-3.64,5.36c-.34.5-.9.77-1.46.77Z"/>
    <path class="cls-1" d="m294.48,377.04c-.32,0-.64-.09-.93-.27-.83-.52-1.08-1.61-.56-2.44l8.33-13.32c.52-.83,1.61-1.08,2.44-.56l13.32,8.33c.83.52,1.08,1.61.56,2.44-.52.83-1.61,1.08-2.44.56l-11.82-7.39-7.39,11.82c-.34.54-.91.83-1.5.83Z"/>
    <path class="cls-1" d="m399.14,179.5c-.4,0-.8-.14-1.13-.41l-18.7-15.68c-.36-.3-.58-.73-.62-1.2-.04-.47.11-.93.41-1.29l15.68-18.7c.63-.75,1.74-.85,2.49-.22.75.63.85,1.74.22,2.49l-14.54,17.35,17.35,14.54c.75.63.85,1.74.22,2.49-.35.42-.85.63-1.35.63Z"/>
    <path class="cls-1" d="m339.94,498.43s-.07,0-.1,0c-.98-.05-1.72-.89-1.67-1.86l.4-7.23c.05-.98.89-1.72,1.86-1.67l7.23.4c.98.05,1.72.89,1.67,1.86s-.89,1.73-1.86,1.67l-5.47-.3-.3,5.47c-.05.94-.83,1.67-1.76,1.67Z"/>
  </g>
</svg>