<?xml version="1.0" encoding="UTF-8"?>
<svg id="PATTERN" xmlns="http://www.w3.org/2000/svg" viewBox="0 0 502.48 502.1">
  <defs>
    <style>
      .cls-1 {
        fill: #fff;
      }

      .cls-2 {
        fill: #72a7ff;
      }
    </style>
  </defs>
  <rect class="cls-2" x="-7.26" y="-5.85" width="517.27" height="519.7"/>
  <g>
    <path class="cls-1" d="m225.13,410.64s-.03,0-.05,0c-.55-.02-1.06-.29-1.39-.73l-7.4-10.27-7.95,9.84c-.35.43-.86.68-1.43.66-.55-.02-1.06-.29-1.39-.74l-8.74-12.16c-.57-.79-.39-1.9.4-2.47.79-.57,1.9-.39,2.47.4l7.38,10.27,7.95-9.84c.35-.43.86-.69,1.43-.66.55.02,1.06.29,1.39.74l7.4,10.27,7.96-9.85c.62-.76,1.73-.88,2.49-.26.76.61.88,1.73.26,2.49l-9.42,11.65c-.34.42-.84.66-1.38.66Z"/>
    <path class="cls-1" d="m152.52,235.97c-.25,0-.51-.05-.75-.17-.89-.42-1.27-1.47-.85-2.35l2.2-4.69c.23-.5.69-.86,1.23-.98.54-.12,1.1.03,1.52.38l2.17,1.85,1.21-2.58c.23-.5.69-.86,1.23-.98.54-.12,1.1.03,1.52.38l3.94,3.36c.74.63.83,1.75.2,2.5-.63.74-1.75.83-2.5.2l-2.17-1.85-1.21,2.58c-.23.5-.69.86-1.23.98-.54.12-1.1-.02-1.52-.38l-2.17-1.85-1.21,2.59c-.3.64-.94,1.02-1.6,1.02Z"/>
    <path class="cls-1" d="m98.85,466.28c-.22,0-.43-.04-.64-.12l-4.83-1.86c-.91-.35-1.37-1.38-1.01-2.29.35-.91,1.38-1.36,2.29-1.01l2.66,1.03.28-2.84c.06-.55.36-1.04.83-1.33.47-.29,1.05-.34,1.56-.14l2.67,1.03.29-2.84c.1-.97.96-1.67,1.94-1.58.97.1,1.68.97,1.58,1.94l-.52,5.15c-.06.55-.36,1.04-.83,1.33-.47.29-1.05.34-1.56.14l-2.66-1.03-.29,2.84c-.06.55-.36,1.04-.83,1.33-.28.17-.6.26-.93.26Z"/>
    <path class="cls-1" d="m340.31,459.05c-.54,0-1.08-.25-1.43-.72l-5.72-7.75c-.33-.44-.43-1.02-.27-1.55.15-.53.55-.96,1.06-1.16l6.82-2.63-4.34-5.88c-.33-.44-.43-1.02-.27-1.55.15-.53.55-.96,1.06-1.16l8.98-3.46c.91-.35,1.94.1,2.29,1.02.35.91-.1,1.94-1.02,2.29l-6.81,2.63,4.34,5.88c.33.44.43,1.02.27,1.55-.15.53-.55.96-1.06,1.16l-6.82,2.63,4.34,5.88c.58.79.41,1.9-.37,2.48-.32.23-.68.35-1.05.35Z"/>
    <path class="cls-1" d="m455.06,288.95c-.46,0-.9-.18-1.23-.5l-3.59-3.48c-.7-.68-.72-1.8-.04-2.5.68-.7,1.8-.72,2.5-.04l1.92,1.86,1.29-2.35c.27-.48.74-.82,1.29-.9.55-.08,1.1.1,1.5.48l1.93,1.87,1.29-2.35c.47-.86,1.54-1.17,2.4-.7.86.47,1.17,1.55.7,2.4l-2.41,4.38c-.27.48-.74.82-1.29.9-.55.08-1.1-.1-1.5-.48l-1.93-1.87-1.29,2.35c-.27.48-.74.82-1.29.9-.09.01-.18.02-.26.02Z"/>
    <path class="cls-1" d="m44.63,200.54c-.13,0-.27-.02-.4-.05l-4.36-1.02c-.95-.22-1.54-1.17-1.32-2.13.22-.95,1.18-1.54,2.13-1.32l2.1.49-.08-2.15c-.02-.55.22-1.08.64-1.43.42-.35.99-.49,1.53-.36l2.1.49-.08-2.16c-.04-.98.73-1.8,1.7-1.84.98-.05,1.8.73,1.84,1.7l.17,4.48c.02.55-.22,1.08-.64,1.43-.43.35-.99.48-1.53.36l-2.1-.49.08,2.16c.02.55-.22,1.08-.64,1.43-.32.26-.72.4-1.13.4Z"/>
    <path class="cls-1" d="m366.57,17.73c-.42,0-.82-.15-1.15-.42l-5.21-4.44c-.74-.63-.83-1.75-.2-2.5.63-.75,1.75-.83,2.5-.2l3.45,2.94,1.92-4.1c.23-.5.69-.86,1.23-.98.54-.12,1.1.02,1.52.38l3.45,2.94,1.92-4.11c.41-.89,1.47-1.27,2.35-.85.89.41,1.27,1.47.85,2.35l-2.91,6.21c-.23.5-.69.86-1.23.98-.54.12-1.1-.02-1.52-.38l-3.45-2.94-1.92,4.1c-.23.5-.69.86-1.23.98-.12.03-.25.04-.38.04Z"/>
    <path class="cls-1" d="m267.66,241.89c-.41,0-.82-.14-1.16-.43l-3.66-3.17c-.42-.36-.64-.9-.61-1.45.03-.55.32-1.05.78-1.36l2.1-1.4-1.91-1.65c-.42-.36-.64-.9-.61-1.45.03-.55.32-1.05.78-1.36l4.02-2.69c.81-.54,1.91-.33,2.46.49.54.81.33,1.91-.49,2.46l-2.09,1.4,1.9,1.65c.42.36.64.9.61,1.45-.03.55-.32,1.05-.78,1.36l-2.1,1.41,1.91,1.65c.74.64.82,1.76.18,2.5-.35.4-.84.61-1.34.61Z"/>
    <path class="cls-1" d="m70.9,276.27c-.28,0-.56-.07-.82-.2-.49-.25-.83-.72-.93-1.27l-1.62-9.26-8.5,4.01c-.5.24-1.08.22-1.57-.03-.49-.26-.83-.72-.93-1.27l-2.01-11.54c-.17-.96.48-1.88,1.44-2.05.97-.16,1.88.48,2.05,1.44l1.61,9.25,8.5-4.01c.5-.24,1.08-.22,1.57.03.49.25.83.72.93,1.27l1.62,9.26,8.5-4.01c.88-.42,1.94-.04,2.36.85.42.88.04,1.94-.85,2.36l-10.6,5c-.24.11-.5.17-.75.17Z"/>
    <path class="cls-1" d="m234.34,55.79c-.41,0-.83-.14-1.17-.44l-12.94-11.35c-.41-.36-.64-.9-.6-1.45.04-.55.33-1.05.79-1.36l12.43-8.21-11.19-9.81c-.42-.36-.64-.9-.6-1.45.04-.55.33-1.05.79-1.36l14.36-9.47c.82-.54,1.91-.31,2.45.5.54.82.31,1.91-.5,2.45l-12.42,8.19,11.19,9.81c.41.36.64.9.6,1.45-.04.55-.33,1.05-.79,1.36l-12.43,8.21,11.19,9.82c.73.64.81,1.76.16,2.5-.35.4-.84.6-1.33.6Z"/>
    <path class="cls-1" d="m448.52,219.88c-.17,0-.34-.02-.51-.08l-4.84-1.46c-.94-.28-1.47-1.27-1.19-2.21s1.27-1.47,2.21-1.19l2.61.79.07-2.73c.01-.55.28-1.07.73-1.39.45-.32,1.02-.42,1.55-.26l2.62.79.07-2.73c.02-.98.84-1.79,1.81-1.73.98.02,1.75.84,1.73,1.81l-.12,5.05c-.01.55-.28,1.07-.73,1.39-.45.32-1.02.42-1.55.26l-2.62-.79-.07,2.73c-.01.55-.28,1.07-.73,1.39-.31.22-.67.34-1.04.34Z"/>
    <path class="cls-1" d="m194.58,227.05s-.06,0-.08,0c-.55-.03-1.06-.31-1.37-.76l-.38-.55-.43.51c-.36.42-.9.65-1.44.63-.55-.03-1.06-.31-1.37-.76l-1.7-2.46c-.55-.8-.35-1.91.45-2.46.8-.56,1.91-.35,2.46.45l.38.55.43-.51c.36-.42.89-.65,1.44-.63.55.03,1.06.31,1.37.76l.38.55.43-.52c.63-.75,1.74-.85,2.49-.22.75.63.84,1.75.22,2.49l-1.93,2.29c-.34.4-.83.63-1.35.63Z"/>
    <path class="cls-1" d="m455.02,129.48c-.31,0-.62-.08-.91-.25l-3.32-1.99c-.47-.28-.79-.77-.85-1.32-.06-.55.14-1.1.53-1.48l1.12-1.07-1.33-.8c-.47-.28-.79-.77-.85-1.32-.06-.55.14-1.1.54-1.48l2.79-2.67c.71-.68,1.83-.65,2.5.05.68.71.65,1.83-.05,2.5l-1.12,1.07,1.33.79c.47.28.79.77.85,1.32.06.55-.14,1.1-.53,1.48l-1.12,1.07,1.33.8c.84.5,1.11,1.59.61,2.43-.33.55-.92.86-1.52.86Z"/>
    <path class="cls-1" d="m119.9,330.46c-.9,0-1.67-.68-1.76-1.6-.09-.97.62-1.84,1.59-1.93l1.16-.11-.41-1.09c-.2-.52-.14-1.09.15-1.56.29-.47.78-.78,1.33-.83l1.16-.11-.42-1.09c-.35-.91.11-1.94,1.02-2.28.91-.34,1.94.11,2.28,1.02l1.24,3.26c.2.52.14,1.09-.15,1.56-.29.47-.78.78-1.33.83l-1.16.11.41,1.09c.2.52.14,1.09-.15,1.56-.29.47-.78.78-1.33.83l-3.47.33c-.06,0-.12,0-.17,0Z"/>
    <path class="cls-1" d="m472.75,229c-.61,0-1.2-.31-1.53-.88-.49-.84-.21-1.93.64-2.42l.63-.37-.52-.51c-.39-.39-.59-.93-.52-1.48.07-.55.39-1.03.86-1.31l.63-.37-.52-.51c-.7-.68-.71-1.8-.03-2.5.69-.7,1.81-.71,2.5-.03l2.18,2.14c.4.39.59.93.52,1.48-.07.55-.39,1.03-.86,1.31l-.63.37.52.51c.39.39.59.93.52,1.48-.07.55-.39,1.03-.86,1.31l-2.63,1.54c-.28.16-.59.24-.89.24Z"/>
    <path class="cls-1" d="m308.01,282.44c-.85,0-1.6-.61-1.74-1.48-.16-.96.49-1.88,1.45-2.04l8.63-1.44-3.68-7.95c-.23-.5-.22-1.08.04-1.57s.73-.83,1.27-.92l8.64-1.45-3.68-7.95c-.41-.89-.02-1.94.86-2.35.89-.41,1.94-.02,2.35.86l4.65,10.06c.23.5.22,1.08-.04,1.57-.26.49-.73.83-1.27.92l-8.64,1.45,3.68,7.95c.23.5.22,1.08-.04,1.57-.26.49-.73.83-1.27.92l-10.92,1.82c-.1.02-.2.02-.29.02Z"/>
    <path class="cls-1" d="m66.08,458.79c-.19,0-.39-.03-.59-.1-.92-.32-1.41-1.33-1.09-2.26l2.09-5.95-6.3-.44c-.55-.04-1.05-.33-1.36-.79-.3-.46-.38-1.04-.19-1.56l2.08-5.96-6.3-.44c-.97-.07-1.71-.91-1.64-1.89.07-.98.93-1.7,1.89-1.64l8.61.6c.55.04,1.05.33,1.36.79.3.46.38,1.04.19,1.56l-2.08,5.96,6.3.44c.55.04,1.05.33,1.36.79.3.46.37,1.04.19,1.56l-2.85,8.14c-.26.73-.94,1.19-1.67,1.19Z"/>
    <path class="cls-1" d="m18.31,73.44c-.57,0-1.13-.27-1.47-.78l-3.92-5.81c-.31-.46-.39-1.03-.21-1.55.18-.52.59-.93,1.11-1.11l4.44-1.51-2.63-3.88c-.31-.46-.39-1.03-.21-1.56.18-.52.59-.93,1.11-1.11l6.64-2.25c.93-.31,1.93.18,2.24,1.11.31.93-.18,1.93-1.11,2.24l-4.44,1.5,2.63,3.88c.31.46.39,1.03.21,1.56-.18.52-.59.93-1.11,1.11l-4.44,1.51,2.63,3.89c.55.81.33,1.91-.48,2.46-.3.2-.65.3-.99.3Z"/>
    <path class="cls-1" d="m172.32,74.26s-.04,0-.05,0c-.98-.03-1.75-.85-1.72-1.82l.43-14.33c.02-.55.29-1.06.74-1.39.45-.32,1.02-.41,1.55-.25l11.49,3.52.36-12.01c.02-.55.29-1.06.74-1.39.45-.32,1.02-.41,1.55-.25l13.7,4.21c.94.29,1.46,1.28,1.17,2.21-.29.94-1.29,1.45-2.21,1.17l-11.48-3.53-.36,12.01c-.02.55-.29,1.06-.74,1.39-.45.32-1.02.41-1.55.25l-11.49-3.52-.36,12.01c-.03.96-.82,1.72-1.77,1.72Z"/>
    <path class="cls-1" d="m220.71,238.39c-.29,0-.58-.07-.85-.22-.86-.47-1.17-1.55-.7-2.4l2.03-3.68c.27-.48.74-.82,1.29-.9.55-.08,1.1.1,1.5.48l1.35,1.31.91-1.65c.27-.48.74-.82,1.29-.9.54-.08,1.1.1,1.5.48l3.01,2.93c.7.68.72,1.8.04,2.5-.68.7-1.8.71-2.5.04l-1.35-1.31-.9,1.64c-.27.48-.74.82-1.29.9-.55.09-1.1-.1-1.5-.48l-1.35-1.31-.91,1.65c-.32.59-.93.92-1.55.92Z"/>
    <path class="cls-1" d="m404.59,33.08c-.34,0-.69-.1-.99-.31l-3.76-2.55c-.46-.31-.74-.82-.77-1.37-.03-.55.2-1.08.62-1.44l1.69-1.44-1.84-1.25c-.46-.31-.74-.82-.77-1.37-.03-.55.2-1.09.62-1.44l3.46-2.95c.74-.64,1.86-.55,2.5.2.63.74.55,1.86-.2,2.5l-1.69,1.44,1.84,1.25c.46.31.74.82.77,1.37s-.2,1.08-.62,1.44l-1.69,1.44,1.84,1.25c.81.55,1.02,1.65.47,2.46-.34.5-.9.78-1.47.78Z"/>
    <path class="cls-1" d="m440.22,457.74c-.36,0-.72-.11-1.03-.33-.79-.57-.98-1.68-.41-2.47l5.1-7.12c.32-.45.83-.72,1.39-.74.56-.03,1.08.22,1.43.65l4.06,5,3.75-5.24c.32-.45.83-.72,1.39-.74.57-.05,1.08.23,1.43.65l5.52,6.8c.62.76.5,1.87-.26,2.49-.76.61-1.87.5-2.49-.26l-4.05-5-3.75,5.23c-.32.45-.83.72-1.39.74-.54.02-1.08-.22-1.43-.65l-4.06-5-3.75,5.24c-.35.48-.89.74-1.44.74Z"/>
    <path class="cls-1" d="m356.05,398.41c-.66,0-1.29-.37-1.6-1-.42-.88-.05-1.94.83-2.36l2.41-1.16-1.75-2.02c-.36-.42-.51-.98-.4-1.52.11-.54.47-1,.97-1.24l2.42-1.16-1.76-2.02c-.64-.74-.56-1.86.18-2.5.74-.64,1.86-.56,2.5.18l3.28,3.78c.36.42.51.98.4,1.52-.11.54-.47,1-.97,1.24l-2.41,1.16,1.76,2.02c.36.42.51.98.4,1.52-.11.54-.47,1-.97,1.24l-4.51,2.16c-.25.12-.51.17-.77.17Z"/>
    <path class="cls-1" d="m171.95,455.04c-.96,0-1.75-.77-1.77-1.73l-.31-15.03-14.41,4.28c-.53.16-1.1.06-1.55-.27-.45-.33-.71-.84-.73-1.39l-.32-15.04-14.42,4.28c-.94.28-1.92-.26-2.2-1.19-.28-.94.26-1.92,1.19-2.2l16.64-4.94c.53-.16,1.1-.06,1.55.27.45.33.71.84.73,1.39l.32,15.04,14.41-4.28c.53-.16,1.1-.06,1.55.27.45.33.71.84.73,1.39l.36,17.35c.02.98-.76,1.79-1.73,1.81h-.04Z"/>
    <path class="cls-1" d="m443.14,35.81c-.21,0-.43-.04-.64-.12l-8.47-3.27c-.51-.2-.91-.63-1.06-1.16-.15-.53-.05-1.1.28-1.55l4.01-5.44-6.3-2.43c-.52-.2-.91-.63-1.06-1.16-.15-.53-.05-1.1.28-1.55l5.4-7.3c.58-.78,1.69-.95,2.48-.37.79.58.95,1.69.37,2.48l-4.02,5.43,6.3,2.43c.52.2.91.63,1.06,1.16.15.53.05,1.1-.27,1.55l-4.01,5.44,6.3,2.44c.91.35,1.36,1.38,1.01,2.29-.27.7-.94,1.13-1.65,1.13Z"/>
    <path class="cls-1" d="m208.35,337.16c-.46,0-.91-.18-1.24-.51l-3.81-3.73c-.7-.68-.71-1.8-.02-2.5.68-.7,1.8-.71,2.5-.02l2.15,2.11,1.46-2.63c.27-.48.75-.81,1.29-.89.55-.08,1.1.1,1.49.49l2.15,2.11,1.47-2.64c.48-.85,1.56-1.16,2.41-.69.85.48,1.16,1.55.69,2.41l-2.59,4.66c-.27.48-.75.81-1.29.89-.54.08-1.1-.1-1.49-.49l-2.15-2.11-1.47,2.63c-.27.48-.75.81-1.29.89-.08.01-.17.02-.25.02Z"/>
    <path class="cls-1" d="m241.87,367.52c-.35,0-.69-.1-.99-.3l-12.79-8.57c-.81-.54-1.03-1.64-.48-2.46.54-.81,1.64-1.03,2.46-.48l10.86,7.28,4.15-12.4c.17-.52.58-.94,1.11-1.11.52-.18,1.1-.1,1.56.2l10.87,7.28,4.15-12.41c.31-.93,1.31-1.43,2.24-1.12.93.31,1.43,1.31,1.12,2.24l-4.89,14.61c-.17.52-.58.94-1.11,1.11-.52.18-1.1.1-1.56-.2l-10.87-7.28-4.15,12.41c-.17.52-.58.94-1.11,1.11-.19.06-.38.1-.57.1Z"/>
    <path class="cls-1" d="m137.31,168.57c-.36,0-.73-.11-1.03-.33l-3.38-2.42c-.8-.57-.98-1.68-.41-2.47.57-.8,1.67-.98,2.47-.41l1.49,1.06.63-1.72c.19-.52.61-.92,1.14-1.08.53-.16,1.1-.07,1.55.25l1.49,1.07.64-1.72c.34-.92,1.36-1.39,2.27-1.05.92.34,1.39,1.36,1.05,2.27l-1.44,3.9c-.19.52-.61.92-1.14,1.08-.53.16-1.1.07-1.55-.25l-1.49-1.06-.63,1.72c-.19.52-.61.92-1.14,1.08-.17.05-.35.08-.52.08Z"/>
    <path class="cls-1" d="m370.22,60.1c-.4,0-.8-.13-1.13-.41-.75-.62-.86-1.74-.23-2.49l4.58-5.53-6.55-2.96c-.5-.23-.87-.68-1-1.21-.12-.54,0-1.1.36-1.53l4.58-5.54-6.55-2.96c-.89-.4-1.29-1.45-.88-2.34s1.45-1.29,2.34-.88l8.67,3.92c.5.23.87.68,1,1.21.12.54,0,1.1-.36,1.53l-4.58,5.54,6.55,2.96c.5.23.87.68,1,1.21.12.54,0,1.1-.36,1.53l-6.07,7.32c-.35.42-.85.64-1.36.64Z"/>
    <path class="cls-1" d="m483.95,378.36c-.21,0-.42-.04-.63-.11-.52-.2-.91-.62-1.07-1.15l-2.15-7.18-6.36,3.96c-.47.29-1.05.35-1.56.15-.52-.2-.91-.62-1.07-1.15l-2.8-9.4c-.28-.94.25-1.92,1.19-2.2.93-.28,1.92.25,2.2,1.19l2.14,7.18,6.36-3.96c.47-.29,1.05-.35,1.56-.15.52.2.91.62,1.07,1.15l2.15,7.18,6.36-3.96c.83-.52,1.92-.26,2.44.57.52.83.26,1.92-.57,2.44l-8.33,5.19c-.28.18-.61.27-.94.27Z"/>
    <path class="cls-1" d="m287.73,199.39c-.2,0-.4-.03-.6-.1l-3.29-1.18c-.92-.33-1.4-1.35-1.07-2.26.33-.92,1.35-1.39,2.26-1.07l1.11.4.09-1.17c.04-.55.34-1.05.8-1.35.46-.3,1.04-.36,1.56-.18l1.11.4.09-1.18c.08-.97.93-1.7,1.9-1.63.98.08,1.7.93,1.63,1.9l-.27,3.49c-.04.55-.34,1.05-.8,1.35-.46.3-1.04.36-1.56.18l-1.11-.4-.09,1.17c-.04.55-.34,1.05-.8,1.35-.29.19-.62.28-.96.28Z"/>
    <path class="cls-1" d="m456.31,493.48c-.69,0-1.35-.41-1.64-1.09-.38-.9.05-1.94.95-2.31l1.18-.49-.79-1.01c-.34-.44-.46-1-.32-1.54.14-.53.52-.97,1.03-1.19l1.19-.49-.79-1.01c-.6-.77-.46-1.88.31-2.49.77-.6,1.88-.46,2.49.31l2.22,2.84c.34.44.46,1,.32,1.54-.14.53-.52.97-1.03,1.18l-1.19.49.79,1.01c.34.44.46,1,.32,1.54-.14.53-.52.97-1.03,1.19l-3.32,1.38c-.22.09-.45.14-.68.14Z"/>
    <path class="cls-1" d="m175.97,197.61c-.23,0-.47-.05-.69-.14l-8.65-3.69c-.51-.22-.89-.66-1.02-1.19-.14-.53-.01-1.1.33-1.54l4.4-5.56-6.52-2.78c-.51-.22-.89-.66-1.02-1.19-.14-.54-.01-1.1.33-1.54l5.85-7.36c.61-.77,1.72-.89,2.49-.29.77.61.89,1.72.29,2.49l-4.4,5.55,6.52,2.78c.51.22.89.66,1.02,1.19.14.54.01,1.1-.33,1.54l-4.4,5.56,6.52,2.78c.9.38,1.32,1.42.93,2.32-.29.67-.94,1.08-1.63,1.08Z"/>
    <path class="cls-1" d="m469.09,103.02c-.25,0-.5-.05-.75-.16l-4.29-1.99c-.5-.23-.86-.69-.98-1.22-.12-.54.02-1.1.38-1.52l1.56-1.84-2.18-1.01c-.5-.23-.86-.69-.98-1.22s.02-1.1.38-1.52l3.06-3.61c.63-.75,1.75-.84,2.5-.21.75.63.84,1.75.21,2.5l-1.55,1.83,2.18,1.01c.5.23.86.69.98,1.22.12.54-.02,1.1-.38,1.52l-1.56,1.84,2.19,1.02c.89.41,1.27,1.47.86,2.35-.3.64-.94,1.02-1.61,1.02Z"/>
    <path class="cls-1" d="m198.04,265.65c-.39,0-.79-.13-1.12-.4-.76-.62-.87-1.73-.26-2.49l1.69-2.08-2.46-1.08c-.51-.22-.88-.67-1.01-1.2-.13-.54,0-1.1.35-1.53l1.7-2.09-2.46-1.09c-.89-.39-1.3-1.44-.9-2.33.39-.89,1.44-1.3,2.33-.9l4.58,2.02c.5.22.88.67,1.01,1.2.13.54,0,1.1-.35,1.53l-1.7,2.09,2.46,1.08c.51.22.88.67,1.01,1.21.13.54,0,1.1-.35,1.53l-3.16,3.88c-.35.43-.86.65-1.37.65Z"/>
    <path class="cls-1" d="m35.91,160.84c-.97,0-1.76-.78-1.77-1.75l-.1-9.04-8.7,2.5c-.53.16-1.1.05-1.54-.28-.44-.33-.71-.85-.71-1.4l-.11-9.05-8.7,2.5c-.94.27-1.92-.27-2.19-1.21-.27-.94.27-1.92,1.21-2.19l10.93-3.14c.53-.15,1.1-.05,1.54.28.44.33.71.85.71,1.4l.11,9.05,8.7-2.5c.53-.15,1.1-.05,1.55.28.44.33.71.85.71,1.4l.13,11.37c.01.98-.77,1.78-1.75,1.79h-.02Z"/>
    <path class="cls-1" d="m14.91,188.57c-.09,0-.17,0-.26-.02l-3.42-.5c-.55-.08-1.02-.41-1.29-.89-.27-.48-.29-1.06-.07-1.57l.46-1.04-1.13-.17c-.55-.08-1.02-.41-1.29-.89-.27-.48-.29-1.06-.07-1.57l1.39-3.17c.39-.9,1.44-1.3,2.33-.91.9.39,1.3,1.44.91,2.33l-.46,1.04,1.13.17c.55.08,1.02.41,1.29.89.27.48.29,1.06.07,1.57l-.46,1.05,1.13.17c.97.14,1.64,1.04,1.49,2.01-.13.88-.89,1.51-1.75,1.51Z"/>
    <path class="cls-1" d="m233.33,274.53c-.23,0-.45-.04-.67-.13l-9.69-3.96c-.91-.37-1.34-1.4-.97-2.31.37-.9,1.4-1.34,2.31-.97l7.54,3.08.98-8.09c.07-.55.38-1.03.86-1.31.48-.28,1.05-.32,1.57-.11l7.55,3.08.98-8.09c.12-.97,1.01-1.65,1.97-1.54.97.12,1.66,1,1.54,1.97l-1.26,10.4c-.07.55-.38,1.03-.86,1.31-.48.28-1.06.32-1.57.11l-7.55-3.08-.98,8.09c-.07.55-.38,1.03-.86,1.31-.28.16-.59.24-.9.24Z"/>
    <path class="cls-1" d="m489.09,174.53c-.41,0-.82-.14-1.15-.42l-12.55-10.72c-.42-.36-.65-.89-.62-1.44s.32-1.06.77-1.37l11.74-7.97-10.79-9.21c-.42-.36-.65-.89-.62-1.44.03-.55.32-1.06.77-1.37l13.65-9.26c.81-.55,1.91-.34,2.46.47.55.81.34,1.91-.47,2.46l-11.73,7.96,10.78,9.21c.42.36.65.89.62,1.44-.03.55-.32,1.06-.77,1.37l-11.74,7.97,10.79,9.22c.74.64.83,1.75.2,2.5-.35.41-.85.62-1.35.62Z"/>
    <path class="cls-1" d="m492.91,238.35c-.54,0-1.07-.25-1.42-.71l-1.82-2.43c-.33-.44-.44-1.01-.29-1.54.15-.53.54-.96,1.05-1.16l.67-.26-.43-.58c-.33-.44-.44-1.01-.29-1.54.15-.53.54-.96,1.06-1.16l2.83-1.11c.91-.36,1.94.09,2.29,1,.36.91-.09,1.94-1,2.29l-.67.26.43.57c.33.44.44,1.01.29,1.54-.15.53-.54.96-1.05,1.16l-.67.26.43.58c.59.78.43,1.89-.36,2.48-.32.24-.69.35-1.06.35Z"/>
    <path class="cls-1" d="m243.56,494.89c-.47,0-.93-.19-1.26-.53l-5.1-5.19c-.68-.7-.68-1.82.02-2.5.7-.69,1.82-.68,2.5.02l3.47,3.54,2.49-4.29c.28-.48.76-.8,1.31-.87.55-.07,1.1.12,1.48.52l3.48,3.54,2.49-4.29c.49-.84,1.58-1.13,2.42-.64.85.49,1.13,1.57.64,2.42l-3.66,6.3c-.28.48-.76.8-1.31.87-.54.08-1.09-.12-1.48-.52l-3.48-3.54-2.49,4.29c-.28.48-.76.8-1.31.87-.07,0-.15.01-.22.01Z"/>
    <path class="cls-1" d="m272.18,17.11c-.58,0-1.14-.28-1.48-.8l-.54-.82-.65.74c-.37.41-.89.63-1.45.59-.55-.04-1.05-.33-1.35-.8l-.54-.82-.65.74c-.65.73-1.77.8-2.5.15-.73-.65-.8-1.77-.15-2.5l2.19-2.48c.37-.41.91-.62,1.45-.59.55.04,1.05.33,1.35.8l.54.82.65-.74c.37-.41.91-.63,1.45-.59.55.04,1.05.33,1.35.8l1.81,2.76c.54.82.31,1.92-.51,2.45-.3.2-.64.29-.97.29Z"/>
    <path class="cls-1" d="m372.1,218.41c-.41,0-.83-.14-1.16-.44-.74-.64-.81-1.76-.17-2.5l4.49-5.14-6.15-2.98c-.5-.24-.85-.7-.96-1.24-.11-.54.04-1.1.4-1.52l4.49-5.15-6.15-2.98c-.88-.43-1.25-1.48-.82-2.36.43-.88,1.49-1.25,2.36-.82l8.24,3.99c.5.24.85.7.96,1.24.11.54-.04,1.1-.4,1.52l-4.49,5.15,6.15,2.98c.5.24.85.7.96,1.24.11.54-.04,1.1-.4,1.52l-6.02,6.88c-.35.4-.84.61-1.33.61Z"/>
    <path class="cls-1" d="m103.23,256c-.92,0-1.69-.71-1.76-1.64-.07-.98.66-1.82,1.63-1.9l9.05-.67-3.05-8.55c-.19-.52-.12-1.1.18-1.56.3-.46.8-.76,1.35-.8l9.06-.68-3.05-8.56c-.33-.92.15-1.93,1.07-2.26.92-.33,1.93.15,2.26,1.07l3.83,10.74c.19.52.12,1.1-.18,1.56-.3.46-.8.76-1.35.8l-9.06.68,3.05,8.55c.19.52.12,1.1-.18,1.56-.3.46-.8.76-1.35.8l-11.36.85s-.09,0-.13,0Z"/>
    <path class="cls-1" d="m41.5,117c-.59,0-1.18-.3-1.51-.84-.51-.83-.25-1.92.58-2.43l8.17-5.02-7.01-6.55c-.4-.38-.61-.92-.55-1.47.06-.55.36-1.04.83-1.33l8.18-5.04-7.01-6.56c-.71-.67-.75-1.79-.08-2.5.67-.71,1.79-.75,2.5-.08l8.71,8.14c.4.38.61.92.55,1.47-.06.55-.36,1.04-.83,1.33l-8.18,5.04,7.01,6.55c.4.38.61.92.55,1.47-.06.55-.36,1.04-.84,1.33l-10.15,6.24c-.29.18-.61.26-.92.26Z"/>
    <path class="cls-1" d="m197.63,18.8c-.09,0-.17,0-.26-.02-.55-.08-1.02-.41-1.29-.89l-.98-1.76-1.44,1.41c-.4.39-.95.57-1.49.48-.55-.08-1.02-.41-1.29-.89l-2.1-3.79c-.47-.85-.16-1.93.69-2.41.86-.48,1.93-.16,2.41.69l.97,1.76,1.44-1.41c.4-.39.94-.57,1.49-.48.55.08,1.02.41,1.29.89l.98,1.76,1.44-1.41c.7-.68,1.82-.67,2.5.03.68.7.67,1.82-.03,2.5l-3.1,3.03c-.33.33-.78.5-1.24.5Z"/>
    <path class="cls-1" d="m109.69,492.73c-.33,0-.66-.09-.95-.28-.82-.53-1.06-1.62-.53-2.45l3.58-5.58c.3-.47.8-.76,1.35-.81.55-.05,1.09.17,1.46.58l2.88,3.2,2.33-3.63c.3-.47.8-.76,1.35-.81.56-.05,1.09.17,1.46.58l4.43,4.93c.65.73.59,1.85-.13,2.5-.73.65-1.85.59-2.5-.13l-2.88-3.2-2.32,3.62c-.3.46-.8.76-1.35.81-.56.05-1.09-.17-1.46-.58l-2.88-3.2-2.33,3.63c-.34.53-.91.81-1.49.81Z"/>
    <path class="cls-1" d="m490.66,493.6c-.35,0-.71-.1-1.02-.32l-2.94-2.07c-.45-.32-.73-.83-.75-1.38-.02-.55.21-1.08.64-1.43l.98-.81-1.04-.73c-.45-.32-.73-.83-.75-1.38-.02-.55.22-1.08.64-1.43l2.77-2.29c.75-.62,1.87-.52,2.49.24.62.75.52,1.87-.24,2.49l-.98.81,1.04.73c.45.32.73.83.75,1.38.02.55-.21,1.08-.64,1.43l-.98.81,1.04.73c.8.56.99,1.67.43,2.47-.34.49-.89.75-1.45.75Z"/>
    <path class="cls-1" d="m436.45,368.11c-.05,0-.11,0-.16,0l-11.61-1.07c-.97-.09-1.69-.95-1.6-1.93.09-.97.93-1.7,1.93-1.6l9.3.86-1.63-9.2c-.1-.54.07-1.1.44-1.51.37-.41.92-.62,1.47-.56l9.31.85-1.63-9.2c-.17-.96.47-1.88,1.43-2.05.97-.17,1.88.47,2.05,1.43l2.04,11.49c.1.54-.07,1.1-.44,1.51-.37.41-.91.61-1.47.56l-9.31-.85,1.63,9.2c.1.54-.07,1.1-.44,1.51-.34.37-.81.57-1.3.57Z"/>
    <path class="cls-1" d="m123.35,405.61c-.36,0-.72-.11-1.02-.33l-4.74-3.35c-.8-.56-.99-1.67-.42-2.47.56-.8,1.67-.99,2.47-.42l2.84,2.01,1.19-3.28c.19-.52.61-.92,1.13-1.09.53-.17,1.1-.08,1.55.24l2.85,2.01,1.19-3.28c.33-.92,1.35-1.39,2.27-1.06.92.33,1.39,1.35,1.06,2.27l-1.98,5.46c-.19.52-.61.92-1.13,1.08-.53.16-1.1.08-1.55-.24l-2.85-2.01-1.19,3.28c-.19.52-.61.92-1.14,1.09-.17.05-.35.08-.53.08Z"/>
    <path class="cls-1" d="m403.09,350.74c-.45,0-.89-.17-1.22-.49l-2.28-2.18c-.71-.68-.73-1.8-.06-2.5.67-.71,1.8-.73,2.5-.06l.6.58.4-.73c.26-.49.74-.82,1.28-.91.55-.09,1.1.09,1.5.47l.61.58.4-.74c.47-.86,1.54-1.18,2.4-.72.86.47,1.18,1.54.72,2.4l-1.5,2.78c-.26.48-.74.82-1.28.91-.54.09-1.1-.09-1.5-.47l-.61-.58-.4.74c-.26.49-.74.82-1.28.91-.09.01-.18.02-.28.02Z"/>
    <path class="cls-1" d="m54.53,314.84c-.33,0-.66-.09-.96-.28l-3.27-2.1c-.46-.3-.76-.8-.81-1.35-.04-.55.17-1.09.58-1.46l1.16-1.05-1.31-.85c-.47-.3-.76-.8-.81-1.35-.04-.55.17-1.09.58-1.46l2.89-2.59c.73-.65,1.85-.59,2.5.14.65.73.59,1.85-.14,2.5l-1.16,1.04,1.31.85c.46.3.76.8.81,1.35.04.55-.17,1.09-.58,1.46l-1.16,1.05,1.32.85c.82.53,1.06,1.62.53,2.45-.34.53-.91.81-1.49.81Z"/>
    <path class="cls-1" d="m488.51,105.98c-.6,0-1.18-.3-1.52-.85-.51-.84-.24-1.92.59-2.43l1.2-.73-1.02-.96c-.4-.38-.6-.92-.54-1.47.06-.55.37-1.04.84-1.33l1.2-.73-1.02-.97c-.71-.67-.74-1.79-.07-2.5.67-.71,1.79-.74,2.5-.07l2.71,2.56c.4.38.6.92.54,1.47-.06.55-.37,1.04-.84,1.33l-1.2.73,1.02.96c.4.38.6.92.54,1.47-.06.55-.37,1.04-.84,1.33l-3.18,1.93c-.29.17-.6.26-.92.26Z"/>
    <path class="cls-1" d="m410.55,460.19c-.75,0-1.45-.48-1.69-1.23-.3-.93.22-1.93,1.15-2.22l2.57-.82-1.47-2.26c-.3-.46-.37-1.04-.18-1.56.18-.52.6-.92,1.13-1.09l2.58-.82-1.47-2.27c-.53-.82-.3-1.92.52-2.45.82-.53,1.92-.3,2.45.52l2.74,4.21c.3.46.37,1.04.18,1.56-.18.52-.6.92-1.13,1.09l-2.58.82,1.47,2.27c.3.46.37,1.04.18,1.56-.19.52-.6.92-1.13,1.09l-4.78,1.53c-.18.06-.36.08-.54.08Z"/>
    <path class="cls-1" d="m72.5,125.21c-.7,0-1.36-.41-1.64-1.1-.37-.9.06-1.94.97-2.31l10.11-4.15-6.68-8.65c-.34-.44-.45-1.01-.31-1.54.14-.53.53-.97,1.04-1.18l10.12-4.16-6.68-8.66c-.6-.77-.45-1.89.32-2.48.77-.6,1.89-.46,2.48.32l8.1,10.5c.34.44.45,1.01.31,1.54-.14.53-.53.97-1.04,1.18l-10.12,4.16,6.69,8.65c.34.44.45,1.01.31,1.54-.14.53-.53.97-1.04,1.18l-12.26,5.03c-.22.09-.45.13-.67.13Z"/>
    <path class="cls-1" d="m491.35,205.14c-.76,0-1.46-.49-1.69-1.26l-1.7-5.63-4.98,3.13c-.47.29-1.05.35-1.56.16-.52-.19-.91-.62-1.07-1.15l-1.7-5.64-4.99,3.13c-.83.52-1.92.27-2.44-.56-.52-.83-.27-1.92.56-2.44l6.95-4.36c.47-.29,1.05-.35,1.56-.16.52.19.91.62,1.07,1.15l1.7,5.64,4.98-3.13c.47-.29,1.05-.35,1.56-.16.52.19.91.62,1.07,1.15l2.37,7.85c.28.94-.25,1.92-1.18,2.21-.17.05-.34.08-.51.08Z"/>
    <path class="cls-1" d="m329.99,196.93c-.43,0-.84-.15-1.17-.44l-5.29-4.63c-.74-.64-.81-1.76-.17-2.5.64-.73,1.76-.81,2.5-.17l3.54,3.1,2.05-4.24c.24-.5.7-.85,1.24-.96.54-.11,1.1.04,1.52.4l3.55,3.1,2.06-4.24c.43-.88,1.49-1.25,2.36-.82.88.43,1.25,1.49.82,2.36l-3.07,6.33c-.24.5-.7.85-1.24.96-.54.11-1.1-.04-1.52-.4l-3.55-3.1-2.05,4.24c-.24.5-.7.85-1.24.96-.12.02-.24.04-.35.04Z"/>
    <path class="cls-1" d="m276.37,402.33c-.22,0-.44-.04-.64-.12-.51-.2-.9-.63-1.06-1.16l-1.3-4.52-4.01,2.44c-.47.29-1.05.34-1.56.14-.51-.2-.91-.63-1.06-1.16l-1.93-6.75c-.27-.94.27-1.92,1.21-2.19.93-.27,1.92.27,2.19,1.21l1.29,4.51,4.01-2.44c.47-.29,1.05-.34,1.56-.14.51.2.91.63,1.06,1.16l1.3,4.52,4.02-2.44c.83-.51,1.92-.24,2.43.59.51.84.24,1.92-.59,2.43l-6,3.65c-.28.17-.6.26-.92.26Z"/>
    <path class="cls-1" d="m12.74,254.04c-.57,0-1.12-.27-1.47-.77-.55-.81-.34-1.91.47-2.46l9.98-6.79-9.2-7.83c-.42-.36-.65-.89-.62-1.44.03-.55.31-1.06.77-1.37l9.99-6.81-9.2-7.84c-.74-.63-.83-1.75-.2-2.5.63-.75,1.75-.83,2.5-.2l10.97,9.34c.42.36.65.89.62,1.44-.03.55-.31,1.06-.77,1.37l-9.99,6.81,9.2,7.83c.42.36.65.89.62,1.44s-.32,1.06-.77,1.37l-11.9,8.1c-.3.21-.65.31-.99.31Z"/>
    <path class="cls-1" d="m294.78,239.85c-.09,0-.18,0-.27-.02-.97-.15-1.63-1.05-1.48-2.02l1.41-9.13c.08-.55.42-1.02.9-1.28s1.06-.29,1.57-.06l6.31,2.82,1.05-6.83c.08-.55.42-1.02.9-1.29.49-.26,1.06-.29,1.57-.06l8.42,3.77c.89.4,1.29,1.45.89,2.34-.4.89-1.45,1.29-2.34.89l-6.3-2.82-1.05,6.83c-.08.55-.42,1.02-.9,1.29-.48.26-1.06.29-1.57.06l-6.31-2.82-1.06,6.83c-.14.87-.89,1.5-1.75,1.5Z"/>
    <path class="cls-1" d="m155.3,347.69c-.59,0-1.17-.29-1.5-.83-.52-.83-.27-1.92.56-2.44l7.21-4.52-6.27-5.76c-.41-.37-.62-.91-.57-1.47.05-.55.35-1.04.82-1.34l7.21-4.53-6.27-5.76c-.72-.66-.77-1.78-.11-2.5.66-.72,1.78-.77,2.5-.11l7.98,7.33c.41.37.62.91.57,1.46-.05.55-.35,1.04-.82,1.34l-7.21,4.53,6.27,5.76c.41.37.62.92.57,1.47-.05.55-.35,1.05-.82,1.34l-9.18,5.76c-.29.18-.62.27-.94.27Z"/>
    <path class="cls-1" d="m489.48,27.44c-.8,0-1.53-.55-1.72-1.37l-1.65-7.09-6.4,3.47c-.48.26-1.06.28-1.57.06-.5-.23-.87-.67-1-1.21l-1.66-7.09-6.41,3.47c-.86.47-1.93.15-2.4-.71-.47-.86-.15-1.93.71-2.4l8.44-4.58c.48-.26,1.06-.28,1.57-.06.5.23.87.67,1,1.21l1.66,7.09,6.4-3.47c.49-.26,1.07-.28,1.57-.06.5.23.87.67,1,1.21l2.18,9.35c.22.95-.37,1.9-1.32,2.13-.13.03-.27.05-.4.05Z"/>
    <path class="cls-1" d="m284.55,89.93c-.51,0-.99-.22-1.33-.6l-10.4-11.78c-.65-.73-.58-1.85.16-2.5.73-.65,1.85-.58,2.5.16l8.86,10.04,7.34-11.21c.3-.46.8-.76,1.35-.8.56-.03,1.09.18,1.45.59l8.88,10.04,7.34-11.21c.54-.82,1.63-1.05,2.45-.51.82.54,1.05,1.63.51,2.45l-8.61,13.15c-.3.46-.8.76-1.35.8-.55.03-1.09-.18-1.45-.59l-8.88-10.04-7.34,11.21c-.3.46-.8.76-1.35.8-.04,0-.08,0-.13,0Z"/>
    <path class="cls-1" d="m132.14,292.35c-.14,0-.28-.02-.43-.05l-11.05-2.73c-.95-.23-1.53-1.19-1.29-2.14s1.19-1.53,2.14-1.29l8.8,2.17-.23-9.06c-.01-.55.23-1.08.66-1.43.43-.34,1-.47,1.53-.34l8.81,2.17-.23-9.07c-.02-.98.75-1.79,1.72-1.81.96-.07,1.79.75,1.81,1.72l.29,11.39c.01.55-.23,1.08-.66,1.42-.43.35-1,.47-1.53.34l-8.81-2.17.23,9.06c.01.55-.23,1.08-.66,1.43-.32.26-.71.39-1.11.39Z"/>
    <path class="cls-1" d="m172.77,492.66c-.57,0-1.13-.28-1.48-.79l-4.9-7.37-5.81,6.68c-.36.42-.88.64-1.45.61-.55-.04-1.05-.33-1.36-.78l-4.91-7.37-5.81,6.68c-.64.74-1.76.82-2.5.17-.74-.64-.82-1.76-.17-2.5l7.34-8.43c.36-.42.9-.65,1.45-.61.55.04,1.05.33,1.36.78l4.91,7.37,5.81-6.68c.36-.42.9-.63,1.45-.61.55.04,1.05.33,1.36.79l6.19,9.3c.54.81.32,1.91-.49,2.45-.3.2-.64.3-.98.3Z"/>
    <path class="cls-1" d="m329.3,309.91c-.36,0-.72-.11-1.03-.33-.79-.57-.97-1.68-.4-2.47l2.25-3.13c.32-.45.83-.72,1.39-.74.53-.03,1.08.23,1.43.66l.96,1.19.89-1.24c.32-.45.84-.72,1.39-.74.57-.03,1.08.23,1.43.66l2.42,2.99c.62.76.5,1.87-.26,2.49-.76.61-1.87.5-2.49-.26l-.96-1.19-.89,1.24c-.32.45-.84.72-1.39.74-.54.02-1.08-.23-1.43-.66l-.96-1.19-.89,1.24c-.35.48-.89.74-1.44.74Z"/>
    <path class="cls-1" d="m415.25,281.73c-.16,0-.31-.02-.47-.06-.53-.15-.97-.53-1.17-1.04l-3.22-7.95-6.82,5.21c-.44.33-1.01.45-1.54.3-.53-.15-.97-.53-1.17-1.04l-4.08-10.1c-.37-.91.07-1.94.98-2.31.91-.36,1.94.07,2.31.98l3.21,7.95,6.82-5.21c.44-.33,1.01-.44,1.54-.3.53.15.97.53,1.17,1.04l3.22,7.95,6.82-5.21c.78-.59,1.89-.44,2.48.33.59.78.44,1.89-.33,2.48l-8.67,6.61c-.31.24-.69.36-1.07.36Z"/>
    <path class="cls-1" d="m291.7,47.99c-.69,0-1.34-.4-1.63-1.07-.39-.9.03-1.94.93-2.33l11.2-4.81-7.61-9.53c-.34-.43-.47-1-.33-1.53.13-.54.51-.98,1.02-1.2l11.21-4.82-7.61-9.54c-.61-.76-.48-1.88.28-2.49.76-.61,1.88-.48,2.49.28l9.05,11.35c.34.43.47,1,.33,1.53-.13.54-.51.98-1.02,1.2l-11.21,4.82,7.61,9.53c.34.43.47,1,.33,1.54-.13.54-.51.98-1.02,1.2l-13.34,5.72c-.23.1-.47.14-.7.14Z"/>
    <path class="cls-1" d="m385.64,244.98c-.47,0-.92-.18-1.25-.52l-5.44-5.43c-.69-.69-.69-1.81,0-2.5.69-.69,1.81-.69,2.5,0l3.8,3.79,2.65-4.67c.27-.48.75-.81,1.3-.88.55-.08,1.1.11,1.49.5l3.81,3.79,2.65-4.67c.48-.85,1.57-1.15,2.41-.66.85.48,1.15,1.56.66,2.41l-3.8,6.69c-.27.48-.75.8-1.3.88-.54.08-1.1-.11-1.49-.5l-3.81-3.79-2.65,4.67c-.27.48-.75.81-1.3.88-.08.01-.16.02-.24.02Z"/>
    <path class="cls-1" d="m76.49,183.8c-.48,0-.96-.19-1.31-.57l-8.68-9.47c-.37-.41-.54-.96-.44-1.51s.44-1.01.93-1.26l9.36-4.82-7.12-7.75c-.37-.41-.54-.96-.44-1.51.1-.54.44-1.01.93-1.26l11.42-5.87c.87-.45,1.94-.1,2.38.77.45.87.1,1.94-.77,2.38l-9.36,4.8,7.11,7.75c.37.41.53.96.44,1.51-.1.54-.44,1.01-.93,1.26l-9.36,4.82,7.11,7.76c.66.72.61,1.84-.11,2.5-.34.31-.77.47-1.2.47Z"/>
    <path class="cls-1" d="m82.59,495.33c-.57,0-1.13-.27-1.47-.78l-6.47-9.63-7.58,8.8c-.36.42-.89.66-1.45.61-.55-.03-1.06-.32-1.36-.78l-6.49-9.64-7.58,8.8c-.64.74-1.76.82-2.5.18-.74-.64-.82-1.76-.18-2.5l9.1-10.55c.36-.42.89-.65,1.45-.61.55.03,1.05.32,1.36.78l6.48,9.64,7.58-8.8c.36-.42.9-.64,1.45-.61.55.03,1.06.32,1.36.78l7.77,11.56c.55.81.33,1.91-.48,2.46-.3.2-.65.3-.99.3Z"/>
    <path class="cls-1" d="m203.97,97.38c-.62,0-1.23-.33-1.55-.92l-2.63-4.78c-.27-.48-.29-1.06-.07-1.57.22-.5.67-.88,1.21-1.01l3.05-.73-1.51-2.74c-.27-.48-.29-1.06-.07-1.57.22-.5.67-.88,1.21-1.01l5.3-1.27c.95-.23,1.91.36,2.13,1.31.23.95-.36,1.91-1.31,2.13l-3.04.73,1.51,2.74c.27.48.29,1.06.07,1.57-.22.51-.67.88-1.21,1.01l-3.05.73,1.51,2.75c.47.86.16,1.93-.7,2.4-.27.15-.56.22-.85.22Z"/>
    <path class="cls-1" d="m210.19,199.8c-.47,0-.93-.18-1.28-.55-.68-.71-.65-1.83.05-2.5l7.51-7.2-8.94-5.34c-.47-.28-.79-.77-.85-1.32-.06-.55.13-1.09.53-1.48l7.52-7.21-8.94-5.35c-.84-.5-1.11-1.59-.61-2.43s1.59-1.11,2.43-.61l10.93,6.54c.47.28.79.77.85,1.32.06.55-.13,1.09-.53,1.48l-7.51,7.21,8.94,5.34c.47.28.79.77.85,1.32.06.55-.14,1.1-.53,1.48l-9.19,8.81c-.34.33-.78.49-1.22.49Z"/>
    <path class="cls-1" d="m426.4,321.96c-.1,0-.21,0-.31-.03-.54-.1-1.01-.44-1.26-.93l-6.23-12.14-10.06,9.22c-.41.37-.97.53-1.51.44-.54-.1-1.01-.44-1.26-.94l-7.28-14.2c-.45-.87-.1-1.94.77-2.38.87-.45,1.94-.1,2.38.77l6.22,12.14,10.06-9.22c.41-.37.96-.53,1.51-.44.54.1,1.01.44,1.26.93l6.23,12.14,10.07-9.22c.72-.66,1.84-.61,2.5.11.66.72.61,1.84-.11,2.5l-11.78,10.78c-.33.3-.76.46-1.2.46Z"/>
    <path class="cls-1" d="m253.28,321.5c-.16,0-.32-.02-.49-.07l-7.72-2.2c-.53-.15-.96-.54-1.16-1.06-.2-.51-.15-1.09.13-1.56l2.96-4.88-5.49-1.56c-.53-.15-.96-.54-1.16-1.06-.2-.51-.15-1.09.13-1.57l4.16-6.86c.51-.84,1.6-1.1,2.43-.6.84.51,1.1,1.6.6,2.43l-2.96,4.88,5.49,1.56c.53.15.96.54,1.16,1.05.2.51.15,1.09-.13,1.56l-2.96,4.88,5.49,1.56c.94.27,1.49,1.25,1.22,2.19-.22.78-.93,1.29-1.7,1.29Z"/>
    <path class="cls-1" d="m327.54,119.35c-.17,0-.34-.02-.51-.07l-3.83-1.14c-.94-.28-1.47-1.27-1.19-2.2.28-.94,1.27-1.47,2.2-1.19l1.6.48.04-1.67c.01-.55.28-1.07.73-1.39.44-.33,1.02-.42,1.55-.27l1.61.48.04-1.68c.02-.96.81-1.73,1.77-1.73h.04c.98.02,1.75.83,1.73,1.81l-.09,4c-.01.55-.28,1.07-.73,1.39-.45.32-1.02.42-1.55.27l-1.61-.48-.04,1.68c-.01.55-.28,1.07-.73,1.39-.31.22-.67.34-1.04.34Z"/>
    <path class="cls-1" d="m188.82,149.35c-.18,0-.35-.03-.53-.08l-12.53-3.9c-.93-.29-1.46-1.28-1.17-2.22.29-.93,1.28-1.46,2.22-1.17l10.31,3.21.36-10.8c.02-.55.29-1.06.74-1.38.45-.32,1.02-.41,1.55-.25l10.33,3.2.37-10.8c.03-.98.88-1.74,1.83-1.71.98.03,1.74.85,1.71,1.83l-.45,13.12c-.02.55-.29,1.06-.74,1.38-.45.32-1.03.41-1.55.25l-10.33-3.2-.36,10.8c-.02.55-.29,1.06-.74,1.38-.3.22-.66.33-1.03.33Z"/>
    <path class="cls-1" d="m274.15,285.31c-.07,0-.14,0-.21-.01l-10.01-1.18c-.97-.12-1.67-1-1.55-1.97.11-.97,1.01-1.66,1.97-1.55l7.71.91-1.16-7.68c-.08-.55.09-1.1.48-1.5.38-.4.93-.59,1.48-.53l7.72.91-1.16-7.68c-.15-.97.52-1.87,1.49-2.01.97-.14,1.87.52,2.01,1.49l1.51,9.98c.08.55-.09,1.1-.48,1.5s-.92.59-1.48.53l-7.72-.91,1.16,7.68c.08.55-.09,1.1-.48,1.5-.34.35-.8.54-1.27.54Z"/>
    <path class="cls-1" d="m422.41,133.87c-.93,0-1.71-.73-1.77-1.67l-.62-11.02-10.47,3.51c-.52.17-1.1.1-1.56-.21-.46-.31-.74-.82-.78-1.37l-.62-11.03-10.48,3.51c-.93.31-1.93-.19-2.24-1.12-.31-.93.19-1.93,1.12-2.24l12.68-4.25c.52-.17,1.1-.1,1.56.21.46.31.74.82.77,1.37l.62,11.03,10.47-3.51c.53-.17,1.1-.1,1.56.21.46.31.74.82.77,1.37l.75,13.34c.05.98-.69,1.81-1.67,1.87-.03,0-.07,0-.1,0Z"/>
    <path class="cls-1" d="m98.64,435.76c-.22,0-.44-.04-.66-.13-.91-.37-1.35-1.4-.98-2.3l1.87-4.65c.21-.51.64-.9,1.17-1.04.53-.15,1.1-.04,1.54.3l2.14,1.63,1.01-2.5c.21-.51.64-.9,1.17-1.05.53-.15,1.1-.04,1.54.3l3.98,3.04c.78.59.93,1.7.34,2.48-.59.78-1.7.93-2.48.34l-2.14-1.63-1,2.49c-.21.51-.64.9-1.17,1.04-.53.15-1.1.04-1.54-.3l-2.14-1.63-1.01,2.5c-.28.69-.94,1.11-1.64,1.11Z"/>
    <path class="cls-1" d="m407.01,426.39c-.86,0-1.61-.62-1.75-1.5-.15-.97.51-1.87,1.48-2.02l13.5-2.1-5.6-12.47c-.23-.5-.2-1.08.06-1.57.26-.49.74-.82,1.28-.9l13.51-2.11-5.6-12.48c-.4-.89,0-1.94.89-2.34.9-.4,1.94,0,2.34.89l6.55,14.59c.23.5.2,1.08-.06,1.57-.26.49-.74.82-1.28.91l-13.51,2.11,5.6,12.47c.23.5.2,1.08-.06,1.57-.26.48-.74.82-1.28.9l-15.8,2.45c-.09.01-.18.02-.27.02Z"/>
    <path class="cls-1" d="m307.66,165.69h-.01l-8.95-.07c-.98,0-1.76-.81-1.76-1.78,0-.97.8-1.76,1.77-1.76h.01l6.62.05-1.7-6.4c-.14-.53-.03-1.1.31-1.54s.88-.7,1.41-.69l6.63.05-1.7-6.41c-.25-.95.31-1.91,1.26-2.17.95-.25,1.92.31,2.17,1.26l2.3,8.65c.14.53.03,1.1-.31,1.54-.34.44-.83.7-1.41.69l-6.63-.05,1.7,6.41c.14.53.03,1.1-.31,1.54-.34.43-.85.69-1.4.69Z"/>
    <path class="cls-1" d="m487.83,270.39c-.81,0-1.54-.56-1.72-1.38-.22-.95.38-1.9,1.33-2.12l.92-.21-.45-.84c-.26-.49-.28-1.07-.05-1.57.23-.5.68-.87,1.22-.99l.93-.21-.45-.84c-.46-.86-.14-1.93.72-2.4.86-.46,1.93-.14,2.4.72l1.55,2.88c.26.49.28,1.07.05,1.57-.23.5-.68.87-1.22.99l-.93.21.45.84c.26.49.28,1.07.05,1.57-.23.5-.68.87-1.22.99l-3.19.73c-.13.03-.27.04-.4.04Z"/>
    <path class="cls-1" d="m64.68,62.07c-.49,0-.97-.21-1.3-.57l-11.69-12.72c-.66-.72-.61-1.84.11-2.5.72-.66,1.84-.61,2.5.11l10.12,11.01,7.94-12.68c.29-.47.79-.77,1.34-.82.55-.06,1.09.16,1.47.56l10.13,11.01,7.95-12.68c.52-.83,1.61-1.08,2.44-.56.83.52,1.08,1.61.56,2.44l-9.18,14.64c-.29.47-.79.77-1.34.82-.55.05-1.09-.16-1.47-.56l-10.13-11.01-7.94,12.68c-.29.47-.79.77-1.34.82-.05,0-.11,0-.16,0Z"/>
    <path class="cls-1" d="m256.34,428.71c-.09,0-.19,0-.28-.02-.97-.15-1.62-1.06-1.47-2.03l.45-2.86c.09-.55.42-1.02.91-1.28.49-.26,1.06-.28,1.57-.06l.52.24.09-.57c.09-.55.42-1.02.91-1.28.49-.26,1.07-.28,1.57-.05l2.64,1.19c.89.4,1.29,1.45.88,2.34-.4.89-1.45,1.29-2.34.88l-.52-.24-.09.57c-.09.55-.42,1.02-.91,1.28-.49.26-1.06.28-1.57.06l-.53-.24-.09.57c-.14.87-.89,1.49-1.75,1.49Z"/>
    <path class="cls-1" d="m236.71,150.83s-.06,0-.08,0c-.98-.04-1.73-.87-1.69-1.85l.04-.84-.82.19c-.54.12-1.1-.02-1.53-.37-.42-.35-.66-.89-.63-1.44l.04-.85-.83.19c-.96.22-1.9-.38-2.12-1.34-.22-.95.38-1.9,1.34-2.12l3.09-.7c.54-.12,1.1.02,1.53.37.42.35.66.89.63,1.44l-.04.85.83-.19c.54-.12,1.1.01,1.53.37.42.35.66.89.63,1.44l-.14,3.16c-.04.95-.83,1.69-1.77,1.69Z"/>
    <path class="cls-1" d="m16.04,384.73c-.43,0-.86-.15-1.2-.47-.72-.66-.76-1.78-.1-2.5l3.5-3.79-4.58-2.37c-.49-.25-.84-.72-.93-1.26-.1-.54.07-1.1.44-1.51l3.5-3.8-4.59-2.37c-.87-.45-1.21-1.52-.76-2.39.45-.87,1.52-1.21,2.39-.76l6.65,3.44c.49.25.83.72.93,1.26.1.54-.07,1.1-.44,1.51l-3.5,3.8,4.59,2.37c.49.25.84.72.93,1.27s-.07,1.1-.44,1.51l-5.07,5.5c-.35.38-.82.57-1.3.57Z"/>
    <path class="cls-1" d="m494.72,68.33c-.59,0-1.17-.3-1.5-.83l-7.02-11.26-9,9.76c-.37.41-.91.62-1.47.56-.55-.05-1.04-.36-1.34-.82l-7.04-11.26-9.01,9.76c-.66.72-1.78.76-2.5.1-.72-.66-.76-1.78-.1-2.5l10.58-11.46c.38-.4.92-.61,1.47-.56.55.05,1.04.36,1.34.82l7.04,11.26,9-9.76c.37-.41.92-.61,1.47-.56.55.05,1.04.36,1.34.83l8.25,13.23c.52.83.26,1.92-.57,2.44-.29.18-.62.27-.94.27Z"/>
    <path class="cls-1" d="m19.82,303.35c-.55,0-1.09-.25-1.44-.73l-5.83-8.05c-.32-.45-.42-1.02-.26-1.55.16-.53.55-.95,1.07-1.15l7.13-2.68-4.47-6.17c-.32-.45-.42-1.02-.26-1.55.16-.53.56-.95,1.07-1.15l9.3-3.49c.92-.34,1.94.12,2.28,1.03.34.92-.12,1.94-1.03,2.28l-7.12,2.67,4.47,6.16c.32.45.42,1.02.26,1.55-.16.53-.55.95-1.07,1.15l-7.13,2.68,4.47,6.17c.57.79.4,1.9-.4,2.47-.31.23-.68.34-1.04.34Z"/>
    <path class="cls-1" d="m322.88,419.04c-.56,0-1.12-.27-1.46-.77l-7.12-10.35c-.31-.45-.4-1.03-.22-1.55.17-.52.58-.94,1.1-1.12l9.67-3.37-5.81-8.43c-.31-.45-.4-1.03-.22-1.55.17-.52.58-.94,1.1-1.12l11.85-4.13c.92-.32,1.93.17,2.25,1.09.32.92-.17,1.93-1.09,2.25l-9.66,3.36,5.8,8.43c.31.45.4,1.03.22,1.55-.17.53-.58.94-1.1,1.12l-9.67,3.37,5.81,8.43c.55.81.35,1.91-.45,2.46-.31.21-.66.31-1,.31Z"/>
    <path class="cls-1" d="m245.64,212.6c-.14,0-.28-.02-.42-.05l-9.23-2.25c-.95-.23-1.53-1.19-1.3-2.14.23-.95,1.19-1.53,2.14-1.3l6.98,1.7-.21-7.18c-.02-.55.23-1.08.65-1.43.43-.35.99-.48,1.53-.35l6.99,1.69-.21-7.19c-.03-.98.74-1.79,1.72-1.82.95-.03,1.79.74,1.82,1.72l.28,9.5c.02.55-.23,1.08-.66,1.43-.43.35-.99.48-1.53.34l-6.99-1.69.21,7.18c.02.55-.23,1.08-.66,1.43-.32.26-.71.39-1.11.39Z"/>
    <path class="cls-1" d="m372.66,309.96c-.24,0-.47-.05-.69-.14l-3.43-1.45c-.9-.38-1.32-1.42-.94-2.32.38-.9,1.42-1.32,2.32-.94l1.29.55.19-1.39c.07-.55.4-1.03.88-1.3.48-.27,1.06-.31,1.57-.09l1.29.55.19-1.39c.13-.97,1.02-1.64,1.99-1.52.97.13,1.65,1.02,1.52,1.99l-.5,3.69c-.07.55-.4,1.03-.88,1.3-.48.27-1.06.31-1.57.09l-1.29-.55-.19,1.39c-.07.55-.4,1.03-.88,1.3-.27.15-.57.23-.88.23Z"/>
    <path class="cls-1" d="m101.54,378.85c-.27,0-.54-.06-.8-.19-.87-.44-1.22-1.51-.78-2.38l7.3-14.37c.25-.49.71-.84,1.26-.94.55-.1,1.1.06,1.51.43l10.22,9.27,6.24-12.3c.25-.49.71-.84,1.26-.94.54-.1,1.1.06,1.51.43l11.92,10.83c.72.66.78,1.78.12,2.5-.66.72-1.78.78-2.5.12l-10.2-9.27-6.24,12.3c-.25.49-.71.84-1.26.94-.54.1-1.1-.06-1.51-.43l-10.22-9.27-6.25,12.3c-.31.62-.93.97-1.58.97Z"/>
    <path class="cls-1" d="m211.21,494.13c-.79,0-1.5-.53-1.71-1.32l-1.74-6.65-5.95,3.44c-.48.28-1.06.32-1.57.1-.51-.21-.89-.65-1.03-1.18l-1.75-6.65-5.96,3.45c-.84.49-1.93.2-2.42-.65-.49-.85-.2-1.93.65-2.42l7.96-4.61c.48-.28,1.06-.31,1.57-.1.51.21.89.65,1.03,1.18l1.75,6.65,5.95-3.45c.48-.28,1.06-.31,1.57-.1.51.21.89.65,1.03,1.19l2.33,8.89c.25.95-.32,1.91-1.26,2.16-.15.04-.3.06-.45.06Z"/>
    <path class="cls-1" d="m72.79,230.79c-.26,0-.52-.06-.76-.17l-11.53-5.51c-.88-.42-1.26-1.48-.83-2.36.42-.88,1.48-1.25,2.36-.83l9.43,4.51,1.85-10.29c.1-.54.44-1.01.93-1.26.49-.25,1.07-.26,1.57-.02l9.45,4.51,1.85-10.3c.17-.96,1.09-1.6,2.06-1.43.96.17,1.6,1.09,1.43,2.06l-2.26,12.58c-.1.54-.44,1.01-.94,1.26-.49.25-1.07.26-1.57.02l-9.44-4.5-1.85,10.29c-.1.54-.44,1.01-.94,1.26-.25.13-.53.19-.81.19Z"/>
    <path class="cls-1" d="m257.21,59.89c-.54,0-1.08-.25-1.42-.72-.58-.79-.42-1.89.37-2.48l4.96-3.67-4.85-3.81c-.43-.34-.68-.87-.68-1.42,0-.55.27-1.07.72-1.4l4.96-3.68-4.86-3.82c-.77-.6-.9-1.72-.3-2.49.6-.77,1.72-.9,2.49-.3l6.68,5.25c.43.34.68.86.68,1.42,0,.55-.27,1.07-.72,1.4l-4.96,3.68,4.86,3.81c.43.34.68.87.68,1.42s-.27,1.07-.72,1.4l-6.83,5.05c-.32.23-.69.35-1.05.35Z"/>
    <path class="cls-1" d="m438.49,253.14c-.2,0-.41-.04-.61-.11l-8.09-2.96c-.52-.19-.92-.61-1.08-1.14-.16-.53-.07-1.1.25-1.55l3.64-5.13-5.91-2.16c-.52-.19-.92-.61-1.08-1.14-.16-.53-.07-1.1.25-1.55l4.99-7.01c.57-.8,1.67-.98,2.47-.41.8.57.98,1.67.41,2.47l-3.64,5.12,5.9,2.16c.52.19.92.61,1.08,1.14.16.53.07,1.1-.25,1.55l-3.64,5.13,5.91,2.16c.92.34,1.39,1.35,1.05,2.27-.26.72-.94,1.16-1.66,1.16Z"/>
    <path class="cls-1" d="m430.58,494.11c-.1,0-.19,0-.29-.02l-4.48-.74c-.54-.09-1.02-.43-1.28-.92-.26-.49-.28-1.07-.05-1.57l.92-2.02-2.19-.36c-.55-.09-1.02-.43-1.28-.92s-.28-1.07-.05-1.57l1.89-4.12c.41-.89,1.46-1.28,2.35-.87.89.41,1.28,1.46.87,2.35l-.92,2.01,2.19.36c.54.09,1.02.43,1.28.91.26.49.28,1.07.05,1.57l-.92,2.02,2.19.36c.96.16,1.62,1.07,1.46,2.03-.14.87-.89,1.48-1.75,1.48Z"/>
    <path class="cls-1" d="m440.24,194.51c-.56,0-1.1-.26-1.45-.75l-10.28-14.58c-.32-.45-.41-1.02-.24-1.55.17-.53.57-.95,1.09-1.13l14.59-5.28-8.94-12.67c-.32-.45-.41-1.03-.24-1.55.17-.53.57-.95,1.09-1.13l16.77-6.05c.92-.33,1.93.14,2.27,1.06.33.92-.14,1.93-1.06,2.27l-14.58,5.26,8.94,12.67c.32.45.41,1.03.24,1.55-.17.53-.57.95-1.09,1.13l-14.59,5.28,8.94,12.68c.56.8.37,1.9-.43,2.47-.31.22-.67.32-1.02.32Z"/>
    <path class="cls-1" d="m396.31,388.7h0c-.98,0-1.77-.79-1.77-1.77v-4.66s-4.5,1.24-4.5,1.24c-.53.15-1.1.04-1.54-.3-.44-.33-.7-.85-.7-1.41v-4.67s-4.51,1.23-4.51,1.23c-.94.26-1.92-.3-2.17-1.24-.26-.94.3-1.92,1.24-2.17l6.74-1.85c.53-.15,1.1-.04,1.54.3.44.33.7.85.7,1.41v4.67s4.5-1.24,4.5-1.24c.53-.15,1.1-.04,1.54.3.44.33.7.85.7,1.41v6.99c0,.98-.79,1.77-1.77,1.77Z"/>
    <path class="cls-1" d="m14.04,25.23c-.43,0-.85-.16-1.18-.45l-5.78-5.19c-.73-.65-.79-1.77-.13-2.5.65-.73,1.77-.79,2.5-.13l4.05,3.64,2.44-4.87c.25-.49.71-.84,1.25-.95.54-.1,1.1.05,1.51.42l4.06,3.64,2.44-4.88c.44-.87,1.5-1.23,2.38-.79.87.44,1.23,1.5.79,2.38l-3.48,6.95c-.25.49-.71.84-1.25.95-.54.1-1.1-.05-1.51-.42l-4.06-3.64-2.44,4.87c-.25.49-.71.84-1.25.95-.11.02-.22.03-.33.03Z"/>
    <path class="cls-1" d="m391.73,92.24c-.81,0-1.54-.56-1.73-1.38l-3.1-13.78c-.12-.54.02-1.1.37-1.53.35-.42.89-.64,1.44-.63l11.79.54-2.59-11.51c-.12-.54.02-1.1.37-1.53.36-.42.9-.65,1.44-.63l14.1.66c.98.05,1.73.87,1.69,1.85-.04.98-.91,1.74-1.85,1.69l-11.78-.55,2.59,11.51c.12.54-.02,1.1-.37,1.53-.35.42-.87.65-1.44.63l-11.79-.54,2.59,11.52c.21.95-.38,1.9-1.34,2.12-.13.03-.26.04-.39.04Z"/>
    <path class="cls-1" d="m295.18,336.14c-.24,0-.48-.05-.71-.15-.9-.39-1.3-1.44-.91-2.33l3.37-7.69-8.31-1.21c-.55-.08-1.02-.41-1.29-.89-.27-.48-.3-1.06-.08-1.57l3.37-7.7-8.32-1.22c-.97-.14-1.64-1.04-1.5-2.01.14-.97,1.05-1.65,2.01-1.5l10.61,1.55c.55.08,1.02.41,1.29.89.27.48.29,1.06.07,1.57l-3.37,7.7,8.32,1.21c.55.08,1.03.41,1.29.89.27.48.29,1.06.07,1.57l-4.3,9.82c-.29.66-.94,1.06-1.62,1.06Z"/>
    <path class="cls-1" d="m130.09,464.2c-.43,0-.84-.15-1.17-.44l-4.7-4.12c-.73-.64-.81-1.76-.16-2.5.64-.73,1.76-.81,2.5-.16l2.96,2.59,1.72-3.54c.24-.5.7-.85,1.24-.96.54-.12,1.1.04,1.52.4l2.96,2.59,1.72-3.54c.43-.88,1.49-1.25,2.37-.82.88.43,1.24,1.49.82,2.37l-2.74,5.63c-.24.5-.7.85-1.24.96-.54.11-1.1-.04-1.52-.4l-2.96-2.59-1.72,3.54c-.24.5-.7.85-1.24.96-.12.02-.23.03-.35.03Z"/>
    <path class="cls-1" d="m89.29,310.91c-.11,0-.23-.01-.34-.03l-6.38-1.25c-.96-.19-1.58-1.12-1.4-2.08.19-.96,1.11-1.58,2.08-1.4l4.1.8-.31-4.17c-.04-.55.18-1.09.59-1.46.41-.37.98-.52,1.51-.41l4.11.8-.31-4.17c-.07-.98.66-1.82,1.63-1.9.98-.08,1.82.66,1.9,1.63l.48,6.48c.04.55-.18,1.09-.59,1.45s-.98.52-1.51.41l-4.1-.8.31,4.17c.04.55-.18,1.09-.59,1.46-.33.29-.75.45-1.18.45Z"/>
    <path class="cls-1" d="m485.71,457.19c-.66,0-1.29-.36-1.59-.99-.43-.88-.06-1.94.81-2.37l2.62-1.28-1.93-2.19c-.37-.41-.52-.98-.41-1.52.11-.54.46-1,.96-1.24l2.62-1.28-1.93-2.19c-.65-.73-.57-1.85.16-2.5.73-.65,1.85-.57,2.5.16l3.46,3.93c.36.41.52.97.41,1.52-.11.54-.46,1-.96,1.24l-2.62,1.28,1.93,2.19c.37.41.52.98.41,1.52-.11.54-.46,1-.96,1.24l-4.7,2.3c-.25.12-.52.18-.78.18Z"/>
    <path class="cls-1" d="m249.13,121.93c-.32,0-.64-.08-.93-.26l-13.93-8.59c-.47-.29-.78-.78-.83-1.33-.05-.55.15-1.09.55-1.47l10.26-9.59-11.95-7.36c-.47-.29-.78-.78-.83-1.33-.05-.55.15-1.09.55-1.47l11.96-11.15c.71-.67,1.83-.63,2.5.09.67.71.63,1.84-.09,2.5l-10.26,9.57,11.95,7.36c.47.29.78.78.83,1.33.05.55-.15,1.09-.55,1.47l-10.26,9.59,11.95,7.37c.83.51,1.09,1.6.58,2.44-.33.54-.91.84-1.51.84Z"/>
    <path class="cls-1" d="m288.01,452.51c-.85,0-1.6-.61-1.74-1.48-.16-.96.49-1.88,1.45-2.04l6.56-1.1-2.8-6.04c-.23-.5-.22-1.08.04-1.57.26-.49.73-.83,1.27-.92l6.57-1.1-2.8-6.04c-.41-.89-.02-1.94.86-2.35.89-.41,1.94-.02,2.35.86l3.77,8.15c.23.5.22,1.08-.04,1.57-.26.49-.73.83-1.27.92l-6.57,1.1,2.8,6.04c.23.5.22,1.08-.04,1.57s-.73.83-1.27.92l-8.85,1.48c-.1.02-.2.02-.29.02Z"/>
    <path class="cls-1" d="m479.9,340.26c-.38,0-.75-.12-1.06-.36-.44-.33-.7-.85-.71-1.4l-.11-14.83-14.27,4.02c-.53.15-1.1.04-1.54-.29-.44-.33-.7-.85-.71-1.4l-.12-17.14c0-.98.78-1.78,1.76-1.78h.01c.97,0,1.76.78,1.77,1.76l.1,14.82,14.27-4.02c.53-.15,1.1-.04,1.54.29.44.33.7.85.71,1.4l.11,14.83,14.28-4.02c.94-.26,1.92.28,2.18,1.22.27.94-.28,1.92-1.22,2.18l-16.51,4.65c-.16.04-.32.07-.48.07Z"/>
    <path class="cls-1" d="m20.91,490.64c-.57,0-1.13-.27-1.47-.78l-7.72-11.43c-.31-.46-.39-1.03-.21-1.56.18-.52.59-.93,1.11-1.11l10.86-3.69-6.42-9.5c-.31-.46-.39-1.03-.21-1.56.18-.52.59-.94,1.11-1.11l13.05-4.42c.93-.31,1.93.18,2.24,1.11.31.93-.18,1.93-1.11,2.24l-10.85,3.68,6.42,9.5c.31.46.39,1.03.21,1.56-.18.52-.59.93-1.11,1.11l-10.86,3.69,6.42,9.5c.55.81.33,1.91-.48,2.46-.3.2-.65.3-.99.3Z"/>
    <path class="cls-1" d="m121,106.06c-.3,0-.6-.08-.88-.24-.85-.49-1.14-1.57-.65-2.42l5.63-9.8-10.95-2.83c-.53-.14-.97-.52-1.19-1.03s-.18-1.09.1-1.57l5.63-9.82-10.95-2.84c-.95-.25-1.52-1.21-1.27-2.16.25-.95,1.21-1.52,2.16-1.27l13.2,3.42c.53.14.97.52,1.19,1.03.21.51.18,1.09-.1,1.57l-5.63,9.82,10.95,2.83c.53.14.97.52,1.19,1.03.21.51.18,1.09-.1,1.57l-6.78,11.82c-.33.57-.92.89-1.54.89Z"/>
    <path class="cls-1" d="m344.53,355.34c-.42,0-.83-.15-1.15-.43l-13.48-11.56c-.74-.64-.83-1.75-.19-2.5.64-.74,1.75-.83,2.5-.19l11.72,10.05,6.59-13.97c.24-.5.69-.86,1.23-.98.54-.11,1.1.03,1.52.39l11.74,10.05,6.6-13.97c.42-.88,1.47-1.26,2.36-.84.88.42,1.26,1.47.84,2.36l-7.59,16.07c-.24.5-.69.86-1.23.97-.54.12-1.1-.03-1.52-.39l-11.74-10.05-6.59,13.97c-.24.5-.69.86-1.23.98-.12.03-.25.04-.37.04Z"/>
    <path class="cls-1" d="m182.51,305.11c-.52,0-1.01-.23-1.35-.62l-10.22-12c-.63-.74-.54-1.86.2-2.5.75-.63,1.86-.55,2.5.2l8.71,10.23,7.56-11.12c.31-.46.82-.74,1.37-.77.55-.03,1.08.2,1.44.62l8.73,10.24,7.57-11.12c.55-.81,1.65-1.02,2.46-.47.81.55,1.02,1.65.47,2.46l-8.87,13.04c-.31.46-.82.74-1.37.77-.55.03-1.08-.2-1.44-.62l-8.73-10.24-7.56,11.12c-.31.46-.82.74-1.37.77-.03,0-.06,0-.1,0Z"/>
    <path class="cls-1" d="m341.67,234.7c-.73,0-1.42-.46-1.67-1.19-.32-.92.17-1.93,1.09-2.25l2.11-.73-1.27-1.84c-.31-.45-.4-1.03-.22-1.55.17-.53.58-.94,1.1-1.12l2.11-.74-1.27-1.84c-.55-.81-.35-1.91.45-2.46.81-.55,1.91-.35,2.46.45l2.58,3.75c.31.45.4,1.03.22,1.55-.17.52-.58.94-1.1,1.12l-2.11.74,1.27,1.84c.31.46.4,1.03.22,1.55-.17.53-.58.94-1.1,1.12l-4.3,1.5c-.19.07-.39.1-.58.1Z"/>
    <path class="cls-1" d="m150.33,138c-.21,0-.42-.04-.63-.12-.91-.35-1.37-1.37-1.02-2.28l1.24-3.27-3.48-.33c-.55-.05-1.04-.36-1.33-.83-.29-.47-.35-1.05-.15-1.56l1.24-3.28-3.49-.34c-.97-.09-1.69-.96-1.59-1.93.09-.97.96-1.69,1.93-1.59l5.8.56c.55.05,1.04.36,1.33.83.29.47.35,1.05.15,1.56l-1.24,3.27,3.48.33c.55.05,1.04.36,1.33.83.29.47.35,1.05.15,1.56l-2.07,5.44c-.27.71-.94,1.14-1.65,1.14Z"/>
    <path class="cls-1" d="m257.95,463.74c-.57,0-1.13-.27-1.47-.78l-8.07-12.03-9.47,10.97c-.36.42-.9.65-1.45.61-.55-.03-1.06-.32-1.36-.78l-8.09-12.03-9.48,10.97c-.64.74-1.76.82-2.5.18-.74-.64-.82-1.76-.18-2.5l10.99-12.73c.36-.42.9-.65,1.45-.61.55.03,1.06.32,1.36.78l8.09,12.03,9.47-10.97c.36-.42.89-.65,1.45-.61.55.03,1.06.32,1.36.78l9.36,13.96c.54.81.33,1.91-.48,2.46-.3.2-.65.3-.98.3Z"/>
    <path class="cls-1" d="m145.28,68.35c-.83,0-1.56-.58-1.73-1.42l-.59-2.94c-.11-.54.04-1.1.41-1.52.36-.41.91-.63,1.45-.6l.67.05-.13-.66c-.11-.54.04-1.1.41-1.52.36-.41.9-.63,1.45-.6l2.99.21c.97.07,1.71.91,1.64,1.89s-.92,1.71-1.89,1.64l-.67-.05.13.66c.11.54-.04,1.1-.41,1.52-.36.42-.9.64-1.45.6l-.67-.05.13.66c.19.96-.43,1.89-1.39,2.08-.12.02-.23.03-.35.03Z"/>
    <path class="cls-1" d="m332.43,26.49c-.54,0-1.08-.25-1.43-.72-.58-.79-.41-1.89.37-2.47l1.47-1.08-1.43-1.13c-.43-.34-.68-.87-.67-1.42s.27-1.07.72-1.4l1.47-1.09-1.44-1.13c-.77-.61-.9-1.72-.29-2.49.61-.77,1.72-.9,2.49-.29l3.26,2.57c.43.34.68.87.67,1.42,0,.55-.27,1.07-.72,1.4l-1.47,1.09,1.44,1.13c.43.34.68.87.67,1.42,0,.55-.27,1.07-.72,1.4l-3.34,2.46c-.32.23-.68.35-1.05.35Z"/>
    <path class="cls-1" d="m172.96,395.83s-.04,0-.06,0l-6-.18c-.55-.02-1.06-.29-1.39-.74-.32-.45-.41-1.02-.25-1.55l1.08-3.52-3.68-.11c-.55-.02-1.06-.29-1.39-.74-.32-.45-.41-1.02-.25-1.55l1.76-5.73c.29-.94,1.28-1.46,2.21-1.17.93.29,1.46,1.28,1.17,2.21l-1.08,3.51,3.68.11c.55.02,1.06.29,1.38.74.32.45.41,1.02.25,1.55l-1.08,3.52,3.68.11c.98.03,1.75.85,1.71,1.82-.03.96-.82,1.72-1.77,1.72Z"/>
    <path class="cls-1" d="m389.6,490.73c-.07,0-.14,0-.2-.01-.55-.06-1.04-.38-1.32-.85l-4.4-7.39-5.96,6.19c-.38.4-.92.6-1.48.53-.55-.06-1.04-.38-1.32-.85l-5.57-9.38c-.5-.84-.22-1.93.62-2.43.84-.5,1.93-.22,2.43.62l4.39,7.39,5.96-6.19c.38-.4.92-.6,1.48-.53.55.06,1.04.38,1.32.85l4.4,7.39,5.97-6.19c.68-.7,1.8-.72,2.5-.05.7.68.72,1.8.05,2.5l-7.58,7.86c-.34.35-.8.54-1.27.54Z"/>
    <path class="cls-1" d="m22.88,426.48c-.23,0-.45-.04-.67-.13l-13.84-5.64c-.9-.37-1.34-1.4-.97-2.31.37-.9,1.4-1.35,2.31-.97l11.69,4.77,1.5-12.54c.07-.55.38-1.03.86-1.31.47-.28,1.05-.32,1.57-.12l11.71,4.76,1.5-12.55c.12-.97,1-1.66,1.97-1.55.97.12,1.66,1,1.55,1.97l-1.78,14.85c-.07.55-.38,1.03-.86,1.31-.48.28-1.05.32-1.57.12l-11.7-4.76-1.5,12.54c-.07.55-.38,1.03-.86,1.32-.28.16-.59.24-.9.24Z"/>
    <path class="cls-1" d="m61.56,379.35c-.73,0-1.42-.46-1.67-1.19l-5.74-16.56c-.18-.52-.11-1.1.2-1.56.3-.46.81-.75,1.36-.79l15.18-1.02-4.99-14.37c-.18-.52-.11-1.1.2-1.56.31-.46.81-.75,1.36-.79l17.48-1.16c.99-.07,1.82.67,1.88,1.65.06.98-.67,1.82-1.65,1.88l-15.17,1,4.99,14.36c.18.52.11,1.1-.2,1.56-.31.46-.81.75-1.36.79l-15.18,1.02,4.98,14.37c.32.92-.17,1.93-1.09,2.25-.19.07-.39.1-.58.1Z"/>
    <path class="cls-1" d="m413.53,208.36c-.84,0-1.59-.6-1.74-1.46l-.41-2.33-2.14,1.01c-.5.24-1.08.23-1.57-.03-.49-.25-.84-.72-.93-1.26l-.41-2.33-2.14,1.02c-.88.42-1.94.04-2.36-.84-.42-.88-.04-1.94.84-2.36l4.24-2.01c.5-.23,1.08-.23,1.57.03.49.25.84.72.93,1.26l.41,2.33,2.14-1.01c.5-.24,1.08-.23,1.57.03.49.25.84.72.93,1.26l.82,4.62c.17.96-.47,1.88-1.43,2.05-.1.02-.21.03-.31.03Z"/>
    <path class="cls-1" d="m355.21,284.87c-.51,0-1.02-.22-1.37-.65-.62-.76-.51-1.87.24-2.49l5.21-4.28-5.51-3.89c-.45-.32-.73-.83-.75-1.38-.02-.55.22-1.08.64-1.43l5.21-4.29-5.51-3.89c-.8-.56-.99-1.67-.42-2.47.56-.8,1.67-.99,2.47-.42l7.41,5.23c.45.32.73.83.75,1.38.02.55-.22,1.08-.64,1.43l-5.21,4.29,5.51,3.89c.45.32.73.83.75,1.38.02.55-.22,1.08-.64,1.43l-7,5.76c-.33.27-.73.4-1.12.4Z"/>
    <path class="cls-1" d="m291.56,491.11c-.44,0-.88-.17-1.21-.47l-10.73-9.99c-.72-.67-.76-1.79-.09-2.5.67-.72,1.79-.75,2.5-.09l9.03,8.4,5.71-10.93c.26-.49.73-.83,1.27-.92.55-.1,1.1.07,1.5.45l9.04,8.4,5.72-10.94c.45-.87,1.52-1.2,2.39-.75.87.45,1.2,1.52.75,2.39l-6.8,12.99c-.26.49-.73.83-1.27.92-.54.09-1.1-.07-1.5-.45l-9.04-8.4-5.72,10.94c-.26.49-.73.83-1.27.92-.1.02-.2.02-.3.02Z"/>
    <path class="cls-1" d="m197.69,449.91c-.56,0-1.11-.26-1.45-.75l-2.98-4.25c-.32-.45-.41-1.03-.24-1.55.17-.53.57-.94,1.09-1.13l2.7-.97-1.65-2.35c-.32-.45-.41-1.03-.24-1.55.17-.53.57-.94,1.09-1.13l4.88-1.75c.92-.33,1.93.15,2.26,1.07.33.92-.15,1.93-1.07,2.26l-2.7.97,1.65,2.35c.32.45.41,1.03.24,1.55-.17.53-.57.94-1.09,1.13l-2.7.97,1.65,2.35c.56.8.37,1.9-.43,2.47-.31.22-.66.32-1.02.32Z"/>
    <path class="cls-1" d="m278.96,132.61c-.36,0-.72-.11-1.02-.33l-11.09-7.84c-.8-.56-.99-1.67-.42-2.47.56-.8,1.67-.99,2.47-.42l9.2,6.5,3.83-10.59c.19-.52.61-.92,1.13-1.09.53-.17,1.1-.08,1.55.24l9.21,6.5,3.84-10.6c.33-.92,1.35-1.39,2.27-1.06.92.33,1.39,1.35,1.06,2.27l-4.63,12.78c-.19.52-.61.92-1.13,1.09-.53.16-1.1.08-1.55-.24l-9.21-6.5-3.83,10.6c-.19.52-.61.92-1.13,1.09-.17.05-.35.08-.53.08Z"/>
    <path class="cls-1" d="m195.59,367.24c-.4,0-.79-.13-1.1-.39-.43-.34-.68-.87-.67-1.42l.07-3.24-3.14.79c-.54.14-1.1.01-1.54-.33-.43-.34-.68-.87-.67-1.42l.12-5.56c.02-.96.81-1.73,1.77-1.73h.04c.98.02,1.75.83,1.73,1.81l-.07,3.24,3.14-.79c.54-.13,1.1-.01,1.54.33.43.34.68.87.67,1.42l-.07,3.24,3.15-.79c.95-.24,1.91.34,2.15,1.28.24.95-.34,1.91-1.28,2.15l-5.4,1.36c-.14.04-.29.05-.43.05Z"/>
    <path class="cls-1" d="m257.96,174.26c-.92,0-1.7-.71-1.76-1.65l-.5-7.14c-.04-.55.18-1.09.6-1.45.41-.36.98-.52,1.52-.41l4.75.95-.34-4.83c-.04-.55.18-1.09.6-1.45.41-.36.98-.52,1.52-.41l7.02,1.41c.96.19,1.58,1.13,1.39,2.08-.19.96-1.12,1.58-2.08,1.39l-4.74-.95.34,4.82c.04.55-.18,1.09-.6,1.45-.41.37-.98.52-1.52.41l-4.75-.95.34,4.83c.07.98-.67,1.82-1.64,1.89-.04,0-.08,0-.13,0Z"/>
    <path class="cls-1" d="m103.99,18.14c-.71,0-1.39-.44-1.66-1.14l-.51-1.36-1.17.86c-.45.33-1.02.43-1.55.27-.53-.16-.96-.55-1.15-1.07l-.52-1.36-1.18.86c-.79.58-1.9.4-2.47-.39-.58-.79-.4-1.9.39-2.47l3.05-2.22c.45-.32,1.02-.42,1.55-.27.53.16.96.55,1.15,1.07l.52,1.36,1.18-.86c.45-.33,1.02-.42,1.55-.27.53.16.96.55,1.15,1.07l1.34,3.53c.35.91-.11,1.94-1.03,2.28-.21.08-.42.12-.63.12Z"/>
    <path class="cls-1" d="m439.34,94.02c-.39,0-.78-.13-1.11-.39l-7.41-5.98c-.43-.35-.67-.87-.66-1.43.01-.55.29-1.06.73-1.39l5.84-4.21-5.6-4.52c-.43-.35-.67-.87-.66-1.43.01-.55.29-1.06.73-1.39l7.72-5.56c.79-.57,1.9-.39,2.47.4.57.79.39,1.9-.4,2.47l-5.83,4.2,5.6,4.51c.43.35.67.87.66,1.43-.01.55-.29,1.06-.73,1.39l-5.84,4.21,5.6,4.52c.76.61.88,1.73.27,2.49-.35.43-.86.66-1.38.66Z"/>
    <path class="cls-1" d="m128.73,42.83c-.1,0-.19,0-.29-.02-.96-.16-1.62-1.07-1.46-2.03l2.82-17.12c.09-.54.43-1.02.92-1.27.49-.26,1.07-.28,1.57-.05l13.66,6.27,2.44-14.83c.09-.54.43-1.02.92-1.28.49-.26,1.07-.28,1.57-.05l15.76,7.24c.89.41,1.28,1.46.87,2.35-.41.89-1.46,1.27-2.35.87l-13.65-6.27-2.43,14.83c-.09.54-.43,1.02-.92,1.28-.49.26-1.07.28-1.57.05l-13.66-6.27-2.44,14.83c-.14.87-.89,1.48-1.75,1.48Z"/>
    <path class="cls-1" d="m30.12,343.28c-.77,0-1.48-.51-1.7-1.29l-1.76-6.18-5.5,3.34c-.47.29-1.05.34-1.56.14-.51-.2-.9-.63-1.06-1.16l-1.77-6.19-5.5,3.34c-.84.51-1.92.24-2.43-.59-.51-.84-.24-1.93.59-2.43l7.48-4.54c.47-.29,1.05-.34,1.56-.13.51.2.9.63,1.06,1.16l1.77,6.19,5.5-3.34c.47-.29,1.05-.34,1.56-.14.51.2.9.63,1.06,1.16l2.4,8.41c.27.94-.28,1.92-1.22,2.19-.16.05-.33.07-.49.07Z"/>
    <path class="cls-1" d="m69.71,417.72c-.1,0-.2,0-.3-.03-.96-.17-1.61-1.08-1.44-2.04l1.73-10.07c.09-.54.44-1.01.92-1.27.49-.25,1.07-.27,1.57-.03l7.15,3.34,1.34-7.78c.09-.54.44-1.01.92-1.27.49-.26,1.07-.27,1.57-.03l9.25,4.33c.89.41,1.27,1.47.85,2.35-.42.88-1.47,1.26-2.35.85l-7.14-3.35-1.34,7.78c-.09.54-.43,1.01-.92,1.27-.49.26-1.07.27-1.57.03l-7.15-3.34-1.34,7.78c-.15.86-.9,1.47-1.74,1.47Z"/>
    <path class="cls-1" d="m359.87,90.37c-.11,0-.21,0-.32-.03l-14.78-2.69c-.54-.1-1.01-.45-1.26-.94-.25-.49-.26-1.07-.02-1.57l5.49-11.45-12.49-2.27c-.54-.1-1.01-.45-1.26-.94-.25-.49-.26-1.07-.02-1.57l6.5-13.53c.42-.88,1.48-1.25,2.36-.83.88.42,1.25,1.48.83,2.36l-5.5,11.44,12.49,2.27c.54.1,1.01.45,1.26.94.25.49.26,1.07.02,1.57l-5.49,11.45,12.5,2.28c.96.18,1.6,1.1,1.42,2.06-.16.85-.9,1.45-1.74,1.45Z"/>
    <path class="cls-1" d="m351.57,154.1c-.8,0-1.52-.54-1.72-1.35l-3.3-13.57c-.13-.54,0-1.1.34-1.53.35-.43.87-.7,1.43-.66l11.64.33-2.75-11.31c-.13-.54,0-1.1.34-1.53.35-.43.86-.68,1.43-.66l13.95.41c.98.03,1.75.84,1.72,1.82-.03.98-.85,1.76-1.82,1.72l-11.63-.34,2.75,11.31c.13.54,0,1.1-.34,1.53-.35.43-.89.7-1.43.66l-11.65-.33,2.75,11.32c.23.95-.35,1.91-1.3,2.14-.14.03-.28.05-.42.05Z"/>
    <path class="cls-1" d="m478.22,418.57c-.11,0-.22-.01-.34-.03-.54-.1-1-.46-1.25-.95l-4.89-9.85-8.2,7.32c-.41.37-.97.52-1.52.42-.54-.1-1-.46-1.25-.95l-5.91-11.92c-.43-.88-.08-1.94.8-2.37.88-.44,1.94-.08,2.37.8l4.88,9.84,8.2-7.32c.41-.37.97-.52,1.51-.42.54.1,1,.46,1.25.95l4.9,9.85,8.21-7.32c.73-.65,1.85-.59,2.5.14.65.73.59,1.85-.14,2.5l-9.94,8.86c-.33.29-.75.45-1.18.45Z"/>
    <path class="cls-1" d="m167.82,266.86c-.09,0-.19,0-.28-.02-.97-.16-1.62-1.06-1.47-2.03l.16-.99-.99.11c-.55.06-1.09-.14-1.47-.54-.38-.4-.55-.95-.47-1.5l.16-.99-1,.11c-.97.11-1.85-.6-1.95-1.57-.11-.97.6-1.85,1.57-1.95l3.3-.36c.55-.06,1.1.14,1.47.54.38.4.55.95.47,1.5l-.16.99,1-.11c.55-.06,1.09.14,1.48.54.38.4.55.96.46,1.5l-.53,3.28c-.14.87-.89,1.49-1.75,1.49Z"/>
    <path class="cls-1" d="m111.54,186.01c-.22,0-.44-.04-.66-.13-.91-.36-1.35-1.4-.98-2.3l.24-.6-.65-.07c-.55-.06-1.04-.38-1.32-.85-.28-.47-.33-1.05-.12-1.57l.24-.61-.65-.07c-.97-.11-1.67-.99-1.56-1.96.11-.97.99-1.67,1.96-1.56l2.96.34c.55.06,1.04.38,1.32.85.28.47.33,1.05.12,1.57l-.24.61.65.07c.55.06,1.04.38,1.32.85.28.47.33,1.05.12,1.57l-1.11,2.76c-.28.69-.94,1.11-1.64,1.11Z"/>
    <path class="cls-1" d="m172.46,113.12c-.07,0-.14,0-.2-.01-.97-.11-1.67-.99-1.56-1.96l.72-6.26-6.23.96c-.55.08-1.1-.09-1.5-.47-.4-.38-.59-.93-.53-1.48l.71-6.26-6.23.96c-.96.15-1.87-.51-2.02-1.48-.15-.97.51-1.87,1.48-2.02l8.52-1.32c.55-.08,1.1.09,1.5.47.4.38.59.93.53,1.48l-.71,6.26,6.23-.96c.54-.09,1.1.09,1.5.47.4.38.6.93.53,1.48l-.98,8.56c-.1.9-.87,1.57-1.76,1.57Z"/>
    <path class="cls-1" d="m55.45,24.11c-.05,0-.11,0-.16,0-.97-.09-1.69-.95-1.61-1.92l.59-6.65c.05-.55.35-1.04.82-1.34.47-.29,1.04-.35,1.56-.16l4.09,1.52.39-4.34c.05-.55.35-1.05.82-1.34.47-.29,1.05-.35,1.56-.16l6.26,2.33c.92.34,1.38,1.36,1.04,2.28-.34.92-1.36,1.38-2.28,1.04l-4.08-1.52-.39,4.34c-.05.55-.35,1.05-.82,1.34-.47.29-1.04.35-1.56.16l-4.09-1.52-.39,4.34c-.08.92-.85,1.61-1.76,1.61Z"/>
    <path class="cls-1" d="m384.13,453.29c-.34,0-.69-.1-1-.31l-12.31-8.39c-.46-.31-.74-.82-.77-1.37-.03-.55.2-1.08.62-1.44l9.58-8.16-10.39-7.08c-.46-.31-.74-.82-.77-1.37-.03-.55.2-1.08.62-1.44l11.35-9.65c.75-.63,1.86-.54,2.5.2.63.75.54,1.86-.2,2.5l-9.58,8.14,10.39,7.08c.46.31.74.82.77,1.37.03.55-.2,1.08-.62,1.44l-9.58,8.16,10.4,7.09c.81.55,1.02,1.65.47,2.46-.34.5-.9.77-1.46.77Z"/>
    <path class="cls-1" d="m135.15,208.87c-.68,0-1.32-.39-1.62-1.05l-.67-1.5-1.27,1.04c-.43.35-.99.48-1.53.36-.54-.13-.99-.5-1.21-1l-.67-1.5-1.27,1.04c-.75.62-1.87.51-2.49-.24-.62-.75-.51-1.87.24-2.49l3.06-2.52c.43-.35.99-.48,1.53-.36.54.13.99.5,1.21,1l.67,1.5,1.27-1.04c.43-.35.99-.48,1.53-.36.54.13.99.5,1.21,1l1.62,3.62c.4.89,0,1.94-.89,2.34-.23.11-.48.16-.72.16Z"/>
    <path class="cls-1" d="m111.94,144.72s-.04,0-.06,0l-8.31-.26c-.98-.03-1.74-.85-1.71-1.82.03-.98.86-1.77,1.82-1.71l5.99.19-1.41-5.83c-.13-.54,0-1.1.35-1.53.35-.43.87-.67,1.43-.65l6,.18-1.41-5.84c-.23-.95.36-1.91,1.31-2.14.95-.23,1.91.36,2.14,1.31l1.95,8.09c.13.54,0,1.1-.35,1.53-.35.43-.87.69-1.43.65l-6-.18,1.41,5.83c.13.54,0,1.1-.35,1.53-.34.41-.84.65-1.37.65Z"/>
    <path class="cls-1" d="m11.53,111.17c-.65,0-1.27-.36-1.58-.97-.44-.87-.09-1.94.78-2.38l2.36-1.19-1.77-1.96c-.37-.41-.53-.97-.43-1.51.1-.54.45-1.01.94-1.26l2.36-1.19-1.77-1.96c-.66-.73-.6-1.84.13-2.5.73-.65,1.84-.6,2.5.13l3.33,3.68c.37.41.53.97.43,1.51-.1.54-.45,1.01-.94,1.26l-2.36,1.19,1.77,1.96c.37.41.53.97.43,1.51-.1.54-.45,1.01-.94,1.26l-4.43,2.24c-.26.13-.53.19-.8.19Z"/>
    <path class="cls-1" d="m491.96,302.7c-.15,0-.31-.02-.47-.06-.94-.26-1.5-1.23-1.24-2.17l.32-1.19h-1.23s0,0,0,0c-.55,0-1.07-.26-1.41-.7-.34-.44-.45-1.01-.3-1.54l.32-1.19h-1.23s0,0,0,0c-.98,0-1.77-.79-1.77-1.77,0-.98.79-1.77,1.77-1.77h3.55s0,0,0,0c.55,0,1.07.26,1.41.7.34.44.45,1.01.3,1.54l-.32,1.19h1.23s0,0,0,0c.55,0,1.07.26,1.41.7.34.44.45,1.01.3,1.54l-.94,3.43c-.22.79-.93,1.3-1.71,1.3Z"/>
    <path class="cls-1" d="m466.85,255.9c-.35,0-.7-.1-.99-.31-.46-.31-.74-.82-.77-1.37l-.18-3.27-3.1,1.04c-.52.18-1.1.1-1.56-.21-.46-.31-.74-.82-.77-1.37l-.31-5.58c-.05-.98.69-1.81,1.67-1.86.96-.05,1.81.69,1.86,1.67l.18,3.26,3.1-1.04c.52-.17,1.1-.1,1.56.21.46.31.74.82.77,1.37l.18,3.27,3.1-1.04c.92-.31,1.93.19,2.24,1.12.31.93-.19,1.93-1.12,2.24l-5.3,1.77c-.18.06-.37.09-.56.09Z"/>
    <path class="cls-1" d="m295.43,374.76c-.4,0-.79-.13-1.11-.39l-8.31-6.65c-.76-.61-.89-1.73-.27-2.49.61-.76,1.72-.89,2.49-.27l6.5,5.2,3.3-7.64c.22-.51.66-.88,1.2-1.02.54-.14,1.1-.01,1.53.34l6.51,5.2,3.3-7.65c.39-.9,1.43-1.31,2.33-.92.9.39,1.31,1.43.92,2.33l-4.22,9.78c-.22.51-.66.88-1.2,1.02-.54.13-1.1.01-1.53-.34l-6.51-5.2-3.3,7.65c-.22.51-.66.88-1.2,1.02-.14.04-.29.05-.43.05Z"/>
    <path class="cls-1" d="m384.7,173.63c-.21,0-.42-.04-.62-.11l-15.47-5.84c-.91-.34-1.38-1.37-1.03-2.28.34-.92,1.37-1.38,2.28-1.03l13.3,5.02,1.32-14.16c.05-.55.36-1.04.82-1.34.47-.29,1.05-.35,1.56-.16l13.31,5.01,1.32-14.16c.09-.97.93-1.69,1.93-1.6.97.09,1.69.95,1.6,1.93l-1.54,16.47c-.05.55-.36,1.04-.82,1.34-.47.29-1.05.35-1.56.16l-13.31-5.01-1.32,14.16c-.05.55-.36,1.04-.82,1.34-.29.18-.61.27-.94.27Z"/>
    <path class="cls-1" d="m341.42,493.34c-.08,0-.16,0-.24-.02l-4.86-.67c-.97-.13-1.65-1.03-1.51-1.99.13-.97,1.02-1.65,2-1.51l2.56.35-.34-2.56c-.07-.55.12-1.1.51-1.49.39-.39.94-.58,1.49-.5l2.56.35-.34-2.57c-.13-.97.55-1.86,1.52-1.99.96-.13,1.86.55,1.99,1.52l.64,4.87c.07.55-.11,1.1-.51,1.49-.39.39-.94.58-1.49.5l-2.56-.35.34,2.57c.07.55-.11,1.1-.51,1.49-.33.33-.78.52-1.25.52Z"/>
  </g>
</svg>