<?xml version="1.0" encoding="utf-8"?>
<!-- Generator: Adobe Illustrator 27.4.0, SVG Export Plug-In . SVG Version: 6.00 Build 0)  -->
<svg version="1.1" id="Ebene_4" xmlns="http://www.w3.org/2000/svg" xmlns:xlink="http://www.w3.org/1999/xlink" x="0px" y="0px"
	 viewBox="0 0 923 282.9" style="enable-background:new 0 0 923 282.9;" xml:space="preserve">
<style type="text/css">
	.st0{fill:#EA4E67;}
	.st1{fill:#FFFFFF;}
</style>
<g>
	
		<rect x="10.8" y="8.4" transform="matrix(0.9963 -8.628637e-02 8.628637e-02 0.9963 -6.8426 6.5211)" class="st0" width="122.5" height="148"/>
	<path class="st1" d="M52,126.5l-7.5-86.9l23.9-2.1c5.9-0.5,11-0.3,15.4,0.6c4.4,0.9,7.9,2.9,10.6,6s4.3,7.7,4.8,13.8
		c0.3,3.6,0.3,6.8,0,9.6c-0.3,2.8-1.2,5.3-2.5,7.5c-1.4,2.2-3.4,4.1-6.2,5.7l15.6,41l-19.8,1.7L73.3,85.4l-5.5,0.5l3.4,38.9
		L52,126.5L52,126.5z M66.9,74.8l5.4-0.5c2.7-0.2,4.8-0.9,6.2-2s2.3-2.6,2.8-4.5c0.4-1.9,0.6-4.1,0.3-6.7c-0.3-3.7-1.2-6.6-2.8-8.5
		c-1.5-2-4.1-2.8-7.8-2.5l-6.2,0.5L66.9,74.8L66.9,74.8z"/>
</g>
<g>
	
		<rect x="109.3" y="119.8" transform="matrix(9.775660e-02 -0.9952 0.9952 9.775660e-02 -14.8236 345.8436)" class="st0" width="148" height="122.5"/>
	<path class="st1" d="M159.5,221.1l8.5-86.8l39,3.8l-1.3,13.1l-19.8-1.9l-2.1,21.5l15.1,1.5l-1.3,13.3l-15.1-1.5l-2.6,25.9l20,2
		l-1.3,13L159.5,221.1L159.5,221.1z"/>
</g>
<g>
	
		<rect x="238.4" y="84.5" transform="matrix(0.2788 -0.9603 0.9603 0.2788 85.3343 405.1674)" class="st0" width="148" height="122.5"/>
	<path class="st1" d="M290.1,184.5l9.2-88.2l15.8,4.6l-7.5,59.5l24.9-54.4l16.8,4.9l-39.6,79.3L290.1,184.5L290.1,184.5z"/>
</g>
<g>
	
		<rect x="380.5" y="36.8" transform="matrix(0.9963 -8.628637e-02 8.628637e-02 0.9963 -7.9141 38.5315)" class="st0" width="122.5" height="148"/>
	<path class="st1" d="M435.7,153.7l-7.5-86.9l19.2-1.7l7.5,86.9L435.7,153.7z"/>
</g>
<g>
	
		<rect x="501.3" y="102.9" transform="matrix(0.9433 -0.332 0.332 0.9433 -26.8295 196.8159)" class="st0" width="122.5" height="148"/>
	<path class="st1" d="M557.1,223.6l-29-82.3l37-13l4.4,12.4l-18.8,6.6l7.2,20.4l14.3-5l4.4,12.6l-14.3,5l8.7,24.6l19-6.7l4.3,12.3
		L557.1,223.6L557.1,223.6z"/>
</g>
<g>
	<rect x="611.9" y="119.8" transform="matrix(0.141 -0.99 0.99 0.141 409.9681 834.6703)" class="st0" width="148" height="122.5"/>
	<path class="st1" d="M656.6,219.5l1.9-87.8l16.2,2.3l-2,51.1l13.7-49.3l12.7,1.8l-0.3,50.9l12.3-49.3l16,2.3l-22.6,84.9l-16.6-2.4
		l0.1-53.2l-14.4,51.1L656.6,219.5L656.6,219.5z"/>
</g>
<g>
	
		<rect x="741.9" y="127.5" transform="matrix(0.4712 -0.882 0.882 0.4712 264.9773 819.5004)" class="st0" width="148" height="122.5"/>
	<path class="st1" d="M795.9,227.3c-4.8-2.6-8.4-5.6-10.7-9c-2.3-3.4-3.3-7.4-3.1-11.8c0.3-4.5,1.8-9.6,4.7-15.4l15.7,5.6
		c-1.7,3.3-2.8,6.1-3.4,8.5c-0.5,2.3-0.6,4.2-0.1,5.6c0.5,1.4,1.5,2.5,2.8,3.2c1.8,0.9,3.2,1,4.4,0.1c1.2-0.9,2.1-2,2.8-3.4
		c1.7-3.2,2.4-6.2,2-9.2s-1.2-6.3-2.7-9.9l-3.5-9.3c-1.6-4-2.5-8.1-2.9-12.3c-0.3-4.2,0.8-8.6,3.2-13.2c3.5-6.5,8.1-10.5,13.8-11.9
		c5.7-1.4,11.9-0.3,18.5,3.2c4.1,2.2,7,4.7,8.8,7.4c1.8,2.7,2.7,5.6,2.8,8.5c0.1,2.9-0.3,5.8-1.2,8.6c-0.9,2.8-1.9,5.3-3,7.6
		l-15.6-6c1.2-2.3,2.1-4.4,2.7-6.2s0.9-3.3,0.7-4.6c-0.2-1.3-1-2.3-2.5-3.1c-1.6-0.8-3.1-0.8-4.5,0.1c-1.4,0.9-2.5,2.1-3.2,3.4
		c-1.5,2.9-2.1,5.5-1.7,8.1s1.2,5.4,2.3,8.5l3.4,9c1.8,4.6,2.9,9.4,3.3,14.2c0.4,4.8-0.8,9.9-3.7,15.2c-1.9,3.6-4.5,6.4-7.7,8.5
		s-6.8,3.1-10.7,3.2C804,230.6,800,229.5,795.9,227.3L795.9,227.3z"/>
</g>
</svg>
