<?xml version="1.0" encoding="UTF-8"?>
<svg id="Ebene_1" data-name="Ebene 1" xmlns="http://www.w3.org/2000/svg" viewBox="0 0 95.61 118.5">
  <defs>
    <style>
      .cls-1 {
        fill: #ea4f67;
      }

      .cls-2 {
        fill: #fff;
      }
    </style>
  </defs>
  <polygon class="cls-1" points="1.14 11.6 82.54 1.6 94.54 107.9 15.24 117.7 1.14 11.6"/>
  <path class="cls-2" d="m53.64,93.5c-3.7.5-6.9.2-9.6-.8s-4.8-2.8-6.4-5.3c-1.6-2.6-2.8-6-3.5-10.3l11.1-3.1c.4,2.5.9,4.5,1.5,6s1.3,2.5,2.2,3.1,1.8.8,2.9.7c1.4-.2,2.2-.7,2.5-1.7s.4-2,.3-3c-.3-2.4-1.1-4.4-2.5-5.9s-3.2-3-5.4-4.5l-5.8-3.8c-2.5-1.6-4.7-3.5-6.6-5.8s-3-5.1-3.5-8.7c-.6-5.1.4-9.1,3.1-12.2,2.7-3.1,6.7-4.9,11.9-5.6,3.2-.4,5.9-.2,8,.7,2.1.8,3.8,2.1,5,3.7s2.1,3.4,2.8,5.3c.6,1.9,1,3.7,1.3,5.5l-11.3,2.8c-.3-1.8-.6-3.3-.9-4.6-.3-1.3-.8-2.2-1.4-2.9-.6-.7-1.5-.9-2.7-.8-1.2.2-2.1.8-2.5,1.9s-.6,2.2-.5,3.2c.3,2.2,1,3.9,2.3,5.2,1.2,1.3,2.8,2.5,4.8,3.8l5.5,3.7c2.9,1.9,5.4,4.1,7.6,6.6,2.1,2.5,3.4,5.8,3.9,9.9.3,2.8,0,5.3-1,7.7-1,2.4-2.6,4.4-4.8,6-2.4,1.8-5.1,2.8-8.3,3.2h0Z"/>
</svg>