<?xml version="1.0" encoding="UTF-8"?>
<svg id="Ebene_1" data-name="Ebene 1" xmlns="http://www.w3.org/2000/svg" viewBox="0 0 816.4 334.3">
  <defs>
    <style>
      .cls-1 {
        fill: #ea4f67;
      }

      .cls-2 {
        fill: #fff;
      }
    </style>
  </defs>
  <polygon class="cls-1" points="459.3 4.5 534.2 37.9 489.7 135.2 416.7 102.7 459.3 4.5"/>
  <path class="cls-2" d="m462.1,101.8c-3.4-1.5-6.1-3.4-7.8-5.6-1.8-2.2-2.7-4.8-2.8-7.9-.1-3,.7-6.6,2.3-10.7l11.1,3.1c-1,2.3-1.6,4.3-1.8,5.9-.2,1.6-.1,2.9.3,3.8s1.1,1.6,2.1,2.1c1.3.6,2.3.5,3-.2.8-.7,1.4-1.5,1.8-2.4,1-2.2,1.3-4.3.9-6.4-.4-2-1.2-4.2-2.4-6.6l-3-6.2c-1.3-2.7-2.2-5.5-2.7-8.3-.5-2.9,0-5.9,1.5-9.2,2-4.7,5-7.6,8.9-8.8,3.9-1.2,8.3-.8,13.1,1.4,3,1.3,5.2,2.9,6.5,4.7,1.4,1.8,2.2,3.7,2.4,5.8.2,2,.1,4-.4,5.9s-1,3.7-1.7,5.4l-11.1-3.4c.7-1.6,1.2-3.1,1.6-4.4s.5-2.3.2-3.2c-.2-.9-.9-1.6-1.9-2-1.1-.5-2.2-.4-3.1.3-1,.7-1.6,1.6-2.1,2.5-.9,2-1.1,3.9-.7,5.6s1.1,3.6,2.1,5.7l2.8,6c1.5,3.1,2.5,6.3,3.1,9.6s-.1,6.8-1.7,10.5c-1.1,2.5-2.8,4.6-4.9,6.1s-4.5,2.4-7.2,2.6c-2.7.1-5.5-.4-8.4-1.7h0Z"/>
</svg>