<?xml version="1.0" encoding="UTF-8"?>
<svg id="S" xmlns="http://www.w3.org/2000/svg" viewBox="0 0 81.49 107.49">
  <defs>
    <style>
      .cls-1 {
        fill: #ea4f67;
      }

      .cls-2 {
        fill: #fff;
      }
    </style>
  </defs>
  <rect class="cls-1" width="81.49" height="107.46"/>
  <path class="cls-2" d="m33.08,81.7c-2.4-1.32-4.21-3.31-5.44-5.98-1.22-2.66-1.93-6.06-2.12-10.19l10.23-1.73c.1,2.4.35,4.4.76,6.01.41,1.61,1.03,2.81,1.87,3.6.84.79,1.88,1.19,3.13,1.19,1.54,0,2.58-.48,3.13-1.44.55-.96.83-2.06.83-3.31,0-2.45-.59-4.5-1.76-6.16-1.18-1.66-2.72-3.32-4.64-5l-6.05-5.26c-2.16-1.82-3.92-3.89-5.29-6.19s-2.05-5.14-2.05-8.5c0-4.8,1.4-8.48,4.21-11.05s6.66-3.85,11.56-3.85c2.93,0,5.33.48,7.2,1.44s3.32,2.24,4.36,3.85c1.03,1.61,1.75,3.36,2.16,5.26.41,1.9.66,3.78.76,5.65l-10.15,1.51c-.1-1.78-.25-3.34-.47-4.68-.22-1.34-.65-2.4-1.3-3.17s-1.62-1.15-2.92-1.15c-1.39,0-2.42.52-3.1,1.55-.67,1.03-1.01,2.17-1.01,3.42,0,2.06.47,3.76,1.4,5.08.94,1.32,2.22,2.7,3.85,4.14l5.9,5.18c2.45,2.11,4.55,4.52,6.3,7.24s2.63,6.06,2.63,10.04c0,2.74-.62,5.21-1.87,7.42-1.25,2.21-2.99,3.94-5.22,5.18-2.23,1.25-4.86,1.87-7.88,1.87-3.6,0-6.6-.66-9-1.98Z"/>
</svg>