<?xml version="1.0" encoding="utf-8"?>
<!-- Generator: Adobe Illustrator 27.3.1, SVG Export Plug-In . SVG Version: 6.00 Build 0)  -->
<svg version="1.1" id="Ebene_1" xmlns="http://www.w3.org/2000/svg" xmlns:xlink="http://www.w3.org/1999/xlink" x="0px" y="0px"
	 viewBox="0 0 855 375" style="enable-background:new 0 0 855 375;" xml:space="preserve">
<style type="text/css">
	.st0{fill:#EA4F67;}
	.st1{fill:#FFFFFF;}
</style>
<polygon class="st0" points="19.4,349.8 98.4,349.8 116.4,282.5 163.2,282.5 145.2,349.8 224.2,349.8 273.9,164 194.9,164 
	176.9,230.3 130.4,230.3 148.2,164 69.2,164 "/>
<polygon class="st0" points="258.4,349.8 338.4,349.8 388.2,164 308.2,164 "/>
<polygon class="st0" points="520.2,225 568.7,225 584.9,164 405.9,164 389.4,225 440.4,225 407.2,349.8 486.9,349.8 "/>
<path class="st0" d="M565.2,298l-12.5,48c38.5,6.5,76,9.8,112,9.8c38,0,64-5.2,80.2-20.5c13.5-12.5,21.8-33.5,21.8-58.2
	c0-26.5-16-37.3-50.5-37.3h-30c-13.5,0-19.5,0-19.5-7.8c0-10.8,16.8-13,51-13c17,0,37,2.2,60.5,7l15.5-59c-37-5.5-71-8-101.5-8
	c-43.2,0-71.5,4.2-87.8,20.2c-15,14.8-25,39.5-25,63.2c0,32.8,19.5,42,63.2,42c2.2,0,10-0.2,22.8-0.2c8,0,11.5,2.2,11.5,8.5
	c0,9.8-12,11.8-38.2,11.8C617.9,304.5,593.4,302,565.2,298z"/>
<polygon class="st1" points="58.4,325.8 137.4,325.8 155.4,258.5 202.2,258.5 184.2,325.8 263.2,325.8 312.9,140 233.9,140 
	215.9,206.3 169.4,206.3 187.2,140 108.2,140 "/>
<polygon class="st1" points="297.4,325.8 377.4,325.8 427.2,140 347.2,140 "/>
<polygon class="st1" points="559.2,201 607.7,201 623.9,140 444.9,140 428.4,201 479.4,201 446.2,325.8 525.9,325.8 "/>
<path class="st1" d="M604.2,274l-12.5,48c38.5,6.5,76,9.8,112,9.8c38,0,64-5.2,80.2-20.5c13.5-12.5,21.8-33.5,21.8-58.3
	c0-26.5-16-37.2-50.5-37.2h-30c-13.5,0-19.5,0-19.5-7.8c0-10.8,16.8-13,51-13c17,0,37,2.2,60.5,7l15.5-59c-37-5.5-71-8-101.5-8
	c-43.2,0-71.5,4.2-87.8,20.2c-15,14.8-25,39.5-25,63.2c0,32.8,19.5,42,63.2,42c2.2,0,10-0.2,22.8-0.2c8,0,11.5,2.2,11.5,8.5
	c0,9.8-12,11.8-38.2,11.8C656.9,280.5,632.4,278,604.2,274z"/>
<path class="st0" d="M703.7,334.3c-36.1,0-74-3.3-112.4-9.8l-2.7-0.5l13.8-52.8l2.2,0.3c31.2,4.4,54.4,6.5,73.1,6.5
	c26.7,0,35.8-2.3,35.8-9.2c0-3.4-0.7-6-9-6c-9,0-15.4,0.1-19.3,0.2c-1.6,0-2.8,0.1-3.5,0.1c-40.6,0-65.8-7.4-65.8-44.5
	c0-24.1,10.1-49.7,25.7-65c17.7-17.4,48.6-21,89.5-21c31.8,0,66,2.7,101.9,8l2.8,0.4l-16.8,64l-2.3-0.5c-22.8-4.6-43-7-60-7
	c-35.8,0-48.5,2.7-48.5,10.5c0,4.7,1.9,5.2,17,5.2h30c36.7,0,53,12.3,53,39.8c0,24.9-8.2,46.8-22.6,60.1
	C769.8,327.9,745.3,334.3,703.7,334.3z M594.8,320c37.3,6.1,73.9,9.3,108.9,9.3c40.2,0,63.7-5.9,78.5-19.8
	c13.3-12.3,21-32.9,21-56.4c0-24.4-14.4-34.8-48-34.8h-30c-13.2,0-22,0-22-10.2c0-13.1,18-15.5,53.5-15.5c16.8,0,36.5,2.2,58.7,6.6
	l14.2-54c-34.6-5-67.7-7.6-98.4-7.6c-39.7,0-69.5,3.3-86,19.5c-14.7,14.5-24.3,38.6-24.3,61.5c0,29.5,15.3,39.5,60.8,39.5
	c0.7,0,1.8,0,3.4-0.1c3.9-0.1,10.4-0.2,19.4-0.2c6,0,14,1.1,14,11c0,13.2-17.7,14.2-40.8,14.2c-18.5,0-41.3-2-71.6-6.2L594.8,320z
	 M527.8,328.3h-84.9l33.2-124.8h-51l17.9-66h184.2l-17.6,66h-48.5L527.8,328.3z M449.4,323.3H524l33.2-124.8h48.5l14.9-56H446.8
	l-15.1,56h51L449.4,323.3z M379.3,328.3h-85.2l51.1-190.7h85.2L379.3,328.3z M300.7,323.3h74.8l48.4-180.7h-74.8L300.7,323.3z
	 M265.1,328.3h-84.2l18-67.2h-41.6l-18,67.2H55.2l51.1-190.7h84.2l-17.8,66.2H214l18-66.2h84.2L265.1,328.3z M187.4,323.3h73.8
	l48.4-180.7h-73.8l-18,66.2h-51.7l17.8-66.2h-73.8L61.7,323.3h73.8l18-67.2h51.9L187.4,323.3z"/>
<polygon class="st0" points="126.1,43.5 207.5,33.5 219.5,139.8 140.2,149.6 "/>
<path class="st1" d="M178.6,125.4c-3.7,0.5-6.9,0.2-9.6-0.8s-4.8-2.8-6.4-5.3c-1.6-2.6-2.8-6-3.5-10.3l11.1-3.1
	c0.4,2.5,0.9,4.5,1.5,6s1.3,2.5,2.2,3.1s1.8,0.8,2.9,0.7c1.4-0.2,2.2-0.7,2.5-1.7c0.3-1,0.4-2,0.3-3c-0.3-2.4-1.1-4.4-2.5-5.9
	c-1.4-1.5-3.2-3-5.4-4.5l-5.8-3.8c-2.5-1.6-4.7-3.5-6.6-5.8s-3-5.1-3.5-8.7c-0.6-5.1,0.4-9.1,3.1-12.2c2.7-3.1,6.7-4.9,11.9-5.6
	c3.2-0.4,5.9-0.2,8,0.7c2.1,0.8,3.8,2.1,5,3.7c1.2,1.6,2.1,3.4,2.8,5.3c0.6,1.9,1,3.7,1.3,5.5l-11.3,2.8c-0.3-1.8-0.6-3.3-0.9-4.6
	c-0.3-1.3-0.8-2.2-1.4-2.9c-0.6-0.7-1.5-0.9-2.7-0.8c-1.2,0.2-2.1,0.8-2.5,1.9s-0.6,2.2-0.5,3.2c0.3,2.2,1,3.9,2.3,5.2
	c1.2,1.3,2.8,2.5,4.8,3.8l5.5,3.7c2.9,1.9,5.4,4.1,7.6,6.6c2.1,2.5,3.4,5.8,3.9,9.9c0.3,2.8,0,5.3-1,7.7c-1,2.4-2.6,4.4-4.8,6
	C184.5,124,181.8,125,178.6,125.4L178.6,125.4z"/>
<polygon class="st0" points="478.7,26 553.6,59.4 509.1,156.7 436.1,124.2 "/>
<path class="st1" d="M481.5,123.3c-3.4-1.5-6.1-3.4-7.8-5.6c-1.8-2.2-2.7-4.8-2.8-7.9c-0.1-3,0.7-6.6,2.3-10.7l11.1,3.1
	c-1,2.3-1.6,4.3-1.8,5.9c-0.2,1.6-0.1,2.9,0.3,3.8c0.4,0.9,1.1,1.6,2.1,2.1c1.3,0.6,2.3,0.5,3-0.2c0.8-0.7,1.4-1.5,1.8-2.4
	c1-2.2,1.3-4.3,0.9-6.4c-0.4-2-1.2-4.2-2.4-6.6l-3-6.2c-1.3-2.7-2.2-5.5-2.7-8.3c-0.5-2.9,0-5.9,1.5-9.2c2-4.7,5-7.6,8.9-8.8
	c3.9-1.2,8.3-0.8,13.1,1.4c3,1.3,5.2,2.9,6.5,4.7c1.4,1.8,2.2,3.7,2.4,5.8c0.2,2,0.1,4-0.4,5.9c-0.5,1.9-1,3.7-1.7,5.4l-11.1-3.4
	c0.7-1.6,1.2-3.1,1.6-4.4c0.4-1.3,0.5-2.3,0.2-3.2c-0.2-0.9-0.9-1.6-1.9-2c-1.1-0.5-2.2-0.4-3.1,0.3c-1,0.7-1.6,1.6-2.1,2.5
	c-0.9,2-1.1,3.9-0.7,5.6c0.4,1.7,1.1,3.6,2.1,5.7l2.8,6c1.5,3.1,2.5,6.3,3.1,9.6s-0.1,6.8-1.7,10.5c-1.1,2.5-2.8,4.6-4.9,6.1
	c-2.1,1.5-4.5,2.4-7.2,2.6C487.2,125.1,484.4,124.6,481.5,123.3L481.5,123.3z"/>
<polygon class="st0" points="554.1,41.1 636,35.3 642.4,142.2 562.6,147.8 "/>
<polygon class="st1" points="582.9,126.1 578.6,66.7 592,65.8 593.7,90.1 603.1,89.4 601.5,65.1 615,64.2 618.8,123.6 605.5,124.5 
	603.7,98.8 594.4,99.4 596.2,125.2 "/>
<polygon class="st0" points="239.9,21.5 321.3,31.5 307.2,137.6 227.9,127.8 "/>
<polygon class="st1" points="248,110 256.1,51 270.4,52.8 272.8,88.2 284.3,54.5 298.2,56.2 291.5,115.3 282.2,114.2 286,74.9 
	274.1,113.2 265.8,112.2 263.2,71.8 257.5,111.2 "/>
<polygon class="st0" points="332.2,48.7 412.5,31.7 433.7,136.6 355.5,153.2 "/>
<path class="st1" d="M383.1,105l6.3-1.3l-8-22.1L383.1,105z M371.8,128.1l-1.3-60.6l15.1-3.2l23.2,55.9l-12,2.6l-4.5-11.7l-8.7,1.8
	l0.6,12.6L371.8,128.1L371.8,128.1z"/>
</svg>
