<?xml version="1.0" encoding="UTF-8"?>
<svg id="Ebene_1" data-name="Ebene 1" xmlns="http://www.w3.org/2000/svg" viewBox="0 0 816.4 223.2">
  <defs>
    <style>
      .cls-1 {
        fill: #ea4f67;
      }

      .cls-2 {
        fill: #fff;
      }
    </style>
  </defs>
  <polygon class="cls-1" points="0 217.2 79 217.2 97 149.9 143.8 149.9 125.8 217.2 204.8 217.2 254.5 31.4 175.5 31.4 157.5 97.7 111 97.7 128.8 31.4 49.8 31.4 0 217.2"/>
  <polygon class="cls-1" points="239 217.2 319 217.2 368.8 31.4 288.8 31.4 239 217.2"/>
  <polygon class="cls-1" points="500.8 92.4 549.3 92.4 565.5 31.4 386.5 31.4 370 92.4 421 92.4 387.8 217.2 467.5 217.2 500.8 92.4"/>
  <path class="cls-1" d="m545.8,165.4l-12.5,48c38.5,6.5,76,9.8,112,9.8,38,0,64-5.2,80.2-20.5,13.5-12.5,21.8-33.5,21.8-58.2,0-26.5-16-37.3-50.5-37.3h-30c-13.5,0-19.5,0-19.5-7.8,0-10.8,16.8-13,51-13,17,0,37,2.2,60.5,7l15.5-59c-37-5.5-71-8-101.5-8-43.2,0-71.5,4.2-87.8,20.2-15,14.8-25,39.5-25,63.2,0,32.8,19.5,42,63.2,42,2.2,0,10-.2,22.8-.2,8,0,11.5,2.2,11.5,8.5,0,9.8-12,11.8-38.2,11.8-20.8,0-45.3-2.5-73.5-6.5Z"/>
  <polygon class="cls-2" points="39 193.2 118 193.2 136 125.9 182.8 125.9 164.8 193.2 243.8 193.2 293.5 7.4 214.5 7.4 196.5 73.7 150 73.7 167.8 7.4 88.8 7.4 39 193.2"/>
  <polygon class="cls-2" points="278 193.2 358 193.2 407.8 7.4 327.8 7.4 278 193.2"/>
  <polygon class="cls-2" points="539.8 68.4 588.3 68.4 604.5 7.4 425.5 7.4 409 68.4 460 68.4 426.8 193.2 506.5 193.2 539.8 68.4"/>
  <path class="cls-2" d="m584.8,141.4l-12.5,48c38.5,6.5,76,9.8,112,9.8,38,0,64-5.2,80.2-20.5,13.5-12.5,21.8-33.5,21.8-58.3,0-26.5-16-37.2-50.5-37.2h-30c-13.5,0-19.5,0-19.5-7.8,0-10.8,16.8-13,51-13,17,0,37,2.2,60.5,7l15.5-59c-37-5.5-71-8-101.5-8-43.2,0-71.5,4.2-87.8,20.2-15,14.8-25,39.5-25,63.2,0,32.8,19.5,42,63.2,42,2.2,0,10-.2,22.8-.2,8,0,11.5,2.2,11.5,8.5,0,9.8-12,11.8-38.2,11.8-20.8,0-45.3-2.5-73.5-6.5Z"/>
  <path class="cls-1" d="m684.3,201.7c-36.1,0-74-3.3-112.4-9.8l-2.7-.5,13.8-52.8,2.2.3c31.2,4.4,54.4,6.5,73.1,6.5,26.7,0,35.8-2.3,35.8-9.2,0-3.4-.7-6-9-6-9,0-15.4.1-19.3.2-1.6,0-2.8.1-3.5.1-40.6,0-65.8-7.4-65.8-44.5,0-24.1,10.1-49.7,25.7-65C639.9,3.6,670.8,0,711.7,0c31.8,0,66,2.7,101.9,8l2.8.4-16.8,64-2.3-.5c-22.8-4.6-43-7-60-7-35.8,0-48.5,2.7-48.5,10.5,0,4.7,1.9,5.2,17,5.2h30c36.7,0,53,12.3,53,39.8,0,24.9-8.2,46.8-22.6,60.1-15.8,14.8-40.3,21.2-81.9,21.2Zm-108.9-14.3c37.3,6.1,73.9,9.3,108.9,9.3,40.2,0,63.7-5.9,78.5-19.8,13.3-12.3,21-32.9,21-56.4s-14.4-34.8-48-34.8h-30c-13.2,0-22,0-22-10.2,0-13.1,18-15.5,53.5-15.5,16.8,0,36.5,2.2,58.7,6.6l14.2-54c-34.6-5-67.7-7.6-98.4-7.6-39.7,0-69.5,3.3-86,19.5-14.7,14.5-24.3,38.6-24.3,61.5,0,29.5,15.3,39.5,60.8,39.5.7,0,1.8,0,3.4-.1,3.9-.1,10.4-.2,19.4-.2,6,0,14,1.1,14,11,0,13.2-17.7,14.2-40.8,14.2-18.5,0-41.3-2-71.6-6.2l-11.3,43.2Zm-67,8.3h-84.9l33.2-124.8h-51l17.9-66h184.2l-17.6,66h-48.5l-33.3,124.8Zm-78.4-5h74.6l33.2-124.8h48.5l14.9-56h-173.8l-15.1,56h51l-33.3,124.8Zm-70.1,5h-85.2L325.8,5h85.2l-51.1,190.7Zm-78.6-5h74.8L404.5,10h-74.8l-48.4,180.7Zm-35.6,5h-84.2l18-67.2h-41.6l-18,67.2H35.8L86.9,5h84.2l-17.8,66.2h41.3L212.6,5h84.2l-51.1,190.7Zm-77.7-5h73.8L290.2,10h-73.8l-18,66.2h-51.7l17.8-66.2h-73.8l-48.4,180.7h73.8l18-67.2h51.9l-18,67.2Z"/>
</svg>