<?xml version="1.0" encoding="utf-8"?>
<!-- Generator: Adobe Illustrator 27.3.1, SVG Export Plug-In . SVG Version: 6.00 Build 0)  -->
<svg version="1.1" id="Ebene_1" xmlns="http://www.w3.org/2000/svg" xmlns:xlink="http://www.w3.org/1999/xlink" x="0px" y="0px"
	 viewBox="0 0 631 278.8" style="enable-background:new 0 0 631 278.8;" xml:space="preserve">
<style type="text/css">
	.st0{fill:#EA4E67;}
	.st1{fill:#FFFFFF;}
</style>
<g>
	
		<rect x="8.6" y="9.2" transform="matrix(0.9963 -8.628637e-02 8.628637e-02 0.9963 -6.9185 6.3366)" class="st0" width="122.5" height="148"/>
	<path class="st1" d="M49.8,127.2l-7.5-86.9l22-1.9c7.6-0.7,13.6-0.2,17.9,1.3c4.4,1.5,7.6,4.2,9.7,8.1s3.4,9.1,3.9,15.5l2.7,31.5
		c0.6,6.5,0.2,11.9-1.2,16.2c-1.4,4.3-4.1,7.5-8.1,9.8s-9.8,3.8-17.3,4.4L49.8,127.2L49.8,127.2z M67.9,112.3l3-0.3
		c2.9-0.2,5-0.9,6.2-1.8s1.9-2.3,2.1-4.1c0.2-1.8,0.1-3.9-0.1-6.5l-3.3-37.9c-0.2-2.6-0.6-4.6-1.1-6.2s-1.5-2.6-2.8-3.2
		c-1.3-0.6-3.5-0.8-6.3-0.5l-2.9,0.2L67.9,112.3L67.9,112.3z"/>
</g>
<g>
	
		<rect x="103.8" y="127.4" transform="matrix(0.1103 -0.9939 0.9939 0.1103 -29.2287 344.5901)" class="st0" width="148" height="122.5"/>
	<path class="st1" d="M163.6,229.4l9.6-86.7l19.2,2.1l-9.6,86.7L163.6,229.4L163.6,229.4z"/>
</g>
<g>
	
		<rect x="216.3" y="95.3" transform="matrix(0.2656 -0.9641 0.9641 0.2656 62.2924 394.7929)" class="st0" width="148" height="122.5"/>
	<path class="st1" d="M279.3,199.9c-5.3-1.5-9.4-3.6-12.4-6.4s-4.9-6.5-5.6-10.9c-0.7-4.4-0.3-9.8,1.2-16l16.5,2
		c-0.9,3.6-1.4,6.6-1.4,9c0,2.4,0.4,4.2,1.2,5.5c0.8,1.3,2,2.1,3.5,2.5c1.9,0.5,3.4,0.2,4.3-0.9c1-1.1,1.6-2.5,2-3.9
		c1-3.5,0.9-6.6-0.1-9.5c-1-2.9-2.6-5.9-4.8-9.1l-5.5-8.3c-2.4-3.6-4.3-7.4-5.5-11.4s-1.2-8.6,0.2-13.6c2-7.1,5.6-12,10.8-14.6
		s11.5-2.9,18.8-0.9c4.5,1.2,7.9,3,10.2,5.3c2.3,2.3,3.8,4.8,4.6,7.7c0.7,2.9,1,5.7,0.8,8.6c-0.2,2.9-0.7,5.6-1.3,8.1l-16.5-2.4
		c0.6-2.5,1.1-4.7,1.3-6.6s0.1-3.5-0.3-4.7c-0.5-1.2-1.5-2-3.1-2.5c-1.7-0.5-3.2-0.1-4.4,1.1c-1.2,1.2-2,2.6-2.4,4
		c-0.9,3.1-0.8,5.9,0.1,8.2c0.9,2.4,2.3,5,4.2,7.8l5.3,8c2.8,4.1,4.9,8.5,6.4,13.1c1.4,4.6,1.4,9.9-0.2,15.7c-1.1,4-3,7.3-5.7,10
		s-5.9,4.6-9.7,5.5C287.9,201.2,283.8,201.1,279.3,199.9L279.3,199.9z"/>
</g>
<g>
	
		<rect x="350.5" y="38.3" transform="matrix(0.9963 -8.628637e-02 8.628637e-02 0.9963 -8.1524 35.9477)" class="st0" width="122.5" height="148"/>
	<path class="st1" d="M416.7,155.5c-6.6,0.6-11.9-0.2-15.9-2.2s-7-5.2-9-9.4c-2-4.2-3.2-9.2-3.7-15.1l-2.7-31.3
		c-0.5-6-0.2-11.2,1-15.7c1.2-4.5,3.6-8,7.2-10.7c3.6-2.7,8.7-4.3,15.3-4.9s11.5,0.1,15.4,1.9c3.8,1.8,6.6,4.5,8.4,8.2
		c1.8,3.7,3,8,3.4,12.9l0.6,7.5L418,98.2l-0.8-8.7c-0.1-1.7-0.4-3.4-0.7-4.9c-0.3-1.6-1-2.8-1.9-3.8c-1-1-2.5-1.4-4.5-1.2
		s-3.4,0.8-4.3,2c-0.9,1.2-1.4,2.5-1.5,4.2c-0.1,1.6-0.1,3.3,0.1,5.1l3.5,40.9c0.2,1.9,0.5,3.7,0.9,5.3s1.2,2.8,2.3,3.7
		c1,0.9,2.5,1.2,4.4,1.1c2-0.2,3.4-0.8,4.2-1.9s1.2-2.5,1.3-4.2s0-3.4-0.1-5.1l-0.8-9.1l18.8-1.6l0.6,7.5c0.4,4.9,0.1,9.4-1,13.4
		c-1.1,4-3.4,7.3-6.8,9.9S423.2,154.9,416.7,155.5L416.7,155.5z"/>
</g>
<g>
	
		<rect x="483.9" y="114.6" transform="matrix(0.9433 -0.332 0.332 0.9433 -31.6961 191.6922)" class="st0" width="122.5" height="148"/>
	<path class="st1" d="M559.9,229.5c-6.2,2.2-11.4,2.8-15.8,1.9c-4.3-0.9-8-3.1-11-6.6c-3-3.5-5.5-8.1-7.5-13.7l-10.8-30.6
		c-2-5.7-2.9-10.8-2.8-15.4c0.2-4.5,1.7-8.5,4.5-11.9c2.8-3.4,7.3-6.2,13.5-8.4s11.5-2.9,15.9-2c4.4,0.9,8,3,11,6.5
		c3,3.5,5.5,8,7.5,13.7l10.8,30.6c2,5.6,2.9,10.7,2.8,15.4c-0.1,4.6-1.6,8.6-4.5,12.1C570.7,224.5,566.2,227.3,559.9,229.5
		L559.9,229.5z M555.4,216.6c1.9-0.7,3.1-1.6,3.7-2.9c0.5-1.3,0.7-2.7,0.4-4.3c-0.2-1.6-0.7-3.2-1.2-4.7l-13.9-39.6
		c-0.6-1.6-1.2-3.1-2-4.5c-0.8-1.4-1.8-2.4-3-3c-1.2-0.6-2.8-0.6-4.7,0c-1.8,0.6-2.9,1.6-3.5,2.8c-0.5,1.3-0.7,2.7-0.5,4.2
		s0.7,3.1,1.2,4.8l13.9,39.6c0.5,1.6,1.2,3,2,4.5s1.7,2.4,2.9,3.1S553.5,217.2,555.4,216.6L555.4,216.6z"/>
</g>
</svg>
