<?xml version="1.0" encoding="UTF-8"?>
<svg id="Ebene_2" data-name="Ebene 2" xmlns="http://www.w3.org/2000/svg" viewBox="0 0 415.96 174.15">
  <defs>
    <style>
      .cls-1 {
        fill: #ffe66e;
      }

      .cls-2 {
        fill: #fff;
        stroke: #ffe66e;
        stroke-miterlimit: 10;
        stroke-width: 6px;
      }
    </style>
  </defs>
  <rect class="cls-1" x="37.31" y="54.01" width="353.01" height="91.85" transform="translate(10.82 -20.46) rotate(5.62)"/>
  <rect class="cls-2" x="24.12" y="29.25" width="345.96" height="85.6" transform="translate(4.37 -10.99) rotate(3.23)"/>
  <g>
    <path class="cls-1" d="m126.9,89.94l2.46-43.57,18.89,1.07c3.32.19,6.08.79,8.29,1.81,2.21,1.02,3.85,2.38,4.91,4.08,1.06,1.7,1.53,3.65,1.41,5.86-.09,1.6-.52,3.04-1.3,4.32-.78,1.28-1.82,2.33-3.13,3.14-1.31.82-2.82,1.35-4.53,1.59l-.02.43c1.87.18,3.54.74,5.03,1.7,1.48.96,2.63,2.23,3.46,3.8.82,1.58,1.17,3.39,1.06,5.45-.13,2.38-.87,4.47-2.22,6.26-1.35,1.79-3.19,3.15-5.53,4.08s-5.1,1.31-8.26,1.14l-20.51-1.16Zm13.29-25.29l4.85.27c1.03.06,1.96-.05,2.77-.33s1.46-.72,1.94-1.31c.48-.59.75-1.33.8-2.23.08-1.35-.35-2.41-1.27-3.18-.92-.77-2.12-1.2-3.6-1.28l-5.02-.28-.47,8.34Zm-.93,16.51l5.53.31c1.99.11,3.49-.18,4.53-.86,1.03-.69,1.59-1.76,1.68-3.22.06-1.02-.13-1.9-.56-2.64-.43-.74-1.06-1.31-1.9-1.73-.84-.42-1.86-.66-3.06-.73l-5.7-.32-.52,9.19Z"/>
    <path class="cls-1" d="m182.37,49.37l-2.46,43.57-11.83-.67,2.46-43.57,11.83.67Z"/>
    <path class="cls-1" d="m187.46,59.21l.54-9.53,37.87,2.14-.54,9.53-13.1-.74-1.92,34.04-11.66-.66,1.92-34.04-13.1-.74Z"/>
    <path class="cls-1" d="m229.19,95.71l.37-6.55,22.14-26.32-20.51-1.16.54-9.53,35.57,2.01-.37,6.55-22.14,26.32,20.51,1.16-.54,9.53-35.57-2.01Z"/>
  </g>
</svg>