<?xml version="1.0" encoding="UTF-8"?>
<svg id="Ebene_2" data-name="Ebene 2" xmlns="http://www.w3.org/2000/svg" viewBox="0 0 415.96 174.15">
  <defs>
    <style>
      .cls-1 {
        fill: #8ee53f;
      }

      .cls-2 {
        fill: #fff;
        stroke: #8ee53f;
        stroke-miterlimit: 10;
        stroke-width: 6px;
      }
    </style>
  </defs>
  <rect class="cls-1" x="34.47" y="58.64" width="353.01" height="91.85"/>
  <rect class="cls-2" x="29.2" y="35.86" width="345.96" height="85.6" transform="translate(8.68 -19.42) rotate(5.62)"/>
  <g>
    <path class="cls-1" d="m64.3,87.06l4.27-43.43,18.74,1.84c3.22.32,5.99,1.18,8.29,2.59,2.3,1.41,4.02,3.29,5.14,5.62,1.13,2.34,1.54,5.05,1.23,8.13s-1.25,5.66-2.84,7.66c-1.59,2-3.68,3.42-6.27,4.27s-5.54,1.1-8.84.78l-11.2-1.1.9-9.16,8.82.87c1.38.14,2.59.08,3.6-.17,1.02-.25,1.83-.73,2.43-1.44.61-.71.97-1.68,1.09-2.91s-.04-2.28-.5-3.12c-.45-.84-1.15-1.49-2.1-1.96-.95-.47-2.11-.78-3.5-.91l-4.16-.41-3.35,34.01-11.79-1.16Zm27.41-17.43l8.89,21-12.81-1.26-8.64-20.98,12.55,1.24Z"/>
    <path class="cls-1" d="m105.36,91.1l4.27-43.43,31.3,3.08-.93,9.5-19.51-1.92-.73,7.46,17.9,1.76-.93,9.5-17.9-1.76-.73,7.46,19.42,1.91-.93,9.5-31.21-3.07Z"/>
    <path class="cls-1" d="m159.85,52.61l5.89,31.5.34.03,11.92-29.74,13.32,1.31-18.61,42.02-16.12-1.59-10.06-44.84,13.32,1.31Z"/>
    <path class="cls-1" d="m208.46,57.4l-4.27,43.43-11.79-1.16,4.27-43.43,11.79,1.16Z"/>
    <path class="cls-1" d="m210.97,101.49l4.27-43.43,31.3,3.08-.93,9.5-19.51-1.92-.73,7.46,17.9,1.76-.93,9.5-17.9-1.76-.73,7.46,19.42,1.91-.93,9.5-31.21-3.07Z"/>
    <path class="cls-1" d="m260.34,106.35l-8.53-44.69,13.15,1.29,3.31,27.3.34.03,9.67-26.02,10.35,1.02,4.4,27.5.34.03,8.57-26.22,13.15,1.29-17.08,42.17-11.28-1.11-4.99-24.98-.34-.03-9.77,23.53-11.28-1.11Z"/>
    <path class="cls-1" d="m341.49,84.19c.03-1.43-.39-2.58-1.25-3.46-.86-.88-2.25-1.42-4.16-1.61-1.22-.12-2.22-.07-3.02.14s-1.41.55-1.82,1.01c-.42.46-.66,1.01-.74,1.64-.08.52-.03,1,.15,1.44.18.44.49.85.94,1.23.45.38,1.03.74,1.76,1.08.72.34,1.59.67,2.6.98l3.49,1.11c2.35.74,4.34,1.62,5.97,2.62,1.63,1,2.93,2.12,3.91,3.35.98,1.23,1.66,2.57,2.03,4.02.38,1.45.49,3,.34,4.66-.3,2.85-1.25,5.2-2.86,7.04-1.61,1.84-3.77,3.15-6.5,3.92s-5.92.98-9.6.62-7.01-1.25-9.71-2.65c-2.7-1.39-4.7-3.33-6.02-5.81-1.32-2.48-1.81-5.53-1.46-9.17l11.2,1.1c-.06,1.34.16,2.48.67,3.45s1.28,1.73,2.31,2.3c1.03.57,2.3.93,3.8,1.08,1.26.12,2.33.07,3.21-.16.88-.23,1.56-.59,2.06-1.1.49-.51.78-1.11.86-1.82.05-.67-.11-1.27-.47-1.81-.37-.54-1.01-1.06-1.91-1.56-.91-.5-2.15-1-3.73-1.51l-4.23-1.36c-3.76-1.21-6.65-2.91-8.67-5.08-2.02-2.18-2.86-4.96-2.51-8.35.26-2.76,1.23-5.1,2.93-7.02s3.93-3.34,6.69-4.23c2.76-.9,5.86-1.18,9.3-.84s6.48,1.23,8.92,2.66c2.44,1.43,4.26,3.27,5.44,5.53,1.18,2.26,1.64,4.82,1.38,7.66l-11.28-1.11Z"/>
  </g>
</svg>