<?xml version="1.0" encoding="UTF-8"?>
<svg id="Ebene_4" data-name="Ebene 4" xmlns="http://www.w3.org/2000/svg" viewBox="0 0 923.01 282.92">
  <defs>
    <style>
      .cls-1 {
        fill: #ea4e67;
      }

      .cls-2 {
        fill: #fff;
      }
    </style>
  </defs>
  <g>
    <rect class="cls-1" x="10.75" y="8.4" width="122.52" height="148.03" transform="translate(-6.84 6.52) rotate(-4.95)"/>
    <path class="cls-2" d="m52,126.46l-7.53-86.91,23.93-2.07c5.86-.51,11-.3,15.4.61,4.4.92,7.95,2.93,10.63,6.05,2.68,3.12,4.29,7.72,4.82,13.8.31,3.58.3,6.78-.03,9.62-.33,2.84-1.18,5.34-2.54,7.52-1.36,2.17-3.42,4.06-6.16,5.67l15.55,41.03-19.85,1.72-12.92-38.12-5.47.47,3.37,38.95-19.21,1.66Zm14.88-51.66l5.36-.46c2.72-.24,4.79-.9,6.2-2s2.35-2.58,2.8-4.46c.45-1.88.56-4.1.34-6.68-.32-3.72-1.25-6.56-2.79-8.51-1.54-1.96-4.13-2.78-7.78-2.46l-6.22.54,2.08,24.03Z"/>
  </g>
  <g>
    <rect class="cls-1" x="122.05" y="107.09" width="122.52" height="148.03" transform="translate(18.6 -17.06) rotate(5.61)"/>
    <path class="cls-2" d="m159.47,221.12l8.53-86.82,39.01,3.84-1.29,13.08-19.83-1.95-2.12,21.54,15.11,1.49-1.31,13.29-15.11-1.49-2.55,25.94,20.04,1.97-1.27,12.97-39.23-3.86Z"/>
  </g>
  <g>
    <rect class="cls-1" x="251.17" y="71.76" width="122.52" height="148.03" transform="translate(53.04 -81.34) rotate(16.19)"/>
    <path class="cls-2" d="m290.09,184.54l9.23-88.16,15.82,4.59-7.52,59.5,24.9-54.45,16.76,4.87-39.63,79.33-19.55-5.68Z"/>
  </g>
  <g>
    <rect class="cls-1" x="380.5" y="36.8" width="122.52" height="148.03" transform="translate(-7.91 38.53) rotate(-4.95)"/>
    <path class="cls-2" d="m435.72,153.66l-7.53-86.91,19.21-1.66,7.53,86.91-19.21,1.66Z"/>
  </g>
  <g>
    <rect class="cls-1" x="501.34" y="102.91" width="122.52" height="148.03" transform="translate(-26.83 196.82) rotate(-19.39)"/>
    <path class="cls-2" d="m557.12,223.55l-28.96-82.29,36.98-13.01,4.36,12.39-18.79,6.61,7.19,20.42,14.32-5.04,4.43,12.6-14.32,5.04,8.65,24.58,19-6.69,4.33,12.29-37.18,13.09Z"/>
  </g>
  <g>
    <rect class="cls-1" x="613.89" y="54.24" width="122.52" height="148.03"/>
    <path class="cls-2" d="m651.49,170.41l-10.55-87.23h16.37l5.17,50.83,6.57-50.73h12.82l6.89,50.4,5.28-50.51h16.16l-10.45,87.23h-16.8l-7.43-52.66-7,52.66h-17.02Z"/>
  </g>
  <g>
    <rect class="cls-1" x="744.99" y="54.24" width="122.52" height="148.03" transform="translate(155.53 -364.76) rotate(28.11)"/>
    <path class="cls-2" d="m786.22,166.81c-4.81-2.57-8.38-5.57-10.69-9.01-2.32-3.44-3.34-7.38-3.08-11.84.26-4.46,1.82-9.59,4.68-15.39l15.7,5.58c-1.7,3.33-2.82,6.15-3.36,8.46-.55,2.31-.56,4.18-.06,5.59.51,1.41,1.46,2.49,2.85,3.23,1.77.95,3.25.96,4.43.05,1.18-.92,2.13-2.04,2.84-3.37,1.69-3.17,2.36-6.25,2.01-9.25-.35-3-1.24-6.3-2.65-9.9l-3.55-9.35c-1.59-4.03-2.55-8.14-2.87-12.34s.75-8.61,3.22-13.23c3.48-6.52,8.08-10.48,13.79-11.87,5.71-1.39,11.88-.31,18.53,3.25,4.12,2.2,7.05,4.66,8.81,7.39,1.76,2.73,2.68,5.57,2.78,8.51.1,2.94-.28,5.79-1.15,8.55-.86,2.76-1.87,5.29-3.02,7.6l-15.59-6.01c1.15-2.31,2.07-4.37,2.74-6.17.67-1.8.91-3.34.7-4.63-.21-1.29-1.04-2.32-2.49-3.1-1.58-.85-3.1-.8-4.53.14-1.44.94-2.51,2.08-3.22,3.41-1.52,2.85-2.09,5.54-1.69,8.07.4,2.53,1.18,5.37,2.35,8.52l3.37,9c1.83,4.64,2.94,9.39,3.33,14.23.38,4.84-.85,9.93-3.69,15.25-1.93,3.61-4.5,6.45-7.72,8.51-3.22,2.06-6.79,3.15-10.71,3.25-3.92.1-7.94-.95-12.06-3.14Z"/>
  </g>
</svg>